<svg xmlns="http://www.w3.org/2000/svg" xmlns:xlink="http://www.w3.org/1999/xlink" width="500" zoomAndPan="magnify" viewBox="0 0 375 374.999991" height="500" preserveAspectRatio="xMidYMid meet" version="1.0"><defs><clipPath id="id1"><path d="M 95 52.082031 L 280 52.082031 L 280 322.832031 L 95 322.832031 Z M 95 52.082031 " clip-rule="nonzero"/></clipPath></defs><path fill="rgb(100%, 29.019165%, 57.249451%)" d="M 187.5 0 C 83.945312 0 0 83.945312 0 187.5 C 0 291.054688 83.945312 375 187.5 375 C 291.054688 375 375 291.054688 375 187.5 C 375 83.945312 291.054688 0 187.5 0 " fill-opacity="1" fill-rule="nonzero"/><g clip-path="url(#id1)"><path fill="rgb(100%, 100%, 100%)" d="M 269.132812 281.640625 C 258.214844 297.082031 235.589844 305.753906 218.542969 310.3125 C 208.589844 312.972656 198.363281 314.3125 188.117188 314.355469 C 188.375 314.136719 188.65625 313.964844 188.898438 313.722656 C 195.257812 307.371094 195.257812 297.058594 188.898438 290.699219 C 182.527344 284.339844 172.207031 284.339844 165.84375 290.699219 C 159.960938 296.570312 159.582031 305.769531 164.550781 312.160156 C 161.855469 311.632812 159.164062 311.023438 156.5 310.3125 C 139.445312 305.753906 116.820312 297.082031 105.90625 281.640625 C 103.5625 278.320312 103.265625 273.96875 105.132812 270.269531 L 108.769531 263.074219 C 108.683594 263.667969 108.589844 264.261719 108.589844 264.878906 C 108.589844 271.347656 113.84375 276.589844 120.3125 276.589844 C 126.792969 276.589844 132.046875 271.347656 132.046875 264.878906 C 132.046875 258.40625 126.792969 253.160156 120.3125 253.160156 C 117.097656 253.160156 114.1875 254.464844 112.066406 256.558594 L 157.640625 166.398438 C 158.699219 171.78125 163.441406 175.835938 169.136719 175.835938 C 175.613281 175.835938 180.863281 170.597656 180.863281 164.125 C 180.863281 157.652344 175.613281 152.414062 169.136719 152.414062 C 167.34375 152.414062 165.65625 152.851562 164.128906 153.570312 L 187.515625 107.308594 L 193.671875 119.472656 C 191.269531 119.472656 188.875 120.386719 187.046875 122.210938 C 183.382812 125.867188 183.382812 131.792969 187.046875 135.449219 C 190.707031 139.109375 196.636719 139.109375 200.296875 135.449219 C 200.636719 135.109375 200.914062 134.734375 201.195312 134.355469 L 218.554688 168.695312 C 215.164062 167.320312 211.132812 168.007812 208.386719 170.746094 C 204.726562 174.402344 204.726562 180.328125 208.386719 183.980469 C 212.050781 187.640625 217.980469 187.640625 221.644531 183.980469 C 222.886719 182.738281 223.675781 181.214844 224.074219 179.621094 L 252.003906 234.863281 C 248.8125 233.933594 245.242188 234.675781 242.730469 237.179688 C 239.070312 240.839844 239.070312 246.765625 242.730469 250.417969 C 246.390625 254.074219 252.324219 254.074219 255.980469 250.417969 C 256.984375 249.417969 257.683594 248.246094 258.136719 246.996094 L 269.902344 270.269531 C 271.773438 273.96875 271.480469 278.320312 269.132812 281.640625 Z M 165.097656 76.0625 C 162.507812 73.324219 162.273438 71.492188 162.351562 71.007812 C 162.605469 70.933594 163.367188 70.855469 164.671875 71.332031 C 168.664062 72.808594 174.097656 78.058594 179.113281 88.371094 C 175.09375 85.480469 170.199219 81.460938 165.097656 76.0625 Z M 186.226562 61.1875 C 186.472656 61.292969 187.097656 61.734375 187.769531 62.945312 C 189.824219 66.664062 190.515625 74.179688 187.582031 85.242188 C 186.417969 80.417969 185.335938 74.179688 185.003906 66.804688 C 184.832031 63.039062 185.847656 61.5 186.226562 61.1875 Z M 206.125 72.777344 C 208.429688 69.855469 210.195312 69.324219 210.707031 69.324219 L 210.730469 69.324219 C 210.839844 69.5625 211.03125 70.304688 210.75 71.664062 C 209.875 75.820312 205.484375 81.957031 196.03125 88.421875 C 198.296875 84.011719 201.558594 78.578125 206.125 72.777344 Z M 277.257812 266.5625 L 193.007812 99.917969 C 213.1875 88.730469 219.785156 76.863281 219.078125 69.230469 C 218.71875 65.34375 216.5 62.433594 213.136719 61.445312 C 208.785156 60.15625 203.746094 62.5 199.652344 67.695312 C 198.941406 68.597656 198.367188 69.449219 197.714844 70.332031 C 197.417969 63.304688 195.332031 58.40625 192.488281 55.667969 C 189.679688 52.960938 186.097656 52.207031 182.902344 53.648438 C 178.769531 55.511719 176.476562 60.570312 176.777344 67.179688 C 176.828125 68.316406 176.945312 69.328125 177.03125 70.414062 C 172.214844 65.289062 167.433594 62.964844 163.484375 62.746094 C 159.578125 62.523438 156.382812 64.292969 154.902344 67.464844 C 152.996094 71.574219 154.566406 76.90625 159.113281 81.714844 C 168.5 91.644531 177.199219 97.269531 182.007812 99.964844 L 97.78125 266.5625 C 94.539062 272.980469 95.074219 280.574219 99.175781 286.378906 C 109.082031 300.398438 127.652344 311.121094 154.371094 318.257812 C 165.214844 321.152344 176.363281 322.597656 187.515625 322.597656 C 198.671875 322.597656 209.824219 321.152344 220.667969 318.257812 C 247.382812 311.121094 265.957031 300.398438 275.863281 286.378906 C 279.964844 280.574219 280.496094 272.980469 277.257812 266.5625 " fill-opacity="1" fill-rule="nonzero"/></g><path fill="rgb(100%, 100%, 100%)" d="M 220.15625 211.773438 C 213.792969 205.414062 203.46875 205.414062 197.101562 211.773438 C 190.738281 218.128906 190.738281 228.441406 197.101562 234.800781 C 203.46875 241.164062 213.792969 241.164062 220.15625 234.800781 C 226.523438 228.441406 226.523438 218.128906 220.15625 211.773438 " fill-opacity="1" fill-rule="nonzero"/><path fill="rgb(100%, 100%, 100%)" d="M 219.785156 269.644531 C 213.421875 276.007812 213.421875 286.3125 219.785156 292.679688 C 226.152344 299.035156 236.476562 299.035156 242.835938 292.679688 C 249.210938 286.3125 249.210938 276.007812 242.835938 269.644531 C 236.476562 263.285156 226.152344 263.285156 219.785156 269.644531 " fill-opacity="1" fill-rule="nonzero"/><path fill="rgb(100%, 100%, 100%)" d="M 162.507812 246.546875 C 158.851562 250.203125 158.851562 256.125 162.507812 259.78125 C 166.171875 263.4375 172.101562 263.4375 175.765625 259.78125 C 179.421875 256.125 179.421875 250.203125 175.765625 246.546875 C 172.101562 242.890625 166.171875 242.890625 162.507812 246.546875 " fill-opacity="1" fill-rule="nonzero"/><path fill="rgb(100%, 100%, 100%)" d="M 161.050781 205.996094 C 157.394531 202.34375 151.464844 202.34375 147.800781 205.996094 C 144.140625 209.65625 144.140625 215.578125 147.800781 219.238281 C 151.464844 222.890625 157.394531 222.890625 161.050781 219.238281 C 164.714844 215.578125 164.714844 209.65625 161.050781 205.996094 " fill-opacity="1" fill-rule="nonzero"/></svg>