<?xml version="1.0" standalone="no"?>
<!DOCTYPE svg PUBLIC "-//W3C//DTD SVG 1.1//EN" "http://www.w3.org/Graphics/SVG/1.1/DTD/svg11.dtd" >
<svg xmlns="http://www.w3.org/2000/svg" xmlns:xlink="http://www.w3.org/1999/xlink" version="1.1">
<metadata>
Created by FontForge 20170731 at Tue Jul 20 09:04:09 2004
 By Aleksey,,,
(c)1989 Robert E. Leuschke -- This font is not Shareware and may not be copied, sold, distributed or shared with permission from Gideon, Inc.  6 Fordyce Manor, St. Charles, MO  63303 USA 
</metadata>
<defs>
<font id="MsMadi" horiz-adv-x="922" >
  <font-face 
    font-family="MsMadi"
    font-weight="300"
    font-stretch="normal"
    units-per-em="1000"
    panose-1="2 0 3 0 0 0 0 0 0 0"
    ascent="800"
    descent="-200"
    x-height="280"
    cap-height="662"
    bbox="-335.533 -399 2570 881"
    underline-thickness="19"
    underline-position="-154"
    unicode-range="U+0020-F000"
  />
<missing-glyph horiz-adv-x="500" 
d="M63 0v860h375v-860h-375zM125 63h250v735h-250v-735z" />
    <glyph glyph-name=".notdef" horiz-adv-x="500" 
d="M63 0v860h375v-860h-375zM125 63h250v735h-250v-735z" />
    <glyph glyph-name=".null" horiz-adv-x="0" 
 />
    <glyph glyph-name="nonmarkingreturn" horiz-adv-x="215" 
 />
    <glyph glyph-name="space" unicode=" " horiz-adv-x="215" 
 />
    <glyph glyph-name="exclam" unicode="!" horiz-adv-x="213" 
d="M276 615q0 2 -24 -75q-46 -143 -73 -263q-11 -61 -28 -129q-4 -4 -13 -4q-6 0 -9 6q43 256 43 257q40 208 66 221q5 3 13 3q25 0 25 -16zM123 -26q-24 0 -24 20q0 18 19 53.5t35 35.5q10 0 10 -14q-12 -34 -26 -82q-3 -13 -14 -13z" />
    <glyph glyph-name="quotedbl" unicode="&#x22;" horiz-adv-x="277" 
d="M169 438q-6 0 -6 5q0 7 18.5 33.5t21.5 34.5q11 30 11 115q0 17 17 17q19 0 19 -17q0 -120 -71 -183q-5 -5 -10 -5zM70 438q-6 0 -6 5q0 7 18 33.5t21 34.5q12 34 12 115q0 17 17 17q19 0 19 -17q0 -122 -71 -183q-6 -5 -10 -5z" />
    <glyph glyph-name="numbersign" unicode="#" horiz-adv-x="884" 
d="M881 311q0 -12 -14 -12q-20 0 -55 5q-42 6 -54 7q-96 8 -224 8q2 -91 10 -162q1 -9 8 -41q5 -27 5 -41q0 -15 -12 -15q-9 0 -12 10q-21 66 -26 249q-81 -1 -181 -4q-6 -55 -33 -162q-34 -129 -54 -129q-12 0 -12 6q0 7 1 8q9 27 25 79q28 96 40 196q-19 0 -131 -7
q-79 -4 -130 -4q-12 0 -12 17t14.5 20.5t262.5 8.5q6 69 5 119v46q-162 -5 -274 -5q-10 0 -10 13q0 23 17 23q111 0 265 1q-1 21 -10 81q-9 55 -9 73t23 18q11 0 13 -9q5 -31 7 -81q2 -41 4 -81l179 2q2 116 2 162q0 13 17 13q16 0 16 -12q0 -56 -4 -163q151 2 258 2
q12 0 12 -12q0 -13 -12 -13q-107 0 -259 -4q-3 -108 -3 -166v-7q127 -2 170 -4q109 -6 167 -21q10 -2 10 -12zM507 520l-177 -6q5 -97 0 -165q94 1 176 0q-1 67 1 171z" />
    <glyph glyph-name="dollar" unicode="$" horiz-adv-x="446" 
d="M402 517q-11 0 -12 9q1 -8 1 17q0 33 -22 50t-55 17q-31 -114 -60 -248q67 26 93 26q44 0 44 -46q0 -64 -65 -141q-58 -69 -123 -100q-6 -64 -25 -179q-3 -11 -13 -11q-12 0 -12 14q0 28 10 82q7 41 15 83q-18 -6 -32 -6q-52 0 -52 60q0 39 17 39q11 -3 11 -13
q0 -6 -4 -17t-4 -17q0 -20 25 -20q19 0 45 11q17 113 30 189q-58 -18 -97 -18q-81 0 -81 77t86 164q82 81 162 99q6 28 11 56q11 39 27 39q20 0 20 -10q0 -15 -19 -81q92 -2 92 -88q0 -37 -13 -37zM275 603q-70 -21 -131 -87q-66 -72 -66 -140q0 -46 50 -46q34 0 92 20
q25 138 55 253zM356 334q0 19 -22 19q-18 0 -45 -10q-21 -9 -43 -17q-20 -95 -36 -186q45 27 93 85q53 65 53 109z" />
    <glyph glyph-name="percent" unicode="%" horiz-adv-x="562" 
d="M79 -17q-12 0 -12 13q0 126 185 332q124 137 292 272q-28 4 -104 28q-65 20 -105 20q-60 0 -112 -49.5t-52 -109.5q0 -50 72 -50q43 0 75.5 36.5t32.5 80.5q0 27 -42 40t-42 16q0 16 15 16q33 0 65 -19q37 -21 37 -52q0 -54 -46 -98.5t-100 -44.5q-95 0 -95 83
q0 66 63.5 128t129.5 62q44 0 120 -31.5t117 -32.5q26 19 45 19q18 0 18 -14q0 -8 -132 -116q-161 -132 -253 -234q-141 -158 -160 -282q-1 -13 -12 -13zM382 187q0 13 13 13q83 0 83 -71q0 -54 -48 -93q-44 -37 -100 -37q-42 0 -70 19q-33 22 -33 62q0 42 46.5 90.5
t86.5 48.5q9 0 9 -12q0 -3 -28 -21q-33 -22 -51 -43q-27 -31 -27 -64q0 -54 67 -54q44 0 79.5 29t35.5 72q0 27 -16 38q-7 5 -30 10q-17 4 -17 13z" />
    <glyph glyph-name="ampersand" unicode="&#x26;" horiz-adv-x="570" 
d="M416 20l44 -40q34 -31 34 -40q0 -8 -7 -8t-85 72q-98 -103 -228 -103q-69 0 -116 59q-44 55 -44 126q0 156 196 334v11q0 90 47 189q56 120 136 120q33 0 53 -20.5t20 -53.5q0 -58 -86 -142q-68 -60 -135 -120q5 -38 20 -114q27 44 73 78q52 40 96 40q48 0 77 -40
q26 -35 26 -85q0 -55 -41 -139q-37 -73 -80 -124zM395 706q-52 0 -102 -104q-40 -86 -47 -150l116 96q77 71 77 114q0 18 -13.5 31t-30.5 13zM498 267q0 41 -19 70q-22 35 -61 35q-36 0 -82 -39q-38 -31 -64 -70q37 -134 123 -222q39 45 69 106q34 71 34 120zM380 24
q-91 86 -130 196q-16 -35 -16 -83q0 -20 -11 -22q-9 4 -9 28q0 50 27 104q-19 63 -27 125q-160 -167 -160 -291q0 -57 31 -101q35 -49 89 -49q117 0 206 93z" />
    <glyph glyph-name="quotesingle" unicode="'" horiz-adv-x="185" 
d="M70 438q-6 0 -6 5q0 7 18 33.5t21 34.5q12 34 12 115q0 17 17 17q19 0 19 -17q0 -122 -71 -183q-6 -5 -10 -5z" />
    <glyph glyph-name="parenleft" unicode="(" horiz-adv-x="250" 
d="M82 241q0 -88 28 -168q4 -11 30 -56l26 -45q0 -15 -19 -15q-10 0 -18 10q-83 102 -83 255q0 72 17 134.5t71 161.5q62 114 106 136q5 2 9 2q9 0 9 -8q0 -6 -6 -13q-68 -79 -99 -136q-32 -61 -59 -159q-12 -45 -12 -99z" />
    <glyph glyph-name="parenright" unicode=")" horiz-adv-x="264" 
d="M43 -40q-11 0 -11 10q0 5 5 11q68 79 100 138t59 157q12 44 12 98q0 87 -29 169q-5 15 -56 100q0 16 21 16q11 0 19 -10q80 -98 80 -262q0 -70 -16 -127t-76 -168q-72 -132 -108 -132z" />
    <glyph glyph-name="asterisk" unicode="*" horiz-adv-x="559" 
d="M505 446q0 -18 -15 -18q-16 0 -176 22l61 -77q51 -63 51 -67q0 -19 -19 -19q-10 0 -63 63q-42 49 -64 80q-5 -16 -11 -49q-1 -42 -5 -125q-1 -19 -19 -19t-18 19l5 164q-140 -93 -145 -93q-19 0 -19 13q0 11 67 63l84 64q-28 1 -52 1q-6 0 -134 -15h-6q-17 0 -17 18
q0 24 92 31q58 4 114 1q-16 23 -66 116q0 18 19 18q10 0 43 -47l40 -60q1 9 1 164q0 18 18 18q19 0 19 -18q0 10 1 -85q1 -50 -2 -84q31 35 63 69q52 57 60 57q18 0 18 -19q0 -15 -113 -137q116 -17 172 -31q16 -4 16 -18z" />
    <glyph glyph-name="plus" unicode="+" horiz-adv-x="513" 
d="M410 446q2 -1 2 -4q0 -5 -28 -62q-23 -48 -44 -106q31 2 45 2q77 0 131 -14q8 -2 8 -5q0 -5 -16 -6q-11 -1 -31 -1q-26 2 -23 2q-58 0 -125 -8q-10 -31 -19 -63q-15 -53 -12 -88q1 -7 -2 -12q-10 -21 -27 -13q-9 5 -9 25q0 44 36 147q-50 -7 -71 -12q-41 -9 -67 -25
q-6 -4 -12 -4q-23 0 -23 20q0 34 185 52q15 40 24 59q34 68 70 111q6 6 8 5z" />
    <glyph glyph-name="comma" unicode="," horiz-adv-x="137" 
d="M163 -1q0 -21 -21 -63q-17 -35 -34 -58q-12 -17 -32 -36q-9 -8 -16 -8q-4 0 -4 3q0 2 30.5 50.5t30.5 76.5q0 14 -13.5 20.5t-13.5 24.5q0 15 12 24.5t27 9.5q34 0 34 -44z" />
    <glyph glyph-name="hyphen" unicode="-" horiz-adv-x="237" 
d="M317 248q0 -3 -4 -6t-88 -7q-72 -4 -101 -4q-7 0 -7 14q0 7 4 7q23 0 69.5 3t69.5 3q57 0 57 -10z" />
    <glyph glyph-name="hyphen" unicode="&#x2010;" horiz-adv-x="237" 
d="M317 248q0 -3 -4 -6t-88 -7q-72 -4 -101 -4q-7 0 -7 14q0 7 4 7q23 0 69.5 3t69.5 3q57 0 57 -10z" />
    <glyph glyph-name="period" unicode="." horiz-adv-x="213" 
d="M172 14q0 -35 -35 -35q-34 0 -34 35t34 35q35 0 35 -35z" />
    <glyph glyph-name="slash" unicode="/" horiz-adv-x="689" 
d="M750 635q0 -5 -5 -10q-27 -28 -178 -180l-496 -497h1q-5 -5 -12 -5q-16 0 -16 16q0 7 4.5 12t90.5 91l582 584q5 5 12 5q17 0 17 -16z" />
    <glyph glyph-name="zero" unicode="0" horiz-adv-x="593" 
d="M625 322q0 -26 -8 -55q-11 -47 -51 -100q-59 -79 -150 -135q-96 -58 -191 -66v1q-8 -1 -16 -1q-78 0 -128 56t-50 134q0 21 4 40q53 223 234 317q74 38 130 38q88 0 157 -70.5t69 -158.5zM586 327q0 73 -55.5 132t-127.5 59q-50 0 -117 -35q-168 -87 -216 -299
q-4 -17 -4 -36q0 -65 39 -107.5t103 -42.5q117 0 245 105q133 109 133 224z" />
    <glyph glyph-name="one" unicode="1" horiz-adv-x="255" 
d="M351 562q0 -18 -48 -61q-5 -4 -7.5 -7t-18.5 -29q-116 -188 -203 -402q-13 -31 -20 -53q-3 -12 -6 -23q-5 -14 -11.5 -16.5t-13.5 -2.5q-23 0 -23 15q0 4 22 55q93 210 191 384q-29 -24 -53 -46q-3 -3 -7 -3q-5 0 -14 4.5t-9 10.5q0 12 90 85q19 16 23 19q8 9 23 26
q37 40 54 63q3 3 7 3q7 0 15.5 -7.5t8.5 -14.5z" />
    <glyph glyph-name="two" unicode="2" horiz-adv-x="546" 
d="M562 472q0 -54 -42 -124q-90 -153 -368 -324q109 -25 185 -25q145 0 142 53v5q-1 19 17 19q15 0 15 -23q0 -86 -170 -86q-98 0 -227 34q-53 -27 -93 -27q-23 0 -44 11q-25 13 -25 36q0 19 19 30q15 9 35 9q17 0 101 -25l4 2l4 3q293 181 379 325q38 65 38 106
q0 60 -80 60q-108 0 -207 -97q-14 -14 -44 -52q-6 -7 -13 -7q-17 0 -17 17q0 5 3 9q47 68 122 113q81 49 158 49q47 0 76 -21q32 -24 32 -70zM80 8l-10 10q-31 -12 -50 -12q-28 0 -28 12q0 10 21 10q8 0 28 -6q9 -3 39 -14z" />
    <glyph glyph-name="three" unicode="3" horiz-adv-x="525" 
d="M575 474q0 -91 -140 -195q51 -26 51 -87q0 -110 -138 -179q-110 -55 -220 -55q-37 0 -65 6q-75 14 -75 81q0 16 11 34q12 22 27 22q11 0 11 -11q0 -5 -8 -19t-8 -27q0 -55 102 -55q58 0 118 18q74 21 130 63q76 56 76 123q0 55 -44 66q-71 -38 -113 -38q-38 0 -38 16
q0 29 45 42q59 17 99 14q141 95 141 178q0 59 -80 59q-90 0 -163 -73q-5 -5 -15 -26q-8 -16 -34 -29q-5 -3 -11 -3q-22 0 -22 17q0 5 4 10q96 132 239 132q120 0 120 -84z" />
    <glyph glyph-name="four" unicode="4" horiz-adv-x="482" 
d="M536 542q0 -9 -16 -25q-11 -12 -22.5 -25t-54.5 -88q-57 -100 -115 -223q124 0 124 52v3q-1 2 -1 3q0 18 18 18q15 0 15 -24q0 -86 -171 -86q-32 -68 -51 -117q-5 -19 -16 -49q-5 -13 -22 -13q-23 0 -23 14q0 13 71 167q-89 4 -178 26q-24 -13 -38 -13q-11 0 -25 6
t-14 16q0 13 16 22q13 8 26 8q6 0 12 -1q122 91 362 281q23 23 72 67q3 2 7 2q7 0 15.5 -7t8.5 -14zM432 449q-51 -43 -162.5 -124t-164.5 -128v10q95 -23 180 -26q79 169 147 268z" />
    <glyph glyph-name="five" unicode="5" horiz-adv-x="520" 
d="M602 557q0 -49 -59 -71q-41 -15 -101 -15q-48 0 -149 27q-26 -14 -31 -14q-8 0 -17 5q-12 7 -12 15q0 14 18 22q13 7 27 7q9 0 29 -5q85 -25 125 -25q141 0 138 52v6q-1 18 17 18q15 0 15 -22zM461 196q0 -109 -131 -179q-110 -59 -227 -59q-140 0 -140 87q0 16 11 34
q12 22 27 22q11 0 11 -11q0 -5 -8 -19t-8 -27q0 -55 102 -55q58 0 117 18q75 21 132 63q75 56 75 124q0 46 -26 73.5t-71 27.5q-37 0 -77 -20q-34 -19 -69 -39q-20 -11 -31 -11q-27 0 -27 18q0 9 13 17q64 140 130 211q6 5 12 5q17 0 17 -17q0 -5 -4 -11q-15 -16 -42 -51
q-33 -43 -70 -125l3 1q77 51 152 51q59 0 94 -34t35 -94z" />
    <glyph glyph-name="six" unicode="6" horiz-adv-x="480" 
d="M573 547q0 -12 -9 -17q-15 -8 -44 -13q-32 -5 -44 -10q-135 -56 -267 -178q-157 -144 -157 -261q0 -100 103 -100q9 0 19 1q-14 21 -14 57t15 61q26 46 66 77q47 36 94 36q30 0 50 -15q21 -18 21 -48q0 -50 -61 -111q-87 -86 -188 -86q-139 0 -139 124q0 88 102 213
q93 115 220 202q132 90 214 90q19 0 19 -22zM367 141q0 27 -32 27q-48 0 -97 -51.5t-49 -101.5q0 -24 13 -29l4 -2q5 -2 8 -5q55 21 104 75t49 87z" />
    <glyph glyph-name="seven" unicode="7" horiz-adv-x="339" 
d="M531 542q0 -2 -1 -5q-20 -24 -77 -68q-64 -69 -87 -95q-47 -54 -79 -101q-57 -83 -86 -133q-52 -91 -58 -145q0 -4 -1 -14q-3 -15 -19 -15q-23 0 -23 19q0 53 62 158q19 31 99 148q77 112 174 209q-24 -11 -56 -11t-95 14.5t-95 14.5q-33 0 -50.5 -10.5t-30.5 -40.5
q-5 -12 -10 -25q-9 -18 -18 -18q-20 0 -20 21q0 47 64 97q15 11 42 11q24 0 82 -10q97 -17 140 -17q70 0 116 33q4 2 7 2q7 0 13.5 -6t6.5 -13z" />
    <glyph glyph-name="eight" unicode="8" horiz-adv-x="504" 
d="M603 600q0 -49 -77 -125q-58 -56 -120 -96q-73 -46 -115 -74q67 -52 86 -72q43 -48 43 -100q0 -53 -43 -99q-38 -40 -93 -61q-39 -15 -94 -15q-101 0 -137.5 41t-36.5 73q0 76 223 231q-49 52 -49 115q0 16 2 34q9 58 63 98q51 38 111 38q65 0 113 -44q23 -21 23 -37
q0 -12 -10 -12q-5 0 -20 13q-10 9 -20 17q-38 30 -83 30q-49 0 -91 -31t-47 -79q-2 -20 -2 -37q0 -49 38 -85q50 33 123 81q145 94 176 191q7 25 22 25t15 -20zM387 133q0 43 -44 81q-37 30 -74 61l-9 8q-205 -142 -205 -217q0 -27 24 -47q37 -31 106 -31q48 0 86 15
q47 18 78 50q38 37 38 80z" />
    <glyph glyph-name="nine" unicode="9" horiz-adv-x="431" 
d="M437 405q0 -82 -80 -197q-77 -109 -181 -189q-111 -84 -190 -84q-22 0 -22 25q0 9 7 14q15 8 43.5 12.5t40.5 9.5q120 54 226 167q123 129 123 242q0 59 -33 95t-92 36q-69 0 -128 -61t-59 -130q0 -38 22.5 -65.5t59.5 -27.5q48 0 103 63q11 13 23 13q14 0 14 -14
q0 -7 -7 -17q-60 -80 -136 -80q-51 0 -84 39q-32 36 -32 88q0 82 70 152t152 70q74 0 117 -43.5t43 -117.5z" />
    <glyph glyph-name="colon" unicode=":" horiz-adv-x="205" 
d="M205 153q0 -14 -10.5 -24.5t-24.5 -10.5q-15 0 -25 10t-10 25t10 25t25 10q14 0 24.5 -10.5t10.5 -24.5zM178 26q0 -14 -10.5 -25t-24.5 -11t-24 11t-10 25t10 24t24 10t24.5 -10t10.5 -24z" />
    <glyph glyph-name="semicolon" unicode=";" horiz-adv-x="194" 
d="M186 217q0 -32 -31 -32q-30 0 -30 32q0 31 30 31q31 0 31 -31zM171 17q0 -27 -38 -69q-31 -34 -60 -53q-4 -3 -15 -3q-10 0 -10 5t15 17q62 49 62 79q0 10 -6 22.5t-6 15.5q0 8 8 15t18 7q14 0 23 -11.5t9 -24.5z" />
    <glyph glyph-name="less" unicode="&#x3c;" horiz-adv-x="305" 
d="M189 77q10 -13 -5 -25q-15 -13 -26 1l-139 179q-6 8 -6 16t10 20l135 175q6 6 13 6q21 0 21 -20q0 -5 -3 -10q-44 -57 -133 -171q44 -57 133 -171z" />
    <glyph glyph-name="equal" unicode="=" horiz-adv-x="284" 
d="M263 241q0 -16 -15 -16q-7 0 -21.5 2t-21.5 2q-25 0 -75 -6.5t-75 -6.5q-12 0 -25 7.5t-13 21.5q0 17 16 17q5 0 11.5 -6t12.5 -6q25 0 76 6t76 6q21 0 40 -3q14 -3 14 -18zM263 134q0 -16 -15 -16q-7 0 -21.5 2t-21.5 2q-25 0 -75 -6.5t-75 -6.5q-12 0 -25 8t-13 21
q0 17 16 17q5 0 11.5 -6t12.5 -6q25 0 76 6.5t76 6.5q21 0 40 -4q14 -2 14 -18z" />
    <glyph glyph-name="greater" unicode="&#x3e;" horiz-adv-x="270" 
d="M224 264q6 -8 6 -16t-9 -20l-136 -175q-5 -6 -13 -6q-21 0 -21 20q0 5 4 10l132 171l-132 171q-4 5 -4 10q0 20 21 20q8 0 13 -6z" />
    <glyph glyph-name="question" unicode="?" horiz-adv-x="476" 
d="M484 478q0 -101 -199 -190q-25 -11 -48 -29q-33 -25 -33 -43q0 -5 7 -11t7 -12q0 -14 -14 -14q-12 0 -20.5 12t-8.5 24q0 29 36 60q27 23 62 39q182 82 182 164q0 55 -44 87q-39 30 -96 30q-43 0 -85 -19q-52 -24 -52 -60q0 -20 15 -32t15 -18q0 -15 -14 -15
q-23 0 -39 35q-5 11 -5 28q0 53 58 84q48 26 107 26q68 0 117 -38q52 -41 52 -108zM201 14q0 -14 -10.5 -24.5t-24.5 -10.5t-24.5 10.5t-10.5 24.5t10.5 24.5t24.5 10.5t24.5 -10.5t10.5 -24.5z" />
    <glyph glyph-name="at" unicode="@" horiz-adv-x="836" 
d="M779 285q11 -42 11 -83q0 -147 -128 -250q-117 -94 -251 -94q-161 0 -257 99q-88 90 -88 224q0 90 43 173q46 88 132 148q76 54 143.5 76t159.5 22q133 0 201 -59q59 -52 59 -139q0 -57 -25 -117zM751 291q-9 31 -25 62q-2 3 -2 6q0 12 14 12q7 0 10 -7q9 -17 16 -34
q9 34 9 66q0 79 -52 126q-60 53 -177 53q-177 0 -308 -113q-136 -117 -136 -290q0 -122 77 -201q85 -87 234 -87q122 0 231 90q121 99 121 234q0 19 -3 38q-67 -96 -136 -150q-62 -49 -107 -49q-52 0 -52 62q0 14 10 56l-4 3q-27 -31 -67 -62q-53 -41 -82 -41q-58 0 -58 59
q0 60 40.5 131t89.5 113q55 48 109 48q44 0 68 -26q20 -22 20 -54q0 -16 -7 -35q-8 -24 -20 -24q-7 0 -12.5 7t-3.5 14q12 32 12 45q0 48 -55 48q-44 0 -90 -43q-48 -46 -82 -110t-34 -109q0 -35 29 -35t86 56q42 41 69 79q8 12 24 35q3 5 12 5t17 -5t5 -13
q-42 -88 -42 -130q0 -50 31 -50q43 0 121 81q75 78 100 139z" />
    <glyph glyph-name="A" unicode="A" 
d="M1020 595q-55 -56 -110.5 -164t-86.5 -219h39q20 -1 20 -16q0 -12 -15 -12q-5 0 -22 1h-27q-17 -69 -17 -125q0 -28 4 -52q12 -59 33 -59q15 0 38 28q7 9 15 9q15 0 7 -17q-21 -45 -59 -45q-49 0 -65 76q-5 28 -5 63q0 55 13 122q-127 0 -196 -6l-9 -9
q-252 -283 -395 -283q-87 0 -133 54q-41 50 -41 132t39 167q46 97 128 161q88 69 183 69q71 0 107 -29q32 -26 32 -66q0 -32 -20.5 -61t-51.5 -38q-20 -6 -20 14q0 12 12 15q20 5 34 25t14 43q0 73 -110 73q-83 0 -164 -67q-75 -63 -117 -156q-34 -78 -34 -150
q0 -70 34 -112q37 -46 108 -46q76 0 183 87q72 57 179 173q-66 -7 -139 -23q-16 -4 -16 12q0 14 15 17q66 12 159 20q205 242 262 304q104 113 156 135q24 10 44 10q22 0 22 -13q0 -15 -27 -42zM997 625q-48 -20 -146 -131q-31 -35 -242 -288q81 5 180 7q25 103 81 214
q50 101 103 163q14 19 24 35z" />
    <glyph glyph-name="B" unicode="B" horiz-adv-x="674" 
d="M775 524q0 -122 -228 -179q127 -51 127 -153q0 -127 -195 -225q-172 -87 -331 -87q-125 0 -125 62q0 42 54 91q44 38 98 64q41 97 119 205q85 118 165 180q42 33 62 33q16 0 16 -14q0 -8 -11 -13q-26 -12 -46 -27q-72 -53 -150 -161q-66 -92 -110 -184q79 28 183 28
q121 0 121 -44q0 -15 -16 -15q-9 0 -16 10q-14 20 -88 20q-116 0 -200 -37q-17 -47 -17 -77q0 -31 14.5 -39t14.5 -15q0 -16 -16 -16q-22 0 -35 24q-11 18 -11 40q0 25 10 62q-36 -19 -66 -46q-40 -36 -40 -63q0 -39 89 -39q144 0 308 79q186 90 186 203q0 47 -37 84
q-35 33 -89 49q-15 2 -45 8q-16 3 -16 15q0 11 16.5 13.5t52.5 8.5q141 29 195 94q24 30 24 60q0 54 -68 89q-52 27 -123 34q-34 3 -70 3q-170 0 -291 -81q-56 -37 -92 -84q-44 -56 -44 -108q0 -22 13.5 -34t13.5 -17q0 -16 -17 -16q-19 0 -32 26q-11 22 -11 40q0 58 48 121
q41 54 101 94q132 87 315 87q37 0 70 -3q84 -8 145 -42q75 -42 75 -108z" />
    <glyph glyph-name="C" unicode="C" horiz-adv-x="650" 
d="M837 546q0 -43 -36 -85q-56 -66 -167 -99q-92 -27 -202 -27q-64 0 -129 20q-73 21 -111 58q-114 -133 -114 -261q0 -95 68.5 -159t177.5 -64q204 0 366 247q4 6 11 7q15 1 16 -14q0 -4 -3 -9q-67 -119 -161 -186q-105 -77 -231 -77q-121 0 -199.5 73t-78.5 179
q0 73 37 153q34 74 91 135q-8 17 -8 37q0 25 15 25q19 0 19 -15q0 -4 -1 -11v-12q165 158 404 192q31 4 60 4q69 0 118 -25q58 -30 58 -86zM803 543q0 45 -46 68q-38 18 -94 18q-25 0 -55 -4q-111 -16 -216.5 -67.5t-179.5 -125.5q27 -34 101 -53q59 -15 119 -15
q99 0 183 22q103 28 155 83q33 36 33 74z" />
    <glyph glyph-name="D" unicode="D" horiz-adv-x="910" 
d="M923 363q0 -139 -159 -265q-138 -109 -310 -151q-118 -29 -212 -29q-128 0 -128 61q0 90 184 145q30 92 175 290q49 66 53 72q33 42 61 64q-34 3 -68 3q-135 0 -243 -32q-93 -27 -152 -78q-68 -60 -68 -138q0 -36 15 -64q16 -31 48 -43q12 -5 12 -13q0 -16 -16 -16
q-40 0 -68 50q-25 43 -25 86q0 86 72 153q63 58 165 89q113 33 257 33q51 0 99 -4q6 4 17 15q8 10 16 10q15 0 15 -13q0 -6 -6 -16q266 -38 266 -209zM890 363q0 156 -264 184q-14 -14 -42 -43q-63 -72 -137 -181q-81 -120 -109 -190q90 16 159 16q75 0 103 -30q4 -4 4 -9
q0 -14 -17 -14q-7 0 -14 6q-20 18 -75 18q-80 0 -172 -20q-8 -25 -8 -45q0 -27 16 -36.5t16 -15.5q0 -14 -15 -14q-28 0 -40 42q-7 24 -5 57q-142 -45 -142 -110q0 -33 84 -33q90 0 214 30q161 39 292 141q152 118 152 247z" />
    <glyph glyph-name="E" unicode="E" horiz-adv-x="724" 
d="M798 562q0 -29 -22 -53q-25 -25 -57 -25q-27 0 -27 16q0 15 16 15q3 0 8 -2t8 -2q18 0 30 17t12 33q0 45 -81 45q-94 0 -186 -35q-102 -39 -145 -103q-20 -31 -20 -56q0 -36 42 -56q72 13 151 13q42 0 42 -17q0 -14 -25 -25q-20 -10 -39 -12q-24 -3 -50 -3q-47 0 -80 13
q-7 -1 -23 -5q-208 -52 -270 -196q-11 -26 -11 -50q0 -66 73 -101q59 -28 142 -28q95 0 191 31.5t171 90t75 111.5q0 25 -16 34q-5 3 -30 9q-16 3 -16 14q0 14 17 14q36 0 57.5 -20t21.5 -51t-21 -65.5t-75 -74.5q-161 -120 -362 -122h-12q-96 -1 -166 35q-83 42 -83 121
q0 30 14 61q69 157 284 215q-36 27 -36 64q0 32 25 71q45 68 153 111q99 39 198 39q122 0 122 -71z" />
    <glyph glyph-name="F" unicode="F" horiz-adv-x="647" 
d="M1157 545q0 -24 -37 -43q-31 -15 -57 -15q-51 0 -178 38q-89 28 -179 57q-48 -188 -94 -288q101 8 127 8q17 0 17 -14q0 -15 -17 -15q-4 0 -142 -10q-64 -125 -154 -206q-116 -104 -245 -104q-79 0 -123 42.5t-44 111.5q0 50 50.5 110.5t98.5 60.5q16 0 16 -15
q0 -9 -10.5 -13t-29.5 -12q-38 -20 -64 -55q-29 -39 -29 -78q0 -55 36 -89t99 -34q192 0 342 244q6 11 18 32q-86 -5 -125 -5q-72 0 -72 36q0 13 15 29t30 16q16 0 16 -15q0 -6 -12 -13t-12 -13q0 -11 37 -11q46 0 138 8q57 128 100 301q-221 65 -343 65q-32 0 -59 -3
q-53 -7 -100 -36q-55 -33 -55 -75q0 -29 23.5 -49t55.5 -20q17 0 17 -14t-17 -14q-45 0 -78.5 27.5t-33.5 67.5q0 53 63 96q56 38 121 46q25 3 56 3q133 0 355 -67q5 21 9.5 32.5t16.5 11.5q17 0 17 -13q0 -4 -9 -42q85 -28 170 -55q118 -36 170 -36t70 32q6 11 16 11
q19 0 19 -14z" />
    <glyph glyph-name="G" unicode="G" horiz-adv-x="727" 
d="M922 556q0 -87 -123 -148q-66 -263 -201 -456q46 -4 97 -18q61 -17 87 -39q6 -5 6 -11q0 -14 -15 -14q-5 0 -11 4q-24 15 -59 27q-49 16 -128 22q-142 -180 -351 -250q-71 -24 -124 -24t-93 18q-50 22 -50 64q0 32 38 73q106 112 367 142q88 10 195 8q127 172 205 437
l-12 -3q-51 -106 -205 -242q-174 -154 -303 -154q-90 0 -90 99q0 53 28 123q27 64 65 114q21 27 67 79q-60 41 -60 93q0 15 5 31q8 22 20 22q18 0 18 -15q0 -4 -5 -16t-5 -21q0 -42 47 -74q176 176 387 216q34 6 65 6q57 0 95 -21q43 -25 43 -72zM772 433q0 8 -2 11
q-1 -6 -4 -18l4 1zM888 555q0 65 -103 65q-29 0 -61 -6q-203 -39 -365 -203q68 -30 152 -30q119 0 213 29q31 52 58 52q14 0 21 -16q85 49 85 109zM706 374q-96 -22 -190 -22q-103 0 -177 37q-154 -163 -154 -298q0 -69 61 -69q14 0 35 5q116 26 245 140q107 95 180 207z
M537 -76q-20 1 -40 1q-59 0 -130 -8q-242 -27 -341 -125q-37 -36 -37 -64q0 -50 105 -50q53 0 122 24q170 57 291 189z" />
    <glyph glyph-name="H" unicode="H" horiz-adv-x="793" 
d="M983 622q0 -4 -4 -9q-28 -27 -81 -83q-108 -118 -206 -295q77 -12 83 -12q45 0 45 23q0 9 -13.5 18.5t-13.5 15.5q0 15 16 15q15 0 28 -17.5t13 -30.5q0 -25 -23.5 -39t-53.5 -14q-31 0 -96 14q-55 -105 -82 -198q27 -31 27 -54q0 -37 -37 -37q-23 0 -29.5 23t-6.5 36
q0 11 4 27q-77 129 -330 241q-108 -191 -108 -278q0 -21 10 -34.5t10 -16.5q0 -18 -19 -18q-33 0 -33 75q0 92 109 285q-28 11 -78 31q-33 13 -33 36q0 31 64 31q37 0 98 -15q115 180 239 282q6 5 12 5q17 0 17 -15q0 -4 -5 -9q-12 -10 -34 -30q-89 -80 -194 -241
q125 -33 377 -92q136 244 299 388q7 6 13 6q16 0 16 -14zM641 214q-126 32 -379 96q-15 -22 -24 -40q214 -94 328 -224q35 95 75 168zM228 317q-59 14 -85 14t-26 -8q0 -5 13 -10q26 -9 77 -29z" />
    <glyph glyph-name="I" unicode="I" horiz-adv-x="624" 
d="M767 657q0 -8 -9 -32q-11 -30 -12 -33q-66 -237 -163 -381q-71 -105 -153 -172q-111 -90 -221 -90q-61 0 -94 38q-30 35 -30 89q0 45 25 132l13 42q0 4 -4 9.5t-4 10.5q0 11 14 11l16 -1q22 -3 52 -3h35q23 1 34 1q164 0 164 -49q0 -23 -19 -23q-15 0 -15 17
q0 26 -156 26q-89 0 -87 0q-2 -27 -21 -88q-17 -56 -17 -89q0 -40 24.5 -67t69.5 -27q99 0 204 88q76 64 141 161q84 124 159 371q5 18 20 36q-65 -12 -135 -72q-24 -21 -47 -55q-27 -39 -27 -62q0 -25 30 -25q12 0 25 7t18 7q16 0 16 -14q0 -11 -25 -20q-21 -8 -36 -8
q-27 0 -45 17.5t-18 40.5q0 57 94 137q88 75 173 75q11 0 11 -5z" />
    <glyph glyph-name="J" unicode="J" horiz-adv-x="687" 
d="M695 593q0 12 -2 16.5t-14 4.5q-54 0 -150 -61q-51 -33 -92 -83q-46 -58 -46 -105q0 -52 39 -52q11 0 29.5 5.5t24.5 5.5q16 0 16 -16q0 -23 -69 -23q-72 0 -72 76q0 58 48 123q45 62 105 94q122 65 175 65q41 0 41 -45q0 -52 -20 -130q-66 -264 -201 -456q46 -4 97 -18
q61 -17 87 -39q6 -5 6 -11q0 -14 -15 -14q-5 0 -11 4q-24 15 -60 27q-48 16 -127 22q-143 -180 -351 -250q-71 -24 -124 -24t-93 18q-50 22 -50 64q0 32 38 73q106 112 367 142q88 10 194 8q129 174 206 437q24 83 24 142zM446 -16q-20 1 -41 1q-58 0 -129 -8
q-242 -27 -341 -125q-37 -36 -37 -64q0 -50 105 -50q53 0 122 24q170 57 291 189q9 11 30 33z" />
    <glyph glyph-name="K" unicode="K" horiz-adv-x="783" 
d="M441 289q0 -60 72 -169q76 -113 129 -113q44 0 89 46q32 33 94 125q5 8 12 8q13 0 13 -14q0 -43 -82 -122.5t-130 -79.5q-59 0 -130 99q-64 88 -90 181l-2 1q-133 -199 -133 -264q0 -21 12.5 -29t12.5 -14q0 -15 -15 -15q-20 0 -32 23q-10 18 -10 37q0 71 146 294
q-9 23 -9 35q0 10 6 16q25 22 75 55q36 51 59 80q79 103 79 146q0 9 -3 15q-23 44 -93 44q-81 0 -178 -46q-67 -32 -136 -81q-81 -56 -114 -102q-55 -75 -55 -121q0 -53 78 -53q31 0 64.5 15t32.5 15q15 0 15 -14q0 -6 -6 -11q-40 -33 -109 -33q-45 0 -76 19q-34 22 -34 60
q0 52 62 138q36 49 120 108q74 53 144 85q97 45 192 45t123 -56q4 -9 4 -21q0 -62 -81 -170q-3 -3 -8 -10l3 -3q115 66 238 122q175 79 251 79q31 0 49.5 -20.5t18.5 -47.5q0 -30 -20 -30q-18 0 -18 14q0 3 3 9.5t3 10.5q0 35 -36 35q-84 0 -281 -94q-153 -74 -264 -146
q-15 -20 -55 -81z" />
    <glyph glyph-name="L" unicode="L" horiz-adv-x="669" 
d="M954 -51q0 -5 -5 -10q-39 -37 -114 -41h-18q-106 0 -252 57l-238 104q-116 -121 -231 -121q-56 0 -94 26q-41 28 -41 75q0 51 48 81q42 26 103 26q79 0 208 -49q53 63 102 147q-78 8 -123 44q-50 39 -50 105q0 51 29.5 96.5t80.5 69.5q42 20 69 20q16 0 16 -14
q0 -11 -14 -15q-18 -4 -55 -16q-43 -20 -69.5 -59.5t-26.5 -82.5q0 -105 161 -119q99 186 171 287q102 144 197 144q45 0 69 -25t24 -64q0 -58 -43 -131q-36 -62 -90 -112q-137 -129 -306 -129q-61 -100 -111 -158q112 -51 225 -103q137 -55 241 -55q68 0 108 31q6 5 12 5
q17 0 17 -14zM865 619q0 56 -59 56q-74 0 -167 -130q-35 -50 -158 -271q147 10 263 117q41 38 80 108q41 75 41 120zM300 71q-119 47 -189 47q-46 0 -79 -19q-37 -21 -37 -60q0 -35 33 -54q29 -18 71 -18q97 0 201 104z" />
    <glyph glyph-name="M" unicode="M" horiz-adv-x="966" 
d="M1098 554q0 -17 -15 -39q-156 -229 -207 -483q-7 -35 -7 -58q0 -35 18.5 -49.5t18.5 -21.5q0 -13 -13 -13q-14 0 -30 12.5t-21.5 26.5t-5.5 40t7 68q40 246 212 493q5 8 5 15q0 13 -19 13q-27 0 -61 -30q-74 -64 -187 -208q-73 -95 -131 -184q-18 -30 -54 -88
q-6 -10 -16 -10q-17 0 -17 15q60 181 131 397q7 23 7 36q0 29 -23 29q-17 0 -44 -18q-19 -13 -60 -51q-126 -121 -192 -234q-49 -84 -142 -254q-6 -3 -15 -3q-19 0 -19 11q0 21 120 246l104 194q71 143 71 197q0 56 -71 56q-86 0 -204 -59q-85 -42 -155 -117
q-81 -86 -81 -159q0 -68 73 -68q19 0 39 8t23 8q17 0 17 -16q0 -12 -33 -21q-26 -7 -45 -7q-51 0 -77.5 27t-26.5 71q0 59 37 114q35 50 99 103q61 51 122 82q112 57 215 57q101 0 101 -74q0 -69 -106 -273l5 -2q169 214 250 214q50 0 50 -63q0 -26 -31 -121l-54 -163l5 -2
q150 224 292 349q50 44 95 44q46 0 46 -37z" />
    <glyph glyph-name="N" unicode="N" horiz-adv-x="881" 
d="M1001 569q0 -90 -106 -275q-97 -169 -130 -272q-14 -42 -14 -65q0 -20 12 -27t12 -14q0 -15 -17 -15q-19 0 -30 24q-8 18 -8 40q0 28 11 65q32 102 133 278q98 172 98 255q0 64 -56 63h-2q-167 -2 -431 -365q-18 -24 -56 -90l-79 -138q-11 -21 -36 -61q-5 -9 -16 -9
q-16 0 -16 15q0 2 1 5q21 45 57 111q56 106 59 111q123 238 158 417q2 11 2 22q0 61 -79 61q-92 0 -198 -55q-59 -31 -115 -78q-62 -50 -93.5 -98.5t-31.5 -101.5q0 -67 71 -67q20 0 42.5 10t28.5 10q13 0 13 -11q0 -17 -33 -29q-27 -9 -50 -9q-50 0 -78.5 26t-28.5 70
q0 58 39 118q32 47 100 102q60 48 121 82q46 25 107 43q66 20 114 20q106 0 106 -88q0 -91 -92 -308l4 -2q92 113 182 193q140 122 232 122q93 0 93 -85z" />
    <glyph glyph-name="O" unicode="O" horiz-adv-x="816" 
d="M871 389q0 -181 -168.5 -325t-377.5 -144q-33 0 -63 4q-86 10 -135 82q-43 63 -43 144q0 83 42 169q109 222 345 312l-1 4q-202 -8 -326 -85q-74 -45 -74 -121q0 -14 -17 -14q-16 0 -16 14q0 90 87 143q73 44 185 69q101 22 200 22q31 0 60 -2q62 15 119 15q32 0 66 -11
q45 -13 45 -37q0 -13 -17 -13q-9 0 -16 11q-14 22 -82 22h-7q-5 -1 -7 -1l-1 -4q97 -28 149.5 -96t52.5 -158zM840 389q0 104 -72.5 168t-193.5 75q-143 -32 -250.5 -117.5t-165.5 -206.5q-41 -84 -41 -161q0 -71 34 -123q40 -62 115 -72q25 -3 58 -3q194 0 355 136t161 304
z" />
    <glyph glyph-name="P" unicode="P" horiz-adv-x="766" 
d="M865 476q0 -36 -15 -73q-47 -112 -207 -168q-128 -44 -290 -44q-72 0 -98 4q-14 2 -14 14q0 15 19 15q-6 0 29 -2t70 -2q151 0 268 39q149 50 192 153q13 32 13 63q0 89 -101 135q-81 36 -193 36q-137 0 -251 -27q-153 -37 -218 -114q-36 -43 -36 -85q0 -5 2.5 -14
t2.5 -14q0 -14 -17 -14q-21 0 -21 37q0 49 37 97q68 89 230 131q122 31 270 31q127 0 217 -43q111 -54 111 -155zM492 607q0 -2 -1 -5q-21 -20 -50 -49q-99 -97 -185 -235q-88 -141 -126 -268q-5 -16 -5 -31q0 -34 18.5 -47.5t18.5 -17.5q0 -16 -17 -16q-24 0 -40 35
q-12 28 -12 53q0 16 5 32q69 233 280 473q24 27 46 47q14 10 36 33q7 10 16 10q16 0 16 -14z" />
    <glyph glyph-name="Q" unicode="Q" horiz-adv-x="816" 
d="M871 389q0 -181 -168.5 -325t-377.5 -144q-33 0 -63 4q-86 10 -135 82q-43 63 -43 144q0 83 42 169q109 222 345 312l-1 4q-202 -8 -326 -85q-74 -45 -74 -121q0 -14 -17 -14q-16 0 -16 14q0 90 87 143q73 44 185 69q101 22 200 22q31 0 60 -2q62 15 119 15q32 0 66 -11
q45 -13 45 -37q0 -13 -17 -13q-9 0 -16 11q-14 22 -82 22h-7q-5 -1 -7 -1l-1 -4q97 -28 149.5 -96t52.5 -158zM765 -186q0 -11 -12 -29q-36 -57 -128 -57q-74 0 -178 41q-89 38 -177 76q-101 41 -167 41q-62 0 -62 -44q0 -22 29.5 -41t29.5 -24q0 -15 -16 -15q-4 0 -8 2
q-73 34 -73 77q0 25 24.5 47t54.5 25q7 1 18 1q82 0 260.5 -78t263.5 -78q70 0 99 38q8 11 8 18q0 14 17 14t17 -14zM840 389q0 104 -72.5 168t-193.5 75q-143 -32 -250.5 -117.5t-165.5 -206.5q-41 -84 -41 -161q0 -71 34 -123q40 -62 115 -72q25 -3 58 -3q194 0 355 136
t161 304z" />
    <glyph glyph-name="R" unicode="R" horiz-adv-x="766" 
d="M865 475q0 -36 -15 -72q-48 -112 -205 -168q-124 -44 -286 -45q14 -15 42 -46q132 -156 196 -156q17 0 36 10t24 10q16 0 16 -15q0 -13 -32 -24q-28 -10 -45 -10q-23 0 -49 11q-56 24 -172 158q-19 21 -58 63q-48 2 -61 4q-25 4 -58 18q-73 -143 -73 -194
q0 -34 18.5 -47.5t18.5 -17.5q0 -16 -17 -16q-24 0 -40 35q-12 28 -12 52q0 61 75 205q-47 34 -47 73q0 41 44 41q27 0 58 -16q79 124 155 203q17 17 29 17q9 0 9 -10q0 -8 -12 -24q-18 -20 -52 -62q-51 -66 -102 -147q32 -30 83 -85h30q150 0 265 39q147 50 191 153
q13 31 13 63q0 89 -101 135q-81 36 -193 36q-137 0 -251 -27q-153 -37 -218 -114q-36 -43 -36 -85q0 -5 2.5 -14t2.5 -14q0 -14 -17 -14q-21 0 -21 37q0 49 37 97q68 89 230 131q122 31 270 31q127 0 217 -43q111 -54 111 -156zM292 222q-24 26 -55 62q-7 -12 -25 -46
q26 -12 80 -16zM213 309q-18 14 -37 14q-22 0 -22 -18q0 -19 30 -49q9 18 29 53z" />
    <glyph glyph-name="S" unicode="S" horiz-adv-x="612" 
d="M677 534q0 -20 -11 -32q-5 -6 -29 -23q-5 -4 -11 -4q-17 0 -17 15q0 7 17.5 17t17.5 27q0 52 -144 52q-103 0 -212 -37q-144 -49 -144 -133q0 -49 110 -49q35 0 104.5 4t104.5 4q185 0 185 -103q0 -21 -9 -45q-42 -120 -229 -210q-172 -82 -329 -82q-171 0 -171 122
q0 57 43 106.5t106 69.5q45 14 73 14q16 0 16 -15q0 -11 -13 -14q-22 -3 -66 -12q-54 -17 -91 -58.5t-37 -89.5q0 -97 141 -97t307 80q180 86 218 193q7 19 7 35q0 78 -153 78q-35 0 -105 -4.5t-105 -4.5q-141 0 -141 75q0 97 145 155q117 47 245 47q177 0 177 -81z" />
    <glyph glyph-name="T" unicode="T" horiz-adv-x="575" 
d="M1064 579q0 -53 -112 -53q-89 0 -275 44q-164 38 -213 47q-123 23 -219 23q-25 0 -47 -1q-51 -3 -101 -20q-61 -21 -81 -52q-7 -10 -7 -19q0 -25 43 -50q34 -20 136 -20q82 0 159 20q8 2 49 17t42 15q18 0 18 -17q0 -7 -10 -12q-32 -16 -90 -31q-81 -21 -167 -21
q-116 0 -157 24q-56 33 -56 73q0 52 83 89q66 29 136 33q22 1 47 1q96 0 219 -23q50 -9 215 -48q186 -44 275 -44q72 0 72 28q0 10 -13.5 18.5t-13.5 14.5q0 16 18 16q15 0 32.5 -18.5t17.5 -33.5zM591 479q0 -34 -44 -121l-66 -122q-32 -57 -63 -113q-36 -67 -56 -116
q-6 -16 -14 -44q-3 -13 -17 -13q-16 0 -16 15q0 14 15 51q19 46 120 232l64 116q45 88 45 115q0 3 -2 8t-2 8q0 13 17 13q19 0 19 -29z" />
    <glyph glyph-name="U" unicode="U" horiz-adv-x="769" 
d="M881 522q0 -27 -44 -99q-134 -222 -162 -385q-3 -16 -3 -25q0 -28 25 -28q7 0 19 3.5t18 3.5q9 0 9 -8q0 -12 -23 -20q-19 -5 -36 -5q-45 0 -45 54q0 72 54 203l-4 2q-176 -226 -297 -226q-63 0 -63 69q0 73 60 193q47 88 95 176q72 135 72 166q0 57 -89 57
q-106 0 -221 -63q-84 -46 -145 -108q-77 -79 -77 -148q0 -60 91 -60q46 0 85 17q5 2 9 2q18 0 18 -15t-51 -25q-39 -8 -65 -8q-117 0 -117 93q0 55 34 105q60 91 208 172q115 63 235 63q49 0 81 -17q39 -21 39 -61q0 -32 -74 -174q-48 -91 -97 -183q-60 -121 -60 -175
q0 -45 40 -45q153 0 407 433q45 77 67 77q7 0 7 -11z" />
    <glyph glyph-name="V" unicode="V" horiz-adv-x="692" 
d="M1158 641q0 -21 -17 -21q-18 0 -18 21q0 14 -22 14q-46 0 -126 -63q-111 -88 -239 -237q-110 -128 -201 -264q-27 -39 -46 -72q-8 -15 -24 -44q-9 -13 -30 -13q-19 0 -19 11q0 37 47 200q56 193 62 222q17 78 26 134q8 47 8 65q0 64 -85 64q-101 0 -236 -77
q-130 -73 -182 -153q-29 -46 -29 -93q0 -61 91 -61q46 0 82 15q5 2 9 2q18 0 18 -15q0 -16 -48 -25q-36 -7 -62 -7q-128 0 -128 92q0 77 85 161q66 65 162 118q123 68 238 68q50 0 82 -20q35 -23 35 -65q0 -34 -26 -165q-33 -165 -76 -330l4 -2q104 148 239 298
q124 137 221 214q84 66 149 66q56 0 56 -38z" />
    <glyph glyph-name="W" unicode="W" horiz-adv-x="1033" 
d="M1132 447q0 -82 -46 -185q-49 -112 -125 -183q-88 -83 -188 -83q-145 0 -136 206q-234 -268 -346 -268q-49 0 -49 59q0 46 38 134q28 69 64 129q180 307 180 345q0 51 -70 51q-78 0 -188 -52t-186 -124q-84 -80 -84 -150q0 -52 87 -52q37 0 86 17q5 2 8 2q16 0 16 -14
q0 -16 -51 -26q-38 -8 -66 -8q-118 0 -118 80q0 52 50 119q67 90 220 171q125 66 229 66q100 0 100 -78v-2q-1 -58 -183 -358q-30 -49 -61 -121q-37 -86 -37 -125q0 -32 26 -32q56 0 186 126q88 83 158 169q14 64 53 133q51 91 101 91q26 0 26 -16q0 -3 -1 -6
q-48 -94 -147 -214q-9 -50 -9 -89q0 -133 107 -133q94 0 178 87q62 64 103.5 156.5t41.5 173.5q0 71 -47 100q-8 5 -8 12q0 15 16 15q4 0 8 -2q64 -30 64 -121z" />
    <glyph glyph-name="X" unicode="X" horiz-adv-x="673" 
d="M801 624q0 -5 -4 -9q-42 -44 -169 -138q-84 -61 -250 -186q7 -32 33 -159q5 -29 19 -86q23 -64 70 -64q66 0 118 92q6 12 17 36q5 11 16 11q18 0 18 -15q0 -43 -63 -100t-114 -57q-72 0 -98 89q-17 58 -47 230q-199 -155 -321 -295q-21 -25 -90 -117q-6 -7 -14 -7
q-18 0 -18 15q0 3 3 7q137 201 432 429q-16 84 -29 133q-27 96 -57 119q-26 20 -50 20q-57 0 -86 -75q-5 -19 -14 -44q-4 -4 -12 -4q-19 0 -18 14l1 2q4 50 34 89q35 46 90 46q36 0 75 -25q46 -30 98 -251q2 1 201 146q107 78 157 122q15 13 44 40q6 6 13 6q15 0 15 -14z
" />
    <glyph glyph-name="Y" unicode="Y" horiz-adv-x="827" 
d="M888 -126q0 -15 -16 -15q-10 0 -33 5q-28 7 -35 8q-67 9 -129 9q-44 0 -87 -4q-190 -225 -385 -225q-42 0 -71 12q-38 16 -38 49q0 48 111 104q141 71 364 90q38 47 65 96q56 104 139 306l-4 1q-221 -309 -374 -309q-91 0 -91 90q0 79 58 174q48 75 136 228q38 77 38 104
q0 40 -69 40q-78 0 -203 -60q-64 -31 -128 -98q-71 -75 -71 -130q0 -31 29 -48q24 -14 62 -14q52 0 92 21q6 3 11 3q17 0 17 -15q0 -17 -51 -28q-39 -9 -66 -9q-52 0 -86 21q-39 24 -39 67q0 65 74 147q66 73 140 108q126 60 221 60q98 0 98 -58q0 -44 -38 -122
q-24 -49 -66 -117l-72 -114q-62 -101 -62 -161t70 -60q83 0 196 114q98 100 216 288q7 13 24 37q12 15 22 15q15 0 15 -17q0 -5 -3 -12q-22 -59 -88 -215q-55 -129 -74 -169q-45 -95 -92 -161q24 1 47 1q150 0 213 -22q13 -4 13 -15zM543 -128q-186 -13 -321 -80
q-92 -46 -92 -81q0 -34 59 -34q47 0 113 21q117 37 241 174z" />
    <glyph glyph-name="Z" unicode="Z" horiz-adv-x="701" 
d="M1015 555q0 -18 -27 -29q-22 -9 -44 -9q-26 0 -64 8q-79 -46 -262 -211q-214 -193 -348 -280q107 -37 213 -74q124 -39 224 -39q108 0 162 35q19 12 27 29q5 12 15 12q18 0 18 -16q0 -22 -40 -48q-64 -41 -185 -41q-108 0 -239 42q-113 40 -227 79q-113 -65 -193 -65
q-38 0 -64 14q-30 17 -30 48q0 33 33 55q30 20 69 20q44 0 180 -40q129 79 360 288q150 135 249 200q-142 36 -153 39q-89 19 -157 19q-52 0 -94 -10t-78 -43q-41 -37 -41 -77q0 -5 2.5 -15t2.5 -14q0 -14 -16 -14q-22 0 -22 39q0 21 6 39q12 37 53 70.5t84 43.5q38 9 84 9
q74 0 179 -26q163 -42 175 -44q58 33 92 33q56 0 56 -27zM199 25q-125 30 -147 30q-25 0 -45 -12q-23 -14 -23 -35q0 -31 60 -31q67 0 155 48z" />
    <glyph glyph-name="grave" unicode="`" horiz-adv-x="366" 
d="M88 476q14 9 36 -4q12 -8 99 -48q12 -7 35 -19q5 -2 12 -8q6 -9 -11 -9q-19 0 -64 17q-35 12 -96 37q-11 6 -16 13q-8 13 5 21z" />
    <glyph glyph-name="a" unicode="a" horiz-adv-x="349" 
d="M416 169q0 -16 -79 -119q-46 -61 -88 -61q-7 0 -14 1q-35 6 -35 41q0 14 9 56l-4 3q-27 -31 -67 -62q-53 -42 -82 -42q-58 0 -58 60t40.5 131t89.5 113q55 47 109 47q44 0 68 -25q20 -22 20 -55q0 -15 -7 -35q-8 -23 -19 -23q-7 0 -13 7t-4 14q12 32 12 45q0 48 -55 48
q-44 0 -90 -43q-48 -47 -82 -110.5t-34 -109.5q0 -34 29 -34t86 56q42 41 70 79q7 12 23 35q3 4 12 4t17 -5t6 -12q-43 -89 -43 -130q0 -26 16 -30q21 -4 62 50q26 39 77 113q6 8 14 8q14 0 14 -15z" />
    <glyph glyph-name="b" unicode="b" horiz-adv-x="369" 
d="M381 202q17 0 17 -15q0 -11 -18.5 -13t-46.5 -4q-14 -51 -58 -103q-46 -55 -104 -85q-51 -27 -104 -27q-79 0 -79 49q0 25 42 71q30 115 104 271q83 178 153 249q6 6 14 6q22 0 22 -14q0 -5 -3 -9q-70 -81 -139 -209q-67 -123 -97 -224l5 -2q51 74 111 133q53 52 91 52
q53 0 53 -92q0 -17 -2 -35q8 1 39 1zM313 251q0 49 -23 49q-22 0 -68 -45q-52 -50 -99 -119l3 -3q93 47 179 63q8 28 8 55zM298 165q-134 -32 -214 -89q-55 -38 -55 -66q0 -27 47 -27q34 0 70 17q49 24 93 74q40 45 59 91z" />
    <glyph glyph-name="c" unicode="c" horiz-adv-x="281" 
d="M346 162q-53 -84 -94 -124q-62 -58 -130 -58q-49 0 -78 34q-26 30 -26 75q0 46 29 97q33 59 78 101q60 57 119 57q55 0 55 -56q0 -20 -14 -53q-17 -39 -36 -39q-16 0 -16 14q0 -2 16 25.5t16 49.5q0 29 -26 29q-45 0 -97 -54q-39 -40 -66 -88q-21 -39 -21 -77
q0 -86 69 -86q56 0 105 49q37 37 93 120q5 7 12 7q15 0 15 -15q0 -4 -3 -8z" />
    <glyph glyph-name="d" unicode="d" horiz-adv-x="350" 
d="M501 578q0 -31 -71 -137q-47 -67 -94 -135q-29 -46 -62 -122q-42 -95 -42 -139q0 -27 17 -31q21 -4 62 50q26 39 78 113q5 8 14 8q13 0 13 -15q0 -16 -79 -119q-46 -61 -87 -61q-7 0 -15 1q-35 6 -35 59q0 20 5 40l-5 1q-32 -40 -54 -63q-43 -44 -66 -50q-12 -3 -22 -3
q-59 0 -59 69q0 81 71 177q77 106 161 106q36 0 61 -30q20 50 62 133q57 112 91 148q14 14 38 14q18 0 18 -14zM273 271q-20 27 -43 27q-71 0 -136 -97q-58 -87 -58 -157q0 -38 26 -38q33 0 98 80q52 64 75 110z" />
    <glyph glyph-name="e" unicode="e" horiz-adv-x="269" 
d="M333 162q-53 -84 -95 -124q-61 -58 -129 -58q-93 0 -93 102q0 70 57 153q62 93 136 93q25 0 41 -14.5t16 -36.5q0 -64 -58.5 -117t-130.5 -53q-12 0 -24 2q-3 -16 -3 -31q0 -69 61 -69q56 0 105 49q37 37 93 120q4 7 12 7q14 0 14 -15q0 -4 -2 -8zM232 273q0 25 -24 25
q-46 0 -93 -62q-36 -46 -53 -96q10 -2 22 -2q56 0 102 43t46 92z" />
    <glyph glyph-name="f" unicode="f" horiz-adv-x="268" 
d="M481 520q-15 0 -15 13q0 1 6 13t6 23q0 25 -32 25q-11 0 -24 -4q-107 -36 -217 -277q38 4 138 15q16 2 16 -13t-13 -16q-57 -5 -156 -18q-84 -210 -113 -356q-2 -12 -7 -36q-3 -13 -16 -13q-17 0 -17 16q0 3 7 38q41 208 108 344q-71 -12 -71 -32q0 -6 -10.5 -11
t-19.5 -5q-15 0 -15 15q0 45 128 66q54 115 95 175q73 108 151 135q18 6 36 6q67 0 67 -52q0 -20 -10 -35.5t-22 -15.5z" />
    <glyph glyph-name="g" unicode="g" horiz-adv-x="386" 
d="M450 161q-76 -125 -153 -176q-42 -119 -127.5 -218t-173.5 -134q-39 -16 -72 -16q-64 0 -73 55q-9 53 104 137q49 36 159 100q55 32 155 95q20 60 18 144q-108 -168 -205 -168q-75 0 -75 83q0 56 27 112q32 68 83 115q58 54 115 54q56 0 56 -56q0 -20 -15 -53
q-17 -39 -35 -39q-17 0 -17 14q0 -2 16 25.5t16 49.5q0 29 -26 29q-43 0 -90 -47q-41 -40 -69 -98q-25 -53 -25 -103q0 -57 45 -57q48 0 124 88q69 80 72 112q2 17 18 17q12 0 15 -15q7 -25 7 -62q0 -49 -11 -114q46 38 114 142q5 8 12 8q14 0 14 -14q0 -5 -3 -10zM247 -47
q-37 -24 -112 -69q-261 -148 -250 -210q5 -32 39 -32q23 0 55 14q84 38 155 117q64 70 102 156q3 8 11 24z" />
    <glyph glyph-name="h" unicode="h" horiz-adv-x="370" 
d="M430 155q-23 -40 -59 -85q-38 -48 -64.5 -67.5t-59.5 -19.5q-63 0 -63 56q0 87 128 237q15 19 15 30q0 8 -8 10q-25 5 -88 -43q-88 -68 -160 -172q-11 -16 -23.5 -56.5t-18.5 -47.5q-10 -12 -22 -12q-21 0 -21 23q0 5 1 9q45 165 117 315q52 108 82 154q63 94 131 119
q14 6 30 6q51 0 49 -45q-2 -40 -57 -108q-43 -52 -92 -93q-43 -35 -86 -69q-45 -38 -67 -66q-4 -5 -8 -5q-9 0 -9 14q0 9 7 16q37 37 80 73q62 52 66 55q104 93 130 170q4 10 4 17q0 16 -16 16q-8 0 -18 -4q-80 -30 -166 -196q-70 -135 -92 -235q56 76 143 144q66 51 103 51
q44 0 44 -37q0 -23 -23 -50q-117 -140 -117 -218q0 -32 32 -32q17 0 31 12q47 39 124 156q5 7 14 7q13 0 13 -12q0 -8 -6 -17z" />
    <glyph glyph-name="i" unicode="i" horiz-adv-x="208" 
d="M258 455q0 -25 -20 -41t-45 -16q-17 0 -17 11q0 4 3 9q9 18 19 21q21 8 23 9q12 7 20 7h9h8zM274 172q0 -20 -50 -83q-46 -56 -70 -76q-31 -24 -73 -24q-74 0 -74 72q0 36 15 78q14 36 46 91q41 68 61 68q22 0 22 -14q0 -4 -4 -10q-107 -121 -107 -214q0 -46 44 -46
q43 0 94 63q35 50 69 100q6 7 15 7q12 0 12 -12z" />
    <glyph glyph-name="j" unicode="j" horiz-adv-x="201" 
d="M219 455q0 -24 -18.5 -40.5t-46.5 -16.5q-17 0 -17 11q0 4 3 9q9 18 20 22l23 8q13 7 20 7h7.5h8.5zM127 230q10 38 28 38q12 0 14 -15q3 -30 -16 -109l-26 -109q47 38 114 142q5 8 13 8q14 0 14 -14q0 -5 -4 -10q-76 -125 -153 -176q-42 -119 -127 -218t-174 -134
q-39 -16 -71 -16q-64 0 -74 55q-8 53 104 137q49 36 160 100q54 32 154 95q25 50 44 226zM62 -47q-38 -24 -113 -69q-261 -148 -250 -210q5 -32 39 -32q23 0 55 14q85 38 156 117q63 70 101 156z" />
    <glyph glyph-name="k" unicode="k" horiz-adv-x="370" 
d="M437 169q0 -3 -3 -9q-102 -168 -184 -168q-54 0 -95 37q-37 33 -50 81q-17 -38 -57 -112q-6 -9 -16 -9q-16 0 -16 14q0 3 64 145q-9 28 -9 50q0 26 17 26q4 0 21 -14q8 17 27 60q42 101 133 306q9 19 29 19q15 0 15 -13q0 -26 -167 -365l5 -2q72 98 153 135q30 14 56 14
q49 0 49 -36q0 -21 -20 -47q-46 -58 -140 -89q-27 -9 -88 -19q-24 -4 -32 -26q11 -46 40 -82q36 -45 81 -45q21 0 40 11q38 23 71 71q25 38 51 76q5 6 13 6q11 1 12 -15zM345 274q24 24 24 46q0 14 -15 14q-17 0 -49 -19q-66 -38 -118 -108q106 16 158 67z" />
    <glyph glyph-name="l" unicode="l" horiz-adv-x="240" 
d="M396 543q-1 -40 -57 -108q-43 -52 -92 -93q-43 -35 -86 -69q-45 -38 -67 -66q-4 -5 -8 -5q-9 0 -9 14q0 9 7 16q37 37 80 73q62 52 66 55q104 93 131 170q3 10 3 17q0 16 -16 16q-7 0 -18 -4q-35 -14 -71 -53q-60 -66 -121 -199q-64 -141 -67 -229q-1 -64 43 -64
q45 0 98 65q14 16 67 98q5 7 14 7q13 0 13 -12q0 -8 -6 -17q-95 -166 -191 -166q-73 0 -70 90q2 92 69 239q63 137 127 208q35 39 82 56q15 6 30 6q51 0 49 -45z" />
    <glyph glyph-name="m" unicode="m" horiz-adv-x="649" 
d="M718 170q0 -18 -74 -105q-30 -35 -57 -51q-33 -18 -66 -14q-49 6 -49 45q0 42 59 125q38 50 75 100q4 5 4 10q0 8 -12 8q-6 0 -13 -3q-55 -23 -119 -76q-49 -42 -82 -80q-17 -53 -19 -59q-18 -38 -42 -38q-20 0 -20 20q0 40 53 89q23 74 23 91q0 33 -27 33q-12 0 -25 -9
q-71 -50 -155 -180q-19 -33 -59 -96q-6 -8 -15 -8q-17 0 -17 11q0 7 3 14q37 73 73 146q52 105 52 138q0 17 -13 17q-26 0 -66 -46q-27 -31 -66 -91q-42 -64 -47 -70q-7 -10 -17 -10q-19 0 -10 17q39 73 111 167q48 62 98 62q46 0 46 -41q0 -33 -29 -91l4 -2q34 38 92 84
q24 19 49 19q49 0 49 -59q0 -22 -5 -41l5 -2q35 41 99 81q55 35 90 45q25 7 36 7q23 0 23 -24q0 -18 -61 -97q-68 -88 -82 -128q-5 -14 -5 -25q0 -26 25 -26q18 0 41 15q20 14 44 41q42 48 71 92q6 9 16 9q11 0 11 -14z" />
    <glyph glyph-name="n" unicode="n" horiz-adv-x="461" 
d="M528 170q0 -22 -71 -105q-27 -32 -60 -50.5t-67 -14.5q-48 6 -48 45q0 42 59 125q37 50 75 100q4 5 4 10q0 8 -12 8q-7 0 -14 -3q-59 -25 -128 -85q-64 -57 -99 -109q-22 -33 -40 -63q-5 -12 -18 -33q-6 -8 -15 -8q-17 0 -17 11q0 7 3 14l64 132q42 90 42 123
q0 17 -13 17q-20 0 -59 -53q-28 -45 -98 -141q-7 -9 -16 -9q-6 0 -10.5 6t-1.5 11q72 114 102 152q26 34 35 42q23 20 51 20q48 0 48 -50q0 -42 -23 -80l3 -3q36 42 107 89q64 43 98 52q25 7 36 7q23 0 23 -24q0 -18 -62 -97q-68 -88 -81 -128q-5 -14 -5 -25q0 -26 25 -26
q18 0 40 15q29 19 48 41q27 31 68 92q6 9 16 9q11 0 11 -14z" />
    <glyph glyph-name="o" unicode="o" horiz-adv-x="342" 
d="M409 171q0 -4 -2 -7q-25 -44 -48 -71q-56 -68 -150 -72q-56 -54 -115 -54q-37 0 -57 30q-17 24 -17 57q0 53 25 94q-1 6 -1 13q0 29 8 56q14 53 59.5 90t105.5 37q47 0 73.5 -25t26.5 -67q0 -51 -21 -99q-13 -29 -50 -86q2 -4 9 -4q58 0 125 111q6 9 14 10q13 1 15 -13z
M284 248q0 70 -67 70q-47 0 -89 -36l3 -4q3 1 6 1q16 0 16 -14q0 -4 -4 -9q-25 -35 -70 -111q8 -38 37.5 -62t73.5 -24h10q84 101 84 189zM174 31q-75 7 -112 67q-7 -29 -7 -48q0 -55 45 -55q31 0 74 36z" />
    <glyph glyph-name="p" unicode="p" horiz-adv-x="458" 
d="M481 175q-35 -5 -87 -14q-16 -72 -91 -136q-78 -67 -159 -67q-14 0 -26 3q-34 -74 -46 -96q-26 -51 -56 -93q-86 -123 -150 -123q-35 0 -35 37q0 49 67 166q47 81 112 165q70 90 122 144q8 50 4 115q-1 7 -6 20.5t-5 17.5q0 6 11.5 10t19.5 4q22 0 22 -50q0 -6 -7 -78
q110 106 158 106q38 0 57 -42q14 -31 13 -70q28 5 67 5q29 0 29 -15q0 -7 -14 -9zM369 220q0 59 -35 59q-45 0 -171 -131q-4 -30 -7 -49q91 61 210 88q3 17 3 33zM359 154q-127 -33 -215 -101q-7 -30 -16 -63q11 -4 24 -4q55 0 115 47q51 40 78 90q2 3 14 31zM120 92l-5 2
q-119 -134 -190 -260q-60 -107 -60 -139q0 -12 9 -13q23 -2 71 52q33 37 57 72q65 99 85 175q-5 10 -5 23q0 36 32 65z" />
    <glyph glyph-name="q" unicode="q" horiz-adv-x="327" 
d="M299 199q-7 0 -13 7t-4 14q12 32 12 45q0 48 -55 48q-44 0 -90 -43q-48 -47 -82 -110.5t-34 -109.5q0 -34 29 -34q28 0 84 52q44 40 74 78l14 30q11 19 27 19q20 0 20 -19q0 -17 -23 -51q-35 -49 -72 -153q-38 -108 -38 -162q0 -78 63 -78q5 0 16 2.5t16 2.5q15 0 15 -14
q0 -20 -51 -20q-47 0 -72 35q-20 30 -20 73q0 64 47 193q12 33 23 60q-83 -78 -129 -78q-58 0 -58 60t40.5 131t89.5 113q55 47 109 47q44 0 68 -25q20 -22 20 -55q0 -15 -7 -35q-8 -23 -19 -23z" />
    <glyph glyph-name="r" unicode="r" horiz-adv-x="281" 
d="M342 155q-22 -38 -59.5 -84.5t-64.5 -67.5q-32 -27 -66 -27q-44 0 -46 47q-1 32 23 82t61 99q-19 0 -43 9t-32 23q-25 -43 -100 -148q-6 -7 -14 -7q-15 0 -15 13q0 4 3 8q78 109 116 190q5 13 17 38q9 18 27 18q8 0 16 -7t8 -14q0 -9 -13.5 -36t-13.5 -39q0 -15 37 -15
q22 0 45 11t25 11q15 0 15 -14q0 -6 -6 -12q-60 -58 -104 -144q-18 -37 -19 -60q0 -28 19 -28q17 0 39 20q51 45 124 156q5 7 14 7q13 0 13 -12q0 -8 -6 -17z" />
    <glyph glyph-name="s" unicode="s" horiz-adv-x="283" 
d="M134 31q-4 1 -71 17q-26 7 -44 7q-30 0 -29 -16q0 -12 21 -24t49 -11q31 1 74 27zM201 95q0 -19 -7 -37q56 -4 130 119q3 7 12 7q15 0 15 -13q0 -5 -3 -10q-42 -75 -82 -104q-35 -27 -87 -29q-52 -49 -121 -48q-48 1 -74.5 22t-22.5 45q5 36 59 36q21 0 48 -6
q22 -6 44 -13q28 -8 49 -7q9 15 9 35q0 38 -18 73q-28 52 -33 70q-22 -33 -105 -148q-4 -5 -12 -5q-15 0 -15 13q0 3 5 11q42 58 120 175q1 36 16 62q21 35 45 35q19 0 19 -23q0 -16 -12 -38q-5 -10 -37 -44q-1 -33 28.5 -84.5t29.5 -93.5z" />
    <glyph glyph-name="t" unicode="t" horiz-adv-x="200" 
d="M268 346q0 -13 -18 -16q-31 -4 -92 -12q-98 -214 -98 -287q0 -46 17 -46q12 0 23.5 9t16.5 9q18 0 18 -14q0 -13 -23 -24t-39 -11q-46 0 -46 72q0 82 88 285q-8 -1 -40 -6q-25 -5 -38 -5q-14 0 -14 12q0 16 18 20q35 7 90 13q66 138 92 162q7 6 13 6q17 0 17 -14
q0 -3 -3 -8q-20 -26 -76 -140q44 6 77 6q17 0 17 -11z" />
    <glyph glyph-name="u" unicode="u" horiz-adv-x="356" 
d="M412 171q0 -5 -3 -9l-62 -94q-39 -56 -73 -85q-18 -15 -45 -15q-45 0 -45 45t52 137l-5 1q-35 -43 -58 -68q-45 -49 -81 -72q-32 -22 -56 -22q-37 0 -37 43q0 20 10 43q31 75 50 113q31 67 59 109q6 9 15 9q18 0 18 -14q0 -3 -2 -6q-6 -13 -98 -194q-16 -32 -16 -53
q0 -19 13 -19q6 0 13 4q33 18 98 87q25 26 54 61q47 60 102 131q7 8 24 8q21 0 21 -15q0 -12 -32 -59l-42 -60q-17 -28 -38 -72q-31 -62 -31 -89q0 -18 15 -18q26 0 80 75q36 51 71 103q4 6 12 7q15 1 17 -12z" />
    <glyph glyph-name="v" unicode="v" horiz-adv-x="342" 
d="M407 318q0 -6 -7 -11q-21 -14 -62 -43q-112 -85 -193 -207q-11 -19 -33 -55q-15 -23 -37 -23q-31 0 -31 47q0 48 22 134q-26 -37 -52 -73q-5 -7 -13 -7q-14 0 -14 12q0 4 2 7q81 116 117 179q6 11 18 30q6 7 19 7q18 0 18 -15q0 -3 -3 -8q-17 -26 -32 -67
q-40 -119 -44 -193l4 -1q49 79 130 163q89 94 163 136q6 3 11 3q17 0 17 -15z" />
    <glyph glyph-name="w" unicode="w" horiz-adv-x="546" 
d="M543 322q0 -71 -71 -170q-68 -94 -172 -161q-26 -17 -52 -17q-43 0 -43 47q0 54 42 129l-5 1q-37 -50 -87 -97q-68 -65 -107 -65q-31 0 -31 33q0 29 41.5 119.5t83.5 155.5q6 8 15 8q17 0 17 -13q0 -3 -2 -6q-28 -49 -85 -156q-34 -71 -34 -95q0 -12 9 -12q13 0 47 28
q52 45 116 122q37 48 102 127q11 12 28 12t17 -16q0 -21 -54 -102q-62 -92 -70.5 -113t-8.5 -46q0 -29 19 -29q32 0 101 63q55 51 86 92q69 95 69 161q0 33 -49 35q-14 0 -14 12q0 13 15 13q77 -2 77 -60z" />
    <glyph glyph-name="x" unicode="x" horiz-adv-x="344" 
d="M411 172q1 -5 -2 -9q-25 -46 -80 -111q-59 -69 -105 -69q-45 0 -56 74q-3 22 -7 95q-92 -84 -182 -187q-26 -31 -79 -92q-5 -5 -11 -5q-18 0 -18 15q0 3 3 7q135 167 282 300q-4 39 -9 61q-9 41 -21 53q-5 6 -5 10q0 14 16 14q29 0 49 -113q32 28 97 80q83 66 93 66
q16 0 16 -14q0 -6 -7 -11q-22 -17 -67 -51q-65 -51 -126 -105q0 -58 9 -116q8 -48 34 -48q25 0 67 48q22 30 53 71q10 14 29 41q5 7 12 8q13 2 15 -12z" />
    <glyph glyph-name="y" unicode="y" horiz-adv-x="344" 
d="M280 193q6 -61 -11 -158q47 38 114 142q5 8 13 8q14 0 14 -14q0 -5 -3 -10q-77 -125 -154 -176q-42 -119 -127 -218t-174 -134q-39 -16 -71 -16q-64 0 -74 55q-8 53 104 137q49 36 160 100q54 32 154 95q21 60 16 136q-27 -60 -93 -125q-45 -43 -91 -43q-51 0 -51 64
q0 56 42 144q-3 2 -3 7q0 13 44 84q5 9 20 9q18 0 18 -14q0 -3 -2 -6l-54 -110q-33 -73 -33 -114q0 -34 24 -34q32 0 68 38q65 67 105 153q13 29 30 29q12 0 15 -29zM204 -47q-38 -24 -113 -69q-261 -148 -250 -210q5 -32 39 -32q23 0 55 14q85 38 156 117q63 70 101 156z
" />
    <glyph glyph-name="z" unicode="z" horiz-adv-x="386" 
d="M451 161q-76 -125 -153 -176q-40 -113 -164 -221q-132 -116 -246 -116q-75 0 -75 60q0 54 125 127q54 32 174 86q95 43 158 83q16 32 16 66q0 52 -44 52q-7 0 -14 -2q-24 -26 -62 -58q-50 -42 -69 -42q-14 0 -14 15q0 21 25 46q49 48 93 59q41 50 60 88q12 26 12 43
q0 29 -32 29q-44 0 -90 -40q-26 -22 -134 -168q-8 -12 -15 -12q-14 0 -14 13q0 20 63 99q60 74 84 93q55 41 108 41q64 0 64 -56q0 -24 -14.5 -53.5t-44.5 -69.5q35 -1 53 -24.5t18 -55.5q0 -17 -5 -32q46 38 114 142q5 8 13 8q13 0 13 -14q0 -5 -3 -10zM248 -47
q-60 -32 -120 -59q-282 -124 -282 -186q0 -35 40 -35q21 0 50 10q93 31 180 107q80 72 132 163z" />
    <glyph glyph-name="braceleft" unicode="{" horiz-adv-x="268" 
d="M365 672q-9 -22 -55 -32q-59 -12 -96 -78q-14 -25 -49 -121q-21 -60 -119 -116q52 -31 52 -71q0 -37 -27.5 -108.5t-27.5 -108.5q0 -41 30 -63q20 -14 68 -25q20 -4 20 -11q0 -11 -37 -11q-111 0 -111 96q0 35 21 102.5t21 98.5q0 26 -19 54t-44 38q1 2 49.5 39.5
t67.5 66.5q14 21 73 121q44 74 71 96q39 32 112 33z" />
    <glyph glyph-name="bar" unicode="|" horiz-adv-x="146" 
d="M80 0h-26v658h26v-658z" />
    <glyph glyph-name="braceright" unicode="}" horiz-adv-x="268" 
d="M372 312q0 -2 -39 -47q-42 -47 -55 -80q-11 -26 -49 -132q-29 -81 -51 -108q-32 -39 -104 -54q5 25 48 42q56 22 80 95q10 29 25 128q9 63 94 137q-67 24 -67 88q0 28 9 83t9 83q0 56 -31 77q-25 17 -85 19q-21 1 -21 8q0 20 68 20q97 0 97 -126q0 -22 -3.5 -66.5
t-3.5 -66.5q0 -35 22.5 -64t56.5 -36z" />
    <glyph glyph-name="asciitilde" unicode="~" horiz-adv-x="323" 
d="M372 389q0 -13 -21.5 -24t-35.5 -11q-30 0 -60 23t-47 23q-37 0 -55 -19t-20 -19q-17 0 -17 15q0 3 2 7q23 45 88 45q20 0 52.5 -22.5t56.5 -22.5q14 0 26.5 9.5t16.5 9.5q14 0 14 -14z" />
    <glyph glyph-name="nonbreakingspace" unicode="&#xa0;" horiz-adv-x="147" 
 />
    <glyph glyph-name="exclamdown" unicode="&#xa1;" horiz-adv-x="250" 
d="M201 147q0 -14 -10.5 -25t-24.5 -11t-24.5 11t-10.5 25t10.5 24t24.5 10t24.5 -10t10.5 -24zM141 1q0 -2 -53 -187q-53 -188 -59 -203q-4 -10 -14 -10q-16 0 -16 14q0 2 53 188.5t59 201.5q4 10 14 10q16 0 16 -14z" />
    <glyph glyph-name="cent" unicode="&#xa2;" horiz-adv-x="281" 
d="M547 634q-28 -28 -115 -137q31 -16 31 -44q0 -25 -15 -25q-3 0 -18 19t-21 22q-67 -84 -122 -157q-18 -25 -54 -73q-11 -12 -35 -26q11 -3 23 -3q44 0 133 52t92 52q5 0 4 -4q-3 -13 -98 -70q-79 -47 -149 -50q-24 -30 -39 -60l-61 -40q23 45 71 103q-34 9 -34 50
q0 16 5 37q18 67 95 146q82 84 146 84q10 0 19 -2q52 68 62 78q40 43 80 48zM375 469q-60 -14 -131 -83q-77 -74 -77 -131q0 -28 26 -39q91 132 182 253z" />
    <glyph glyph-name="sterling" unicode="&#xa3;" horiz-adv-x="493" 
d="M771 617q-87 -170 -239 -285q-20 -15 -25 -15q-2 0 -4 4t-6 3q1 2 1 4t-1 4t-1 3q0 5 20 21q64 48 134 128q81 94 97 153q3 13 3 25q0 33 -25 33q-90 0 -274 -174q-142 -135 -231 -257q3 -3 72 0q83 3 73 3q29 0 29 -14q0 -12 -37 -12q-27 0 -158 -10q-40 -57 -80 -113
q-51 -74 -70 -116q170 89 370 89q40 0 72 -16q39 -19 39 -52q0 -8 -2 -16q-6 -22 -13 -26q-5 7 -6 19q-7 55 -95 55q-197 0 -342 -72q-14 -7 -33 -14q-38 -85 -88 -85q-25 0 -25 20q0 4 2 10q7 25 77 68q12 17 25 48q19 45 133 202q-11 1 -75 -2q-5 -1 -5 4q0 7 7.5 17.5
t12.5 10.5q32 0 84 3q149 204 361 375q101 81 178 81q59 0 59 -56q0 -22 -14 -48z" />
    <glyph glyph-name="section" unicode="&#xa7;" horiz-adv-x="584" 
d="M531 136q-5 -83 -132 -187q-104 -85 -205 -127q-83 -35 -149 -40l-15 -1q-56 -4 -93 15q-44 22 -44 69q0 12 3 24q4 20 16 44q16 33 29 34q3 -2 4 -6q-1 -8 -10 -25.5t-11.5 -27.5t-2.5 -20q0 -40 38 -61q32 -18 79 -16q100 6 212 67q99 55 169.5 131t70.5 125
q0 52 -81 47q-45 -2 -136 -17t-135 -18q-72 -3 -72 40q0 67 110 159q0 11 4 24q21 80 144 172q103 76 202 112q84 31 150 32l14 1q53 1 89 -19q41 -24 41 -68q0 -14 -4 -30q-5 -19 -18 -44q-17 -32 -31 -32q-5 0 -4 6q2 8 12 25.5t13 29t3 22.5q0 39 -35 60q-31 20 -76 20
q-111 0 -262 -87q-164 -95 -192 -200q-2 -7 -2 -15q0 -24 21 -39t49 -15q45 0 135.5 11t134.5 11q68 0 68 -42q0 -61 -101 -144zM185 310q-42 -38 -65 -73q-11 -15 -13 -26q-4 -20 14 -27q12 -4 34 -3q40 2 131 13.5t137 14.5q78 4 101 -37q32 29 52 56q16 21 16 35
q0 25 -47 25q-40 0 -130.5 -7.5t-135.5 -7.5q-71 0 -94 37z" />
    <glyph glyph-name="dieresis" unicode="&#xa8;" horiz-adv-x="213" 
d="M199 426q0 -35 -35 -35q-34 0 -34 35t34 35q35 0 35 -35zM88 426q0 -35 -35 -35q-34 0 -34 35t34 35q35 0 35 -35z" />
    <glyph glyph-name="copyright" unicode="&#xa9;" horiz-adv-x="503" 
d="M226 3q-80 -2 -128 41.5t-48 115.5q0 36 13 74q33 98 126 170t192 75q79 3 127 -41t48 -115q0 -36 -13 -74q-32 -98 -125 -170t-192 -76zM376 455q-90 -3 -174.5 -68.5t-114.5 -154.5q-12 -35 -12 -67q0 -63 42.5 -101.5t112.5 -36.5q90 4 175 69.5t115 154.5
q11 35 11 67q0 63 -42 101.5t-113 35.5zM480 248q-1 -3 -3 -7q-37 -54 -119 -111q-93 -65 -157 -65q-101 0 -101 80q0 65 58 134q41 51 108 95q81 53 142 53q58 0 58 -44q0 -48 -59 -92.5t-108 -44.5q-32 0 -32 24q0 4 1 9q3 10 17.5 31t23.5 21q10 0 7 -11q-2 -8 -12.5 -21
t-12.5 -21q-4 -15 14 -15q37 0 86.5 39t49.5 74q0 28 -38 28q-53 0 -126 -50q-61 -41 -98 -87q-51 -63 -51 -119q0 -61 84 -59q87 1 212 121l39 42q6 6 16 7q2 -8 1 -11z" />
    <glyph glyph-name="ordfeminine" unicode="&#xaa;" horiz-adv-x="240" 
d="M525 409q-4 -16 -110 -119q-62 -61 -104 -61q-7 0 -14 1q-27 5 -27 28q0 15 26 69l-2 3q-36 -31 -84 -62q-64 -41 -93 -41q-46 0 -46 37q0 59 80 154q59 70 119 112q68 47 121 47q70 0 70 -57q0 -22 -12 -44q-19 -37 -33 -37q-7 0 -11 7t1.5 15t16.5 28q8 17 8 30
q0 34 -44 34t-101 -43q-61 -47 -111 -109q-66 -83 -66 -125q0 -20 21 -20q29 0 101 56q53 41 91 79q11 12 33 35q4 4 13 4q20 0 20 -12q0 -2 -2 -5q-22 -30 -39 -55q-31 -49 -38 -75t8 -30q20 -4 75 50q37 39 108 113q7 8 16 8q13 0 9 -15z" />
    <glyph glyph-name="registered" unicode="&#xae;" horiz-adv-x="503" 
d="M226 3q-80 -2 -128 41.5t-48 115.5q0 36 13 74q33 98 126 170t192 75q79 3 127 -41t48 -115q0 -36 -13 -74q-32 -98 -125 -170t-192 -76zM363 68q-30 7 -56 53q-17 36 -35 72q-6 2 -15 8q-14 12 -10 26q3 12 21 12t26 -17q40 11 91 42q58 36 66 63q1 6 1 11q0 50 -106 50
q-34 0 -79 -13q-53 -14 -72 -35q-4 -4 -8 -4q-10 0 -7 10l3 6q19 25 80 44q52 16 86 16q44 0 81 -16q47 -20 47 -57q0 -45 -68 -87q-52 -32 -109 -45q41 -116 79 -116q19 0 34 12q78 62 107 148q11 35 11 67q0 63 -42 101.5t-113 35.5q-90 -3 -174.5 -68.5t-114.5 -154.5
q-12 -35 -12 -67q0 -63 42.5 -101.5t112.5 -36.5q66 3 133 41zM293 333q-4 8 11 19t21 11q18 0 13 -16q0 -2 -19 -24q-97 -109 -117 -184q-5 -20 -5 -31q0 -15 10 -17q15 -3 14 -14q-4 -5 -11 -5h-2q-35 0 -35 35q0 14 6 36q14 51 59 110q49 63 55 80z" />
    <glyph glyph-name="macron" unicode="&#xaf;" horiz-adv-x="237" 
d="M219 393q0 -3 -4 -6t-88 -8q-72 -3 -101 -3q-7 0 -7 13q0 8 4 8q23 0 69.5 3t69.5 3q57 0 57 -10z" />
    <glyph glyph-name="macron" unicode="&#x2c9;" horiz-adv-x="237" 
d="M219 393q0 -3 -4 -6t-88 -8q-72 -3 -101 -3q-7 0 -7 13q0 8 4 8q23 0 69.5 3t69.5 3q57 0 57 -10z" />
    <glyph glyph-name="degree" unicode="&#xb0;" horiz-adv-x="312" 
d="M267 368q-22 0 -35.5 13.5t-13.5 34.5q0 30 26.5 55t56.5 25q22 0 35.5 -13.5t13.5 -34.5q0 -30 -26 -55t-57 -25zM331 443q0 35 -36 35q-22 0 -41 -18t-19 -40q0 -35 36 -35q22 0 41 18t19 40z" />
    <glyph glyph-name="plusminus" unicode="&#xb1;" horiz-adv-x="438" 
d="M485 302l-1 -4l-11 -6q-41 0 -151 -1q-39 -136 -47 -147q-4 -6 -9 -6q-2 0 -2 8q-1 21 18 92q5 16 14 49l1 3q-19 0 -70 -3q-45 -2 -70 -2q-6 0 -10.5 7t-3.5 14l7 5q42 5 153 4q10 46 32 138q4 16 26 18l4 -5q-6 -40 -36 -151q70 -1 152 -7q5 -3 4 -6zM342 82
q-1 -5 -8 -5q-30 0 -91.5 -6t-92.5 -6q-4 0 -9.5 9t-4.5 15l2 1q23 7 99 7q82 0 102 -12q4 -1 3 -3z" />
    <glyph glyph-name="acute" unicode="&#xb4;" horiz-adv-x="279" 
d="M361 504q0 -17 -23 -29q-13 -7 -94 -59q-11 -6 -34 -19q-10 -6 -13 -6q-5 0 -5 4q0 16 52 55q28 24 82 62q11 6 19 6q16 0 16 -14z" />
    <glyph glyph-name="periodcentered" unicode="&#xb7;" horiz-adv-x="914" 
 />
    <glyph glyph-name="periodcentered" unicode="&#x2219;" horiz-adv-x="914" 
 />
    <glyph glyph-name="cedilla" unicode="&#xb8;" horiz-adv-x="1000" 
d="M273 -23q-8 -13 -25 -37q84 4 128 -19q39 -20 39 -55q0 -46 -59 -85q-65 -43 -153 -43q-23 0 -46 3q-34 5 -34 24q0 13 18 13q9 0 27.5 -5t30.5 -5q59 0 119 32t60 63q0 48 -156 46q-14 0 -14 9q0 12 22 40l26 32q5 7 12 7q9 0 9 -10q0 -5 -4 -10z" />
    <glyph glyph-name="ordmasculine" unicode="&#xba;" horiz-adv-x="191" 
d="M517 406q0 -4 -3 -8q-37 -44 -67 -71q-74 -67 -170 -72q-70 -54 -129 -54q-55 0 -55 59q0 14 4 29q14 52 50 93q8 37 26 69q28 53 83.5 90t115.5 37q79 0 79 -64q0 -13 -3 -27q-14 -51 -49 -100q-20 -28 -72 -86q0 -4 8 -4q58 0 155 111q8 10 16 10q7 1 9.5 -2.5
t1.5 -9.5zM417 507q0 45 -52 45q-47 0 -99 -36l2 -4q3 1 6 1q16 0 12 -14q-1 -4 -5 -9q-35 -35 -100 -111q-3 -38 20.5 -62t66.5 -24h11q48 44 87 97q51 71 51 117zM245 265q-73 7 -94 67q-23 -46 -23 -71q0 -32 34 -32q30 0 83 36z" />
    <glyph glyph-name="questiondown" unicode="&#xbf;" horiz-adv-x="476" 
d="M363 244q0 -14 -10.5 -24.5t-24.5 -10.5t-24.5 10.5t-10.5 24.5t10.5 24t24.5 10t24.5 -10t10.5 -24zM343 -256q0 -53 -58 -84q-48 -26 -106 -26q-69 0 -117 38q-52 40 -52 108q0 101 199 190q24 11 48 29q32 25 32 42q0 6 -7 12t-7 12q0 15 14 15q12 0 20.5 -12.5
t8.5 -24.5q0 -55 -98 -99q-181 -81 -181 -164q0 -55 44 -87q39 -29 96 -29q42 0 84 18q52 24 52 61q0 20 -15 31.5t-15 16.5q0 16 15 16q22 0 38 -35q5 -12 5 -28z" />
    <glyph glyph-name="Agrave" unicode="&#xc0;" 
d="M1020 595q-55 -56 -110.5 -164t-86.5 -219h39q20 -1 20 -16q0 -12 -15 -12q-5 0 -22 1h-27q-17 -69 -17 -125q0 -28 4 -52q12 -59 33 -59q15 0 38 28q7 9 15 9q15 0 7 -17q-21 -45 -59 -45q-49 0 -65 76q-5 28 -5 63q0 55 13 122q-127 0 -196 -6l-9 -9
q-252 -283 -395 -283q-87 0 -133 54q-41 50 -41 132t39 167q46 97 128 161q88 69 183 69q71 0 107 -29q32 -26 32 -66q0 -32 -20.5 -61t-51.5 -38q-20 -6 -20 14q0 12 12 15q20 5 34 25t14 43q0 73 -110 73q-83 0 -164 -67q-75 -63 -117 -156q-34 -78 -34 -150
q0 -70 34 -112q37 -46 108 -46q76 0 183 87q72 57 179 173q-66 -7 -139 -23q-16 -4 -16 12q0 14 15 17q66 12 159 20q205 242 262 304q104 113 156 135q24 10 44 10q22 0 22 -13q0 -15 -27 -42zM997 625q-48 -20 -146 -131q-31 -35 -242 -288q81 5 180 7q25 103 81 214
q50 101 103 163q14 19 24 35zM866 806q14 9 36 -4q12 -8 99 -48q12 -7 35 -19q5 -2 12 -8q6 -9 -11 -9q-19 0 -64 17q-35 12 -96 37q-11 6 -16 13q-8 13 5 21z" />
    <glyph glyph-name="Aacute" unicode="&#xc1;" 
d="M1020 595q-55 -56 -110.5 -164t-86.5 -219h39q20 -1 20 -16q0 -12 -15 -12q-5 0 -22 1h-27q-17 -69 -17 -125q0 -28 4 -52q12 -59 33 -59q15 0 38 28q7 9 15 9q15 0 7 -17q-21 -45 -59 -45q-49 0 -65 76q-5 28 -5 63q0 55 13 122q-127 0 -196 -6l-9 -9
q-252 -283 -395 -283q-87 0 -133 54q-41 50 -41 132t39 167q46 97 128 161q88 69 183 69q71 0 107 -29q32 -26 32 -66q0 -32 -20.5 -61t-51.5 -38q-20 -6 -20 14q0 12 12 15q20 5 34 25t14 43q0 73 -110 73q-83 0 -164 -67q-75 -63 -117 -156q-34 -78 -34 -150
q0 -70 34 -112q37 -46 108 -46q76 0 183 87q72 57 179 173q-66 -7 -139 -23q-16 -4 -16 12q0 14 15 17q66 12 159 20q205 242 262 304q104 113 156 135q24 10 44 10q22 0 22 -13q0 -15 -27 -42zM997 625q-48 -20 -146 -131q-31 -35 -242 -288q81 5 180 7q25 103 81 214
q50 101 103 163q14 19 24 35zM1163 807q0 -17 -23 -29q-13 -7 -94 -59q-11 -6 -34 -19q-10 -6 -13 -6q-5 0 -5 4q0 16 52 55q28 24 82 62q11 6 19 6q16 0 16 -14z" />
    <glyph glyph-name="Acircumflex" unicode="&#xc2;" 
d="M1020 595q-55 -56 -110.5 -164t-86.5 -219h39q20 -1 20 -16q0 -12 -15 -12q-5 0 -22 1h-27q-17 -69 -17 -125q0 -28 4 -52q12 -59 33 -59q15 0 38 28q7 9 15 9q15 0 7 -17q-21 -45 -59 -45q-49 0 -65 76q-5 28 -5 63q0 55 13 122q-127 0 -196 -6l-9 -9
q-252 -283 -395 -283q-87 0 -133 54q-41 50 -41 132t39 167q46 97 128 161q88 69 183 69q71 0 107 -29q32 -26 32 -66q0 -32 -20.5 -61t-51.5 -38q-20 -6 -20 14q0 12 12 15q20 5 34 25t14 43q0 73 -110 73q-83 0 -164 -67q-75 -63 -117 -156q-34 -78 -34 -150
q0 -70 34 -112q37 -46 108 -46q76 0 183 87q72 57 179 173q-66 -7 -139 -23q-16 -4 -16 12q0 14 15 17q66 12 159 20q205 242 262 304q104 113 156 135q24 10 44 10q22 0 22 -13q0 -15 -27 -42zM997 625q-48 -20 -146 -131q-31 -35 -242 -288q81 5 180 7q25 103 81 214
q50 101 103 163q14 19 24 35zM1159 734q2 -3 2 -7q0 -20 -19 -20q-5 0 -9 5q-19 24 -39 47q-22 29 -33 52q-96 -52 -129 -87q-6 -7 -13 -7q-12 0 -12 12q0 7 6 13q15 17 71 56q67 48 90 48q7 0 10 -6q10 -26 34 -56q20 -25 41 -50z" />
    <glyph glyph-name="Atilde" unicode="&#xc3;" 
d="M1020 595q-55 -56 -110.5 -164t-86.5 -219h39q20 -1 20 -16q0 -12 -15 -12q-5 0 -22 1h-27q-17 -69 -17 -125q0 -28 4 -52q12 -59 33 -59q15 0 38 28q7 9 15 9q15 0 7 -17q-21 -45 -59 -45q-49 0 -65 76q-5 28 -5 63q0 55 13 122q-127 0 -196 -6l-9 -9
q-252 -283 -395 -283q-87 0 -133 54q-41 50 -41 132t39 167q46 97 128 161q88 69 183 69q71 0 107 -29q32 -26 32 -66q0 -32 -20.5 -61t-51.5 -38q-20 -6 -20 14q0 12 12 15q20 5 34 25t14 43q0 73 -110 73q-83 0 -164 -67q-75 -63 -117 -156q-34 -78 -34 -150
q0 -70 34 -112q37 -46 108 -46q76 0 183 87q72 57 179 173q-66 -7 -139 -23q-16 -4 -16 12q0 14 15 17q66 12 159 20q205 242 262 304q104 113 156 135q24 10 44 10q22 0 22 -13q0 -15 -27 -42zM997 625q-48 -20 -146 -131q-31 -35 -242 -288q81 5 180 7q25 103 81 214
q50 101 103 163q14 19 24 35zM1179 725q0 -13 -21.5 -24t-35.5 -11q-30 0 -60 23t-47 23q-37 0 -55 -19t-20 -19q-17 0 -17 15q0 3 2 7q23 45 88 45q20 0 52.5 -22.5t56.5 -22.5q14 0 26.5 9.5t16.5 9.5q14 0 14 -14z" />
    <glyph glyph-name="Adieresis" unicode="&#xc4;" 
d="M1020 595q-55 -56 -110.5 -164t-86.5 -219h39q20 -1 20 -16q0 -12 -15 -12q-5 0 -22 1h-27q-17 -69 -17 -125q0 -28 4 -52q12 -59 33 -59q15 0 38 28q7 9 15 9q15 0 7 -17q-21 -45 -59 -45q-49 0 -65 76q-5 28 -5 63q0 55 13 122q-127 0 -196 -6l-9 -9
q-252 -283 -395 -283q-87 0 -133 54q-41 50 -41 132t39 167q46 97 128 161q88 69 183 69q71 0 107 -29q32 -26 32 -66q0 -32 -20.5 -61t-51.5 -38q-20 -6 -20 14q0 12 12 15q20 5 34 25t14 43q0 73 -110 73q-83 0 -164 -67q-75 -63 -117 -156q-34 -78 -34 -150
q0 -70 34 -112q37 -46 108 -46q76 0 183 87q72 57 179 173q-66 -7 -139 -23q-16 -4 -16 12q0 14 15 17q66 12 159 20q205 242 262 304q104 113 156 135q24 10 44 10q22 0 22 -13q0 -15 -27 -42zM997 625q-48 -20 -146 -131q-31 -35 -242 -288q81 5 180 7q25 103 81 214
q50 101 103 163q14 19 24 35zM1118 716q0 -35 -35 -35q-34 0 -34 35t34 35q35 0 35 -35zM1007 716q0 -35 -35 -35q-34 0 -34 35t34 35q35 0 35 -35z" />
    <glyph glyph-name="Aring" unicode="&#xc5;" 
d="M1020 595q-55 -56 -110.5 -164t-86.5 -219h39q20 -1 20 -16q0 -12 -15 -12q-5 0 -22 1h-27q-17 -69 -17 -125q0 -28 4 -52q12 -59 33 -59q15 0 38 28q7 9 15 9q15 0 7 -17q-21 -45 -59 -45q-49 0 -65 76q-5 28 -5 63q0 55 13 122q-127 0 -196 -6l-9 -9
q-252 -283 -395 -283q-87 0 -133 54q-41 50 -41 132t39 167q46 97 128 161q88 69 183 69q71 0 107 -29q32 -26 32 -66q0 -32 -20.5 -61t-51.5 -38q-20 -6 -20 14q0 12 12 15q20 5 34 25t14 43q0 73 -110 73q-83 0 -164 -67q-75 -63 -117 -156q-34 -78 -34 -150
q0 -70 34 -112q37 -46 108 -46q76 0 183 87q72 57 179 173q-66 -7 -139 -23q-16 -4 -16 12q0 14 15 17q66 12 159 20q205 242 262 304q104 113 156 135q24 10 44 10q22 0 22 -13q0 -15 -27 -42zM997 625q-48 -20 -146 -131q-31 -35 -242 -288q81 5 180 7q25 103 81 214
q50 101 103 163q14 19 24 35zM1145 717q0 -33 -37 -64t-68 -31t-51 24t-20 55q0 45 30 71q27 24 64 24q34 0 58 -20.5t24 -58.5zM1115 717q0 23 -15.5 36t-37.5 13q-25 0 -44 -17t-19 -48q0 -20 12 -34.5t29 -14.5q21 0 48 23t27 42z" />
    <glyph glyph-name="AE" unicode="&#xc6;" horiz-adv-x="1251" 
d="M1457 625q-6 -23 -25 -60q-25 -48 -41 -48q-8 0 -4 14q2 8 29 47q24 34 24 59q0 35 -81 35q-136 0 -281 -104q-131 -94 -217 -232q99 50 211 81q118 33 211 33q25 0 60 -6q48 -8 45 -21q-2 -7 -14 -7q-8 0 -31 8t-39 8q-78 0 -212 -38.5t-226 -85.5q45 3 64 3q14 0 12 -7
q-3 -11 -50 -15q-29 -2 -59 -4q-9 -26 -32 -66q-34 -83 -34 -129q0 -49 27 -81q28 -35 78 -35q91 0 216 57q122 56 198 131q9 8 13 8t3 -6q-2 -6 -9 -14q-67 -76 -203 -141t-226 -65q-61 0 -98 42q-35 39 -35 99q0 59 45 163q12 18 12 25q0 6 -16 7q-65 -7 -161 -21l-43 -54
q-99 -122 -238 -226q-169 -126 -282 -126q-127 0 -127 115q0 33 11 75q41 151 172 308q151 180 292 180q70 0 70 -70q0 -21 -7 -48q-13 -50 -49 -110q-39 -67 -79 -98q-7 -5 -11 -5q-6 0 -4 6t11 15q74 69 100 166q8 30 8 54q0 57 -45 57q-132 0 -274 -176
q-122 -150 -160 -293q-10 -37 -10 -66q0 -88 90 -88q229 0 546 380q-64 -11 -98 -22q-22 -7 -18 -7q-14 0 -9 21q9 33 71 43q11 2 89 7q73 86 214 262q24 36 74 106q12 16 22 17q2 -2 2 -5q-13 -50 -284 -379q56 3 159 7q88 164 138 352q2 9 4 25.5t4 24.5q7 26 40 26
q24 0 24 -16q0 -5 -1 -11q-7 -25 -25 -65l-30 -64l-57 -131q96 114 214 182q129 74 252 74q34 0 61 -15q32 -18 32 -47q0 -7 -3 -15z" />
    <glyph glyph-name="Ccedilla" unicode="&#xc7;" horiz-adv-x="716" 
d="M837 546q0 -43 -36 -85q-56 -66 -167 -99q-92 -27 -202 -27q-64 0 -129 20q-73 21 -111 58q-114 -133 -114 -261q0 -95 68.5 -159t177.5 -64q204 0 366 247q4 6 11 7q15 1 16 -14q0 -4 -3 -9q-67 -119 -161 -186q-105 -77 -231 -77q-121 0 -199.5 73t-78.5 179
q0 73 37 153q34 74 91 135q-8 17 -8 37q0 25 15 25q19 0 19 -15q0 -4 -1 -11v-12q165 158 404 192q31 4 60 4q69 0 118 -25q58 -30 58 -86zM803 543q0 45 -46 68q-38 18 -94 18q-25 0 -55 -4q-111 -16 -216.5 -67.5t-179.5 -125.5q27 -34 101 -53q59 -15 119 -15
q99 0 183 22q103 28 155 83q33 36 33 74zM257 -84q-8 -13 -25 -37q84 4 128 -19q39 -20 39 -55q0 -46 -59 -85q-65 -43 -153 -43q-23 0 -46 3q-34 5 -34 24q0 13 18 13q9 0 27.5 -5t30.5 -5q59 0 119 32t60 63q0 48 -156 46q-14 0 -14 9q0 12 22 40l26 32q5 7 12 7
q9 0 9 -10q0 -5 -4 -10z" />
    <glyph glyph-name="Egrave" unicode="&#xc8;" horiz-adv-x="724" 
d="M798 562q0 -29 -22 -53q-25 -25 -57 -25q-27 0 -27 16q0 15 16 15q3 0 8 -2t8 -2q18 0 30 17t12 33q0 45 -81 45q-94 0 -186 -35q-102 -39 -145 -103q-20 -31 -20 -56q0 -36 42 -56q72 13 151 13q42 0 42 -17q0 -14 -25 -25q-20 -10 -39 -12q-24 -3 -50 -3q-47 0 -80 13
q-7 -1 -23 -5q-208 -52 -270 -196q-11 -26 -11 -50q0 -66 73 -101q59 -28 142 -28q95 0 191 31.5t171 90t75 111.5q0 25 -16 34q-5 3 -30 9q-16 3 -16 14q0 14 17 14q36 0 57.5 -20t21.5 -51t-21 -65.5t-75 -74.5q-161 -120 -362 -122h-12q-96 -1 -166 35q-83 42 -83 121
q0 30 14 61q69 157 284 215q-36 27 -36 64q0 32 25 71q45 68 153 111q99 39 198 39q122 0 122 -71zM568 775q14 9 36 -4q12 -8 99 -48q12 -7 35 -19q5 -2 12 -8q6 -9 -11 -9q-19 0 -64 17q-35 12 -96 37q-11 6 -16 13q-8 13 5 21z" />
    <glyph glyph-name="Eacute" unicode="&#xc9;" horiz-adv-x="724" 
d="M798 562q0 -29 -22 -53q-25 -25 -57 -25q-27 0 -27 16q0 15 16 15q3 0 8 -2t8 -2q18 0 30 17t12 33q0 45 -81 45q-94 0 -186 -35q-102 -39 -145 -103q-20 -31 -20 -56q0 -36 42 -56q72 13 151 13q42 0 42 -17q0 -14 -25 -25q-20 -10 -39 -12q-24 -3 -50 -3q-47 0 -80 13
q-7 -1 -23 -5q-208 -52 -270 -196q-11 -26 -11 -50q0 -66 73 -101q59 -28 142 -28q95 0 191 31.5t171 90t75 111.5q0 25 -16 34q-5 3 -30 9q-16 3 -16 14q0 14 17 14q36 0 57.5 -20t21.5 -51t-21 -65.5t-75 -74.5q-161 -120 -362 -122h-12q-96 -1 -166 35q-83 42 -83 121
q0 30 14 61q69 157 284 215q-36 27 -36 64q0 32 25 71q45 68 153 111q99 39 198 39q122 0 122 -71zM819 793q0 -17 -23 -29q-13 -7 -94 -59q-11 -6 -34 -19q-10 -6 -13 -6q-5 0 -5 4q0 16 52 55q28 24 82 62q11 6 19 6q16 0 16 -14z" />
    <glyph glyph-name="Ecircumflex" unicode="&#xca;" horiz-adv-x="724" 
d="M798 562q0 -29 -22 -53q-25 -25 -57 -25q-27 0 -27 16q0 15 16 15q3 0 8 -2t8 -2q18 0 30 17t12 33q0 45 -81 45q-94 0 -186 -35q-102 -39 -145 -103q-20 -31 -20 -56q0 -36 42 -56q72 13 151 13q42 0 42 -17q0 -14 -25 -25q-20 -10 -39 -12q-24 -3 -50 -3q-47 0 -80 13
q-7 -1 -23 -5q-208 -52 -270 -196q-11 -26 -11 -50q0 -66 73 -101q59 -28 142 -28q95 0 191 31.5t171 90t75 111.5q0 25 -16 34q-5 3 -30 9q-16 3 -16 14q0 14 17 14q36 0 57.5 -20t21.5 -51t-21 -65.5t-75 -74.5q-161 -120 -362 -122h-12q-96 -1 -166 35q-83 42 -83 121
q0 30 14 61q69 157 284 215q-36 27 -36 64q0 32 25 71q45 68 153 111q99 39 198 39q122 0 122 -71zM857 706q2 -3 2 -7q0 -20 -19 -20q-5 0 -9 5q-19 24 -39 47q-22 29 -33 52q-96 -52 -129 -87q-6 -7 -13 -7q-12 0 -12 12q0 7 6 13q15 17 71 56q67 48 90 48q7 0 10 -6
q10 -26 34 -56q20 -25 41 -50z" />
    <glyph glyph-name="Edieresis" unicode="&#xcb;" horiz-adv-x="724" 
d="M798 562q0 -29 -22 -53q-25 -25 -57 -25q-27 0 -27 16q0 15 16 15q3 0 8 -2t8 -2q18 0 30 17t12 33q0 45 -81 45q-94 0 -186 -35q-102 -39 -145 -103q-20 -31 -20 -56q0 -36 42 -56q72 13 151 13q42 0 42 -17q0 -14 -25 -25q-20 -10 -39 -12q-24 -3 -50 -3q-47 0 -80 13
q-7 -1 -23 -5q-208 -52 -270 -196q-11 -26 -11 -50q0 -66 73 -101q59 -28 142 -28q95 0 191 31.5t171 90t75 111.5q0 25 -16 34q-5 3 -30 9q-16 3 -16 14q0 14 17 14q36 0 57.5 -20t21.5 -51t-21 -65.5t-75 -74.5q-161 -120 -362 -122h-12q-96 -1 -166 35q-83 42 -83 121
q0 30 14 61q69 157 284 215q-36 27 -36 64q0 32 25 71q45 68 153 111q99 39 198 39q122 0 122 -71zM791 723q0 -35 -35 -35q-34 0 -34 35t34 35q35 0 35 -35zM680 723q0 -35 -35 -35q-34 0 -34 35t34 35q35 0 35 -35z" />
    <glyph glyph-name="Igrave" unicode="&#xcc;" horiz-adv-x="624" 
d="M767 657q0 -8 -9 -32q-11 -30 -12 -33q-66 -237 -163 -381q-71 -105 -153 -172q-111 -90 -221 -90q-61 0 -94 38q-30 35 -30 89q0 45 25 132l13 42q0 4 -4 9.5t-4 10.5q0 11 14 11l16 -1q22 -3 52 -3h35q23 1 34 1q164 0 164 -49q0 -23 -19 -23q-15 0 -15 17
q0 26 -156 26q-89 0 -87 0q-2 -27 -21 -88q-17 -56 -17 -89q0 -40 24.5 -67t69.5 -27q99 0 204 88q76 64 141 161q84 124 159 371q5 18 20 36q-65 -12 -135 -72q-24 -21 -47 -55q-27 -39 -27 -62q0 -25 30 -25q12 0 25 7t18 7q16 0 16 -14q0 -11 -25 -20q-21 -8 -36 -8
q-27 0 -45 17.5t-18 40.5q0 57 94 137q88 75 173 75q11 0 11 -5zM605 824q14 9 36 -4q12 -8 99 -48q12 -7 35 -19q5 -2 12 -8q6 -9 -11 -9q-19 0 -64 17q-35 12 -96 37q-11 6 -16 13q-8 13 5 21z" />
    <glyph glyph-name="Iacute" unicode="&#xcd;" horiz-adv-x="624" 
d="M767 657q0 -8 -9 -32q-11 -30 -12 -33q-66 -237 -163 -381q-71 -105 -153 -172q-111 -90 -221 -90q-61 0 -94 38q-30 35 -30 89q0 45 25 132l13 42q0 4 -4 9.5t-4 10.5q0 11 14 11l16 -1q22 -3 52 -3h35q23 1 34 1q164 0 164 -49q0 -23 -19 -23q-15 0 -15 17
q0 26 -156 26q-89 0 -87 0q-2 -27 -21 -88q-17 -56 -17 -89q0 -40 24.5 -67t69.5 -27q99 0 204 88q76 64 141 161q84 124 159 371q5 18 20 36q-65 -12 -135 -72q-24 -21 -47 -55q-27 -39 -27 -62q0 -25 30 -25q12 0 25 7t18 7q16 0 16 -14q0 -11 -25 -20q-21 -8 -36 -8
q-27 0 -45 17.5t-18 40.5q0 57 94 137q88 75 173 75q11 0 11 -5zM891 828q0 -17 -23 -29q-13 -7 -94 -59q-11 -6 -34 -19q-10 -6 -13 -6q-5 0 -5 4q0 16 52 55q28 24 82 62q11 6 19 6q16 0 16 -14z" />
    <glyph glyph-name="Icircumflex" unicode="&#xce;" horiz-adv-x="624" 
d="M767 657q0 -8 -9 -32q-11 -30 -12 -33q-66 -237 -163 -381q-71 -105 -153 -172q-111 -90 -221 -90q-61 0 -94 38q-30 35 -30 89q0 45 25 132l13 42q0 4 -4 9.5t-4 10.5q0 11 14 11l16 -1q22 -3 52 -3h35q23 1 34 1q164 0 164 -49q0 -23 -19 -23q-15 0 -15 17
q0 26 -156 26q-89 0 -87 0q-2 -27 -21 -88q-17 -56 -17 -89q0 -40 24.5 -67t69.5 -27q99 0 204 88q76 64 141 161q84 124 159 371q5 18 20 36q-65 -12 -135 -72q-24 -21 -47 -55q-27 -39 -27 -62q0 -25 30 -25q12 0 25 7t18 7q16 0 16 -14q0 -11 -25 -20q-21 -8 -36 -8
q-27 0 -45 17.5t-18 40.5q0 57 94 137q88 75 173 75q11 0 11 -5zM887 731q2 -3 2 -7q0 -20 -19 -20q-5 0 -9 5q-19 24 -39 47q-22 29 -33 52q-96 -52 -129 -87q-6 -7 -13 -7q-12 0 -12 12q0 7 6 13q15 17 71 56q67 48 90 48q7 0 10 -6q10 -26 34 -56q20 -25 41 -50z" />
    <glyph glyph-name="Idieresis" unicode="&#xcf;" horiz-adv-x="624" 
d="M767 657q0 -8 -9 -32q-11 -30 -12 -33q-66 -237 -163 -381q-71 -105 -153 -172q-111 -90 -221 -90q-61 0 -94 38q-30 35 -30 89q0 45 25 132l13 42q0 4 -4 9.5t-4 10.5q0 11 14 11l16 -1q22 -3 52 -3h35q23 1 34 1q164 0 164 -49q0 -23 -19 -23q-15 0 -15 17
q0 26 -156 26q-89 0 -87 0q-2 -27 -21 -88q-17 -56 -17 -89q0 -40 24.5 -67t69.5 -27q99 0 204 88q76 64 141 161q84 124 159 371q5 18 20 36q-65 -12 -135 -72q-24 -21 -47 -55q-27 -39 -27 -62q0 -25 30 -25q12 0 25 7t18 7q16 0 16 -14q0 -11 -25 -20q-21 -8 -36 -8
q-27 0 -45 17.5t-18 40.5q0 57 94 137q88 75 173 75q11 0 11 -5zM852 761q0 -35 -35 -35q-34 0 -34 35t34 35q35 0 35 -35zM741 761q0 -35 -35 -35q-34 0 -34 35t34 35q35 0 35 -35z" />
    <glyph glyph-name="Ntilde" unicode="&#xd1;" horiz-adv-x="881" 
d="M1001 569q0 -90 -106 -275q-97 -169 -130 -272q-14 -42 -14 -65q0 -20 12 -27t12 -14q0 -15 -17 -15q-19 0 -30 24q-8 18 -8 40q0 28 11 65q32 102 133 278q98 172 98 255q0 64 -56 63h-2q-167 -2 -431 -365q-18 -24 -56 -90l-79 -138q-11 -21 -36 -61q-5 -9 -16 -9
q-16 0 -16 15q0 2 1 5q21 45 57 111q56 106 59 111q123 238 158 417q2 11 2 22q0 61 -79 61q-92 0 -198 -55q-59 -31 -115 -78q-62 -50 -93.5 -98.5t-31.5 -101.5q0 -67 71 -67q20 0 42.5 10t28.5 10q13 0 13 -11q0 -17 -33 -29q-27 -9 -50 -9q-50 0 -78.5 26t-28.5 70
q0 58 39 118q32 47 100 102q60 48 121 82q46 25 107 43q66 20 114 20q106 0 106 -88q0 -91 -92 -308l4 -2q92 113 182 193q140 122 232 122q93 0 93 -85zM985 759q0 -13 -21.5 -24t-35.5 -11q-30 0 -60 23t-47 23q-37 0 -55 -19t-20 -19q-17 0 -17 15q0 3 2 7q23 45 88 45
q20 0 52.5 -22.5t56.5 -22.5q14 0 26.5 9.5t16.5 9.5q14 0 14 -14z" />
    <glyph glyph-name="Ograve" unicode="&#xd2;" horiz-adv-x="816" 
d="M871 389q0 -181 -168.5 -325t-377.5 -144q-33 0 -63 4q-86 10 -135 82q-43 63 -43 144q0 83 42 169q109 222 345 312l-1 4q-202 -8 -326 -85q-74 -45 -74 -121q0 -14 -17 -14q-16 0 -16 14q0 90 87 143q73 44 185 69q101 22 200 22q31 0 60 -2q62 15 119 15q32 0 66 -11
q45 -13 45 -37q0 -13 -17 -13q-9 0 -16 11q-14 22 -82 22h-7q-5 -1 -7 -1l-1 -4q97 -28 149.5 -96t52.5 -158zM840 389q0 104 -72.5 168t-193.5 75q-143 -32 -250.5 -117.5t-165.5 -206.5q-41 -84 -41 -161q0 -71 34 -123q40 -62 115 -72q25 -3 58 -3q194 0 355 136t161 304
zM508 828q14 9 36 -4q12 -8 99 -48q12 -7 35 -19q5 -2 12 -8q6 -9 -11 -9q-19 0 -64 17q-35 12 -96 37q-11 6 -16 13q-8 13 5 21z" />
    <glyph glyph-name="Oacute" unicode="&#xd3;" horiz-adv-x="816" 
d="M871 389q0 -181 -168.5 -325t-377.5 -144q-33 0 -63 4q-86 10 -135 82q-43 63 -43 144q0 83 42 169q109 222 345 312l-1 4q-202 -8 -326 -85q-74 -45 -74 -121q0 -14 -17 -14q-16 0 -16 14q0 90 87 143q73 44 185 69q101 22 200 22q31 0 60 -2q62 15 119 15q32 0 66 -11
q45 -13 45 -37q0 -13 -17 -13q-9 0 -16 11q-14 22 -82 22h-7q-5 -1 -7 -1l-1 -4q97 -28 149.5 -96t52.5 -158zM840 389q0 104 -72.5 168t-193.5 75q-143 -32 -250.5 -117.5t-165.5 -206.5q-41 -84 -41 -161q0 -71 34 -123q40 -62 115 -72q25 -3 58 -3q194 0 355 136t161 304
zM843 817q0 -17 -23 -29q-13 -7 -94 -59q-11 -6 -34 -19q-10 -6 -13 -6q-5 0 -5 4q0 16 52 55q28 24 82 62q11 6 19 6q16 0 16 -14z" />
    <glyph glyph-name="Ocircumflex" unicode="&#xd4;" horiz-adv-x="816" 
d="M871 389q0 -181 -168.5 -325t-377.5 -144q-33 0 -63 4q-86 10 -135 82q-43 63 -43 144q0 83 42 169q109 222 345 312l-1 4q-202 -8 -326 -85q-74 -45 -74 -121q0 -14 -17 -14q-16 0 -16 14q0 90 87 143q73 44 185 69q101 22 200 22q31 0 60 -2q62 15 119 15q32 0 66 -11
q45 -13 45 -37q0 -13 -17 -13q-9 0 -16 11q-14 22 -82 22h-7q-5 -1 -7 -1l-1 -4q97 -28 149.5 -96t52.5 -158zM840 389q0 104 -72.5 168t-193.5 75q-143 -32 -250.5 -117.5t-165.5 -206.5q-41 -84 -41 -161q0 -71 34 -123q40 -62 115 -72q25 -3 58 -3q194 0 355 136t161 304
zM852 769q2 -3 2 -7q0 -20 -19 -20q-5 0 -9 5q-19 24 -39 47q-22 29 -33 52q-96 -52 -129 -87q-6 -7 -13 -7q-12 0 -12 12q0 7 6 13q15 17 71 56q67 48 90 48q7 0 10 -6q10 -26 34 -56q20 -25 41 -50z" />
    <glyph glyph-name="Otilde" unicode="&#xd5;" horiz-adv-x="816" 
d="M871 389q0 -181 -168.5 -325t-377.5 -144q-33 0 -63 4q-86 10 -135 82q-43 63 -43 144q0 83 42 169q109 222 345 312l-1 4q-202 -8 -326 -85q-74 -45 -74 -121q0 -14 -17 -14q-16 0 -16 14q0 90 87 143q73 44 185 69q101 22 200 22q31 0 60 -2q62 15 119 15q32 0 66 -11
q45 -13 45 -37q0 -13 -17 -13q-9 0 -16 11q-14 22 -82 22h-7q-5 -1 -7 -1l-1 -4q97 -28 149.5 -96t52.5 -158zM840 389q0 104 -72.5 168t-193.5 75q-143 -32 -250.5 -117.5t-165.5 -206.5q-41 -84 -41 -161q0 -71 34 -123q40 -62 115 -72q25 -3 58 -3q194 0 355 136t161 304
zM799 796q0 -13 -21.5 -24t-35.5 -11q-30 0 -60 23t-47 23q-37 0 -55 -19t-20 -19q-17 0 -17 15q0 3 2 7q23 45 88 45q20 0 52.5 -22.5t56.5 -22.5q14 0 26.5 9.5t16.5 9.5q14 0 14 -14z" />
    <glyph glyph-name="Odieresis" unicode="&#xd6;" horiz-adv-x="816" 
d="M871 389q0 -181 -168.5 -325t-377.5 -144q-33 0 -63 4q-86 10 -135 82q-43 63 -43 144q0 83 42 169q109 222 345 312l-1 4q-202 -8 -326 -85q-74 -45 -74 -121q0 -14 -17 -14q-16 0 -16 14q0 90 87 143q73 44 185 69q101 22 200 22q31 0 60 -2q62 15 119 15q32 0 66 -11
q45 -13 45 -37q0 -13 -17 -13q-9 0 -16 11q-14 22 -82 22h-7q-5 -1 -7 -1l-1 -4q97 -28 149.5 -96t52.5 -158zM840 389q0 104 -72.5 168t-193.5 75q-143 -32 -250.5 -117.5t-165.5 -206.5q-41 -84 -41 -161q0 -71 34 -123q40 -62 115 -72q25 -3 58 -3q194 0 355 136t161 304
zM816 806q0 -35 -35 -35q-34 0 -34 35t34 35q35 0 35 -35zM705 806q0 -35 -35 -35q-34 0 -34 35t34 35q35 0 35 -35z" />
    <glyph glyph-name="Ugrave" unicode="&#xd9;" horiz-adv-x="769" 
d="M881 522q0 -27 -44 -99q-134 -222 -162 -385q-3 -16 -3 -25q0 -28 25 -28q7 0 19 3.5t18 3.5q9 0 9 -8q0 -12 -23 -20q-19 -5 -36 -5q-45 0 -45 54q0 72 54 203l-4 2q-176 -226 -297 -226q-63 0 -63 69q0 73 60 193q47 88 95 176q72 135 72 166q0 57 -89 57
q-106 0 -221 -63q-84 -46 -145 -108q-77 -79 -77 -148q0 -60 91 -60q46 0 85 17q5 2 9 2q18 0 18 -15t-51 -25q-39 -8 -65 -8q-117 0 -117 93q0 55 34 105q60 91 208 172q115 63 235 63q49 0 81 -17q39 -21 39 -61q0 -32 -74 -174q-48 -91 -97 -183q-60 -121 -60 -175
q0 -45 40 -45q153 0 407 433q45 77 67 77q7 0 7 -11zM625 753q14 9 36 -4q12 -8 99 -48q12 -7 35 -19q5 -2 12 -8q6 -9 -11 -9q-19 0 -64 17q-35 12 -96 37q-11 6 -16 13q-8 13 5 21z" />
    <glyph glyph-name="Uacute" unicode="&#xda;" horiz-adv-x="769" 
d="M881 522q0 -27 -44 -99q-134 -222 -162 -385q-3 -16 -3 -25q0 -28 25 -28q7 0 19 3.5t18 3.5q9 0 9 -8q0 -12 -23 -20q-19 -5 -36 -5q-45 0 -45 54q0 72 54 203l-4 2q-176 -226 -297 -226q-63 0 -63 69q0 73 60 193q47 88 95 176q72 135 72 166q0 57 -89 57
q-106 0 -221 -63q-84 -46 -145 -108q-77 -79 -77 -148q0 -60 91 -60q46 0 85 17q5 2 9 2q18 0 18 -15t-51 -25q-39 -8 -65 -8q-117 0 -117 93q0 55 34 105q60 91 208 172q115 63 235 63q49 0 81 -17q39 -21 39 -61q0 -32 -74 -174q-48 -91 -97 -183q-60 -121 -60 -175
q0 -45 40 -45q153 0 407 433q45 77 67 77q7 0 7 -11zM875 702q0 -17 -23 -29q-13 -7 -94 -59q-11 -6 -34 -19q-10 -6 -13 -6q-5 0 -5 4q0 16 52 55q28 24 82 62q11 6 19 6q16 0 16 -14z" />
    <glyph glyph-name="Ucircumflex" unicode="&#xdb;" horiz-adv-x="769" 
d="M881 522q0 -27 -44 -99q-134 -222 -162 -385q-3 -16 -3 -25q0 -28 25 -28q7 0 19 3.5t18 3.5q9 0 9 -8q0 -12 -23 -20q-19 -5 -36 -5q-45 0 -45 54q0 72 54 203l-4 2q-176 -226 -297 -226q-63 0 -63 69q0 73 60 193q47 88 95 176q72 135 72 166q0 57 -89 57
q-106 0 -221 -63q-84 -46 -145 -108q-77 -79 -77 -148q0 -60 91 -60q46 0 85 17q5 2 9 2q18 0 18 -15t-51 -25q-39 -8 -65 -8q-117 0 -117 93q0 55 34 105q60 91 208 172q115 63 235 63q49 0 81 -17q39 -21 39 -61q0 -32 -74 -174q-48 -91 -97 -183q-60 -121 -60 -175
q0 -45 40 -45q153 0 407 433q45 77 67 77q7 0 7 -11zM874 619q2 -3 2 -7q0 -20 -19 -20q-5 0 -9 5q-19 24 -39 47q-22 29 -33 52q-96 -52 -129 -87q-6 -7 -13 -7q-12 0 -12 12q0 7 6 13q15 17 71 56q67 48 90 48q7 0 10 -6q10 -26 34 -56q20 -25 41 -50z" />
    <glyph glyph-name="Udieresis" unicode="&#xdc;" horiz-adv-x="769" 
d="M881 522q0 -27 -44 -99q-134 -222 -162 -385q-3 -16 -3 -25q0 -28 25 -28q7 0 19 3.5t18 3.5q9 0 9 -8q0 -12 -23 -20q-19 -5 -36 -5q-45 0 -45 54q0 72 54 203l-4 2q-176 -226 -297 -226q-63 0 -63 69q0 73 60 193q47 88 95 176q72 135 72 166q0 57 -89 57
q-106 0 -221 -63q-84 -46 -145 -108q-77 -79 -77 -148q0 -60 91 -60q46 0 85 17q5 2 9 2q18 0 18 -15t-51 -25q-39 -8 -65 -8q-117 0 -117 93q0 55 34 105q60 91 208 172q115 63 235 63q49 0 81 -17q39 -21 39 -61q0 -32 -74 -174q-48 -91 -97 -183q-60 -121 -60 -175
q0 -45 40 -45q153 0 407 433q45 77 67 77q7 0 7 -11zM841 625q0 -35 -35 -35q-34 0 -34 35t34 35q35 0 35 -35zM730 625q0 -35 -35 -35q-34 0 -34 35t34 35q35 0 35 -35z" />
    <glyph glyph-name="Yacute" unicode="&#xdd;" horiz-adv-x="827" 
d="M888 -126q0 -15 -16 -15q-10 0 -33 5q-28 7 -35 8q-67 9 -129 9q-44 0 -87 -4q-190 -225 -385 -225q-42 0 -71 12q-38 16 -38 49q0 48 111 104q141 71 364 90q38 47 65 96q56 104 139 306l-4 1q-221 -309 -374 -309q-91 0 -91 90q0 79 58 174q48 75 136 228q38 77 38 104
q0 40 -69 40q-78 0 -203 -60q-64 -31 -128 -98q-71 -75 -71 -130q0 -31 29 -48q24 -14 62 -14q52 0 92 21q6 3 11 3q17 0 17 -15q0 -17 -51 -28q-39 -9 -66 -9q-52 0 -86 21q-39 24 -39 67q0 65 74 147q66 73 140 108q126 60 221 60q98 0 98 -58q0 -44 -38 -122
q-24 -49 -66 -117l-72 -114q-62 -101 -62 -161t70 -60q83 0 196 114q98 100 216 288q7 13 24 37q12 15 22 15q15 0 15 -17q0 -5 -3 -12q-22 -59 -88 -215q-55 -129 -74 -169q-45 -95 -92 -161q24 1 47 1q150 0 213 -22q13 -4 13 -15zM543 -128q-186 -13 -321 -80
q-92 -46 -92 -81q0 -34 59 -34q47 0 113 21q117 37 241 174zM849 665q0 -17 -23 -29q-13 -7 -94 -59q-11 -6 -34 -19q-10 -6 -13 -6q-5 0 -5 4q0 16 52 55q28 24 82 62q11 6 19 6q16 0 16 -14z" />
    <glyph glyph-name="germandbls" unicode="&#xdf;" horiz-adv-x="617" 
d="M541 301q43 -23 43 -65q0 -91 -155 -212q-151 -118 -255 -118q-28 0 -28 23q0 54 115 123q108 64 167 64q15 0 15 -5q-3 -3 -9 -5q-63 -21 -135 -60q-98 -54 -109 -95q-3 -13 17 -13q37 0 124 54t152 119q74 75 74 124q0 35 -39 52q-55 -30 -131 -63q-97 -43 -129 -43
q-16 0 -31.5 15t-11.5 30q12 46 88 75q67 27 144 27q42 0 69 -10q59 30 121.5 97.5t77.5 123.5q6 23 6 42q0 76 -85 76q-63 0 -142 -45q-84 -50 -150 -134q-46 -59 -198 -363q-148 -297 -181 -335q-21 -24 -32 -24q-3 0 -3 3t5 10q28 42 166 331q135 283 214 397
q61 87 159 140q90 49 170 49q115 0 115 -92q0 -75 -76 -170q-69 -88 -142 -123zM490 303q-12 4 -31 4q-58 0 -127 -25q-74 -27 -82 -56q-3 -14 14 -14q30 0 113 36q64 28 113 55z" />
    <glyph glyph-name="agrave" unicode="&#xe0;" horiz-adv-x="349" 
d="M416 169q0 -16 -79 -119q-46 -61 -88 -61q-7 0 -14 1q-35 6 -35 41q0 14 9 56l-4 3q-27 -31 -67 -62q-53 -42 -82 -42q-58 0 -58 60t40.5 131t89.5 113q55 47 109 47q44 0 68 -25q20 -22 20 -55q0 -15 -7 -35q-8 -23 -19 -23q-7 0 -13 7t-4 14q12 32 12 45q0 48 -55 48
q-44 0 -90 -43q-48 -47 -82 -110.5t-34 -109.5q0 -34 29 -34t86 56q42 41 70 79q7 12 23 35q3 4 12 4t17 -5t6 -12q-43 -89 -43 -130q0 -26 16 -30q21 -4 62 50q26 39 77 113q6 8 14 8q14 0 14 -15zM111 474q14 9 36 -4q12 -8 99 -48q12 -7 35 -19q5 -2 12 -8q6 -9 -11 -9
q-19 0 -64 17q-35 12 -96 37q-11 6 -16 13q-8 13 5 21z" />
    <glyph glyph-name="aacute" unicode="&#xe1;" horiz-adv-x="349" 
d="M416 169q0 -16 -79 -119q-46 -61 -88 -61q-7 0 -14 1q-35 6 -35 41q0 14 9 56l-4 3q-27 -31 -67 -62q-53 -42 -82 -42q-58 0 -58 60t40.5 131t89.5 113q55 47 109 47q44 0 68 -25q20 -22 20 -55q0 -15 -7 -35q-8 -23 -19 -23q-7 0 -13 7t-4 14q12 32 12 45q0 48 -55 48
q-44 0 -90 -43q-48 -47 -82 -110.5t-34 -109.5q0 -34 29 -34t86 56q42 41 70 79q7 12 23 35q3 4 12 4t17 -5t6 -12q-43 -89 -43 -130q0 -26 16 -30q21 -4 62 50q26 39 77 113q6 8 14 8q14 0 14 -15zM416 495q0 -17 -23 -29q-13 -7 -94 -59q-11 -6 -34 -19q-10 -6 -13 -6
q-5 0 -5 4q0 16 52 55q28 24 82 62q11 6 19 6q16 0 16 -14z" />
    <glyph glyph-name="acircumflex" unicode="&#xe2;" horiz-adv-x="349" 
d="M416 169q0 -16 -79 -119q-46 -61 -88 -61q-7 0 -14 1q-35 6 -35 41q0 14 9 56l-4 3q-27 -31 -67 -62q-53 -42 -82 -42q-58 0 -58 60t40.5 131t89.5 113q55 47 109 47q44 0 68 -25q20 -22 20 -55q0 -15 -7 -35q-8 -23 -19 -23q-7 0 -13 7t-4 14q12 32 12 45q0 48 -55 48
q-44 0 -90 -43q-48 -47 -82 -110.5t-34 -109.5q0 -34 29 -34t86 56q42 41 70 79q7 12 23 35q3 4 12 4t17 -5t6 -12q-43 -89 -43 -130q0 -26 16 -30q21 -4 62 50q26 39 77 113q6 8 14 8q14 0 14 -15zM363 403q2 -3 2 -7q0 -20 -19 -20q-5 0 -9 5q-19 24 -39 47q-22 29 -33 52
q-96 -52 -129 -87q-6 -7 -13 -7q-12 0 -12 12q0 7 6 13q15 17 71 56q67 48 90 48q7 0 10 -6q10 -26 34 -56q20 -25 41 -50z" />
    <glyph glyph-name="atilde" unicode="&#xe3;" horiz-adv-x="349" 
d="M416 169q0 -16 -79 -119q-46 -61 -88 -61q-7 0 -14 1q-35 6 -35 41q0 14 9 56l-4 3q-27 -31 -67 -62q-53 -42 -82 -42q-58 0 -58 60t40.5 131t89.5 113q55 47 109 47q44 0 68 -25q20 -22 20 -55q0 -15 -7 -35q-8 -23 -19 -23q-7 0 -13 7t-4 14q12 32 12 45q0 48 -55 48
q-44 0 -90 -43q-48 -47 -82 -110.5t-34 -109.5q0 -34 29 -34t86 56q42 41 70 79q7 12 23 35q3 4 12 4t17 -5t6 -12q-43 -89 -43 -130q0 -26 16 -30q21 -4 62 50q26 39 77 113q6 8 14 8q14 0 14 -15zM377 439q0 -13 -21.5 -24t-35.5 -11q-30 0 -60 23t-47 23q-37 0 -55 -19
t-20 -19q-17 0 -17 15q0 3 2 7q23 45 88 45q20 0 52.5 -22.5t56.5 -22.5q14 0 26.5 9.5t16.5 9.5q14 0 14 -14z" />
    <glyph glyph-name="adieresis" unicode="&#xe4;" horiz-adv-x="349" 
d="M416 169q0 -16 -79 -119q-46 -61 -88 -61q-7 0 -14 1q-35 6 -35 41q0 14 9 56l-4 3q-27 -31 -67 -62q-53 -42 -82 -42q-58 0 -58 60t40.5 131t89.5 113q55 47 109 47q44 0 68 -25q20 -22 20 -55q0 -15 -7 -35q-8 -23 -19 -23q-7 0 -13 7t-4 14q12 32 12 45q0 48 -55 48
q-44 0 -90 -43q-48 -47 -82 -110.5t-34 -109.5q0 -34 29 -34t86 56q42 41 70 79q7 12 23 35q3 4 12 4t17 -5t6 -12q-43 -89 -43 -130q0 -26 16 -30q21 -4 62 50q26 39 77 113q6 8 14 8q14 0 14 -15zM362 429q0 -35 -35 -35q-34 0 -34 35t34 35q35 0 35 -35zM251 429
q0 -35 -35 -35q-34 0 -34 35t34 35q35 0 35 -35z" />
    <glyph glyph-name="aring" unicode="&#xe5;" horiz-adv-x="349" 
d="M416 169q0 -16 -79 -119q-46 -61 -88 -61q-7 0 -14 1q-35 6 -35 41q0 14 9 56l-4 3q-27 -31 -67 -62q-53 -42 -82 -42q-58 0 -58 60t40.5 131t89.5 113q55 47 109 47q44 0 68 -25q20 -22 20 -55q0 -15 -7 -35q-8 -23 -19 -23q-7 0 -13 7t-4 14q12 32 12 45q0 48 -55 48
q-44 0 -90 -43q-48 -47 -82 -110.5t-34 -109.5q0 -34 29 -34t86 56q42 41 70 79q7 12 23 35q3 4 12 4t17 -5t6 -12q-43 -89 -43 -130q0 -26 16 -30q21 -4 62 50q26 39 77 113q6 8 14 8q14 0 14 -15zM375 427q0 -26 -29.5 -51t-54.5 -25t-41 19.5t-16 44.5q0 35 24 57
q22 19 52 19q27 0 46 -17t19 -47zM351 427q0 40 -42 40q-20 0 -35.5 -14t-15.5 -38q0 -17 10 -28.5t23 -11.5q17 0 38.5 18.5t21.5 33.5z" />
    <glyph glyph-name="ccedilla" unicode="&#xe7;" horiz-adv-x="281" 
d="M346 162q-53 -84 -94 -124q-62 -58 -130 -58q-49 0 -78 34q-26 30 -26 75q0 46 29 97q33 59 78 101q60 57 119 57q55 0 55 -56q0 -20 -14 -53q-17 -39 -36 -39q-16 0 -16 14q0 -2 16 25.5t16 49.5q0 29 -26 29q-45 0 -97 -54q-39 -40 -66 -88q-21 -39 -21 -77
q0 -86 69 -86q56 0 105 49q37 37 93 120q5 7 12 7q15 0 15 -15q0 -4 -3 -8zM73 -60q66 3 100 -15q31 -15 31 -43q0 -36 -47 -67q-50 -33 -120 -33q-17 0 -35 2q-27 4 -27 18q0 11 14 11q7 0 22 -4t23 -4q52 0 102 29.5t37 53.5q-15 29 -120 28q-11 -1 -11 7q0 9 17 31
q10 12 20 25q4 6 10 6q7 0 7 -8q0 -3 -23 -37z" />
    <glyph glyph-name="egrave" unicode="&#xe8;" horiz-adv-x="269" 
d="M333 162q-53 -84 -95 -124q-61 -58 -129 -58q-93 0 -93 102q0 70 57 153q62 93 136 93q25 0 41 -14.5t16 -36.5q0 -64 -58.5 -117t-130.5 -53q-12 0 -24 2q-3 -16 -3 -31q0 -69 61 -69q56 0 105 49q37 37 93 120q4 7 12 7q14 0 14 -15q0 -4 -2 -8zM232 273q0 25 -24 25
q-46 0 -93 -62q-36 -46 -53 -96q10 -2 22 -2q56 0 102 43t46 92zM81 462q14 9 36 -4q12 -8 99 -48q12 -7 35 -19q5 -2 12 -8q6 -9 -11 -9q-19 0 -64 17q-35 12 -96 37q-11 6 -16 13q-8 13 5 21z" />
    <glyph glyph-name="eacute" unicode="&#xe9;" horiz-adv-x="269" 
d="M333 162q-53 -84 -95 -124q-61 -58 -129 -58q-93 0 -93 102q0 70 57 153q62 93 136 93q25 0 41 -14.5t16 -36.5q0 -64 -58.5 -117t-130.5 -53q-12 0 -24 2q-3 -16 -3 -31q0 -69 61 -69q56 0 105 49q37 37 93 120q4 7 12 7q14 0 14 -15q0 -4 -2 -8zM232 273q0 25 -24 25
q-46 0 -93 -62q-36 -46 -53 -96q10 -2 22 -2q56 0 102 43t46 92zM386 495q0 -17 -23 -29q-13 -7 -94 -59q-11 -6 -34 -19q-10 -6 -13 -6q-5 0 -5 4q0 16 52 55q28 24 82 62q11 6 19 6q16 0 16 -14z" />
    <glyph glyph-name="ecircumflex" unicode="&#xea;" horiz-adv-x="269" 
d="M333 162q-53 -84 -95 -124q-61 -58 -129 -58q-93 0 -93 102q0 70 57 153q62 93 136 93q25 0 41 -14.5t16 -36.5q0 -64 -58.5 -117t-130.5 -53q-12 0 -24 2q-3 -16 -3 -31q0 -69 61 -69q56 0 105 49q37 37 93 120q4 7 12 7q14 0 14 -15q0 -4 -2 -8zM232 273q0 25 -24 25
q-46 0 -93 -62q-36 -46 -53 -96q10 -2 22 -2q56 0 102 43t46 92zM360 391q2 -3 2 -7q0 -20 -19 -20q-5 0 -9 5q-19 24 -39 47q-22 29 -33 52q-96 -52 -129 -87q-6 -7 -13 -7q-12 0 -12 12q0 7 6 13q15 17 71 56q67 48 90 48q7 0 10 -6q10 -26 34 -56q20 -25 41 -50z" />
    <glyph glyph-name="edieresis" unicode="&#xeb;" horiz-adv-x="269" 
d="M333 162q-53 -84 -95 -124q-61 -58 -129 -58q-93 0 -93 102q0 70 57 153q62 93 136 93q25 0 41 -14.5t16 -36.5q0 -64 -58.5 -117t-130.5 -53q-12 0 -24 2q-3 -16 -3 -31q0 -69 61 -69q56 0 105 49q37 37 93 120q4 7 12 7q14 0 14 -15q0 -4 -2 -8zM232 273q0 25 -24 25
q-46 0 -93 -62q-36 -46 -53 -96q10 -2 22 -2q56 0 102 43t46 92zM305 414q0 -35 -35 -35q-34 0 -34 35t34 35q35 0 35 -35zM194 414q0 -35 -35 -35q-34 0 -34 35t34 35q35 0 35 -35z" />
    <glyph glyph-name="igrave" unicode="&#xec;" horiz-adv-x="208" 
d="M274 172q0 -20 -50 -83q-46 -56 -70 -76q-31 -24 -73 -24q-74 0 -74 72q0 36 15 78q14 36 46 91q41 68 61 68q22 0 22 -14q0 -4 -4 -10q-107 -121 -107 -214q0 -46 44 -46q43 0 94 63q35 50 69 100q6 7 15 7q12 0 12 -12zM36 454q14 9 36 -4q12 -8 99 -48q12 -7 35 -19
q5 -2 12 -8q6 -9 -11 -9q-19 0 -64 17q-35 12 -96 37q-11 6 -16 13q-8 13 5 21z" />
    <glyph glyph-name="iacute" unicode="&#xed;" horiz-adv-x="208" 
d="M274 172q0 -20 -50 -83q-46 -56 -70 -76q-31 -24 -73 -24q-74 0 -74 72q0 36 15 78q14 36 46 91q41 68 61 68q22 0 22 -14q0 -4 -4 -10q-107 -121 -107 -214q0 -46 44 -46q43 0 94 63q35 50 69 100q6 7 15 7q12 0 12 -12zM334 477q0 -17 -23 -29q-13 -7 -94 -59
q-11 -6 -34 -19q-10 -6 -13 -6q-5 0 -5 4q0 16 52 55q28 24 82 62q11 6 19 6q16 0 16 -14z" />
    <glyph glyph-name="icircumflex" unicode="&#xee;" horiz-adv-x="208" 
d="M274 172q0 -20 -50 -83q-46 -56 -70 -76q-31 -24 -73 -24q-74 0 -74 72q0 36 15 78q14 36 46 91q41 68 61 68q22 0 22 -14q0 -4 -4 -10q-107 -121 -107 -214q0 -46 44 -46q43 0 94 63q35 50 69 100q6 7 15 7q12 0 12 -12zM307 386q2 -3 2 -7q0 -20 -19 -20q-5 0 -9 5
q-19 24 -39 47q-22 29 -33 52q-96 -52 -129 -87q-6 -7 -13 -7q-12 0 -12 12q0 7 6 13q15 17 71 56q67 48 90 48q7 0 10 -6q10 -26 34 -56q20 -25 41 -50z" />
    <glyph glyph-name="idieresis" unicode="&#xef;" horiz-adv-x="208" 
d="M274 172q0 -20 -50 -83q-46 -56 -70 -76q-31 -24 -73 -24q-74 0 -74 72q0 36 15 78q14 36 46 91q41 68 61 68q22 0 22 -14q0 -4 -4 -10q-107 -121 -107 -214q0 -46 44 -46q43 0 94 63q35 50 69 100q6 7 15 7q12 0 12 -12zM272 426q0 -35 -35 -35q-34 0 -34 35t34 35
q35 0 35 -35zM161 426q0 -35 -35 -35q-34 0 -34 35t34 35q35 0 35 -35z" />
    <glyph glyph-name="ntilde" unicode="&#xf1;" horiz-adv-x="461" 
d="M528 170q0 -22 -71 -105q-27 -32 -60 -50.5t-67 -14.5q-48 6 -48 45q0 42 59 125q37 50 75 100q4 5 4 10q0 8 -12 8q-7 0 -14 -3q-59 -25 -128 -85q-64 -57 -99 -109q-22 -33 -40 -63q-5 -12 -18 -33q-6 -8 -15 -8q-17 0 -17 11q0 7 3 14l64 132q42 90 42 123
q0 17 -13 17q-20 0 -59 -53q-28 -45 -98 -141q-7 -9 -16 -9q-6 0 -10.5 6t-1.5 11q72 114 102 152q26 34 35 42q23 20 51 20q48 0 48 -50q0 -42 -23 -80l3 -3q36 42 107 89q64 43 98 52q25 7 36 7q23 0 23 -24q0 -18 -62 -97q-68 -88 -81 -128q-5 -14 -5 -25q0 -26 25 -26
q18 0 40 15q29 19 48 41q27 31 68 92q6 9 16 9q11 0 11 -14zM525 429q0 -13 -21.5 -24t-35.5 -11q-30 0 -60 23t-47 23q-37 0 -55 -19t-20 -19q-17 0 -17 15q0 3 2 7q23 45 88 45q20 0 52.5 -22.5t56.5 -22.5q14 0 26.5 9.5t16.5 9.5q14 0 14 -14z" />
    <glyph glyph-name="ograve" unicode="&#xf2;" horiz-adv-x="342" 
d="M409 171q0 -4 -2 -7q-25 -44 -48 -71q-56 -68 -150 -72q-56 -54 -115 -54q-37 0 -57 30q-17 24 -17 57q0 53 25 94q-1 6 -1 13q0 29 8 56q14 53 59.5 90t105.5 37q47 0 73.5 -25t26.5 -67q0 -51 -21 -99q-13 -29 -50 -86q2 -4 9 -4q58 0 125 111q6 9 14 10q13 1 15 -13z
M284 248q0 70 -67 70q-47 0 -89 -36l3 -4q3 1 6 1q16 0 16 -14q0 -4 -4 -9q-25 -35 -70 -111q8 -38 37.5 -62t73.5 -24h10q84 101 84 189zM174 31q-75 7 -112 67q-7 -29 -7 -48q0 -55 45 -55q31 0 74 36zM103 489q14 9 36 -4q12 -8 99 -48q12 -7 35 -19q5 -2 12 -8
q6 -9 -11 -9q-19 0 -64 17q-35 12 -96 37q-11 6 -16 13q-8 13 5 21z" />
    <glyph glyph-name="oacute" unicode="&#xf3;" horiz-adv-x="342" 
d="M409 171q0 -4 -2 -7q-25 -44 -48 -71q-56 -68 -150 -72q-56 -54 -115 -54q-37 0 -57 30q-17 24 -17 57q0 53 25 94q-1 6 -1 13q0 29 8 56q14 53 59.5 90t105.5 37q47 0 73.5 -25t26.5 -67q0 -51 -21 -99q-13 -29 -50 -86q2 -4 9 -4q58 0 125 111q6 9 14 10q13 1 15 -13z
M284 248q0 70 -67 70q-47 0 -89 -36l3 -4q3 1 6 1q16 0 16 -14q0 -4 -4 -9q-25 -35 -70 -111q8 -38 37.5 -62t73.5 -24h10q84 101 84 189zM174 31q-75 7 -112 67q-7 -29 -7 -48q0 -55 45 -55q31 0 74 36zM386 495q0 -17 -23 -29q-13 -7 -94 -59q-11 -6 -34 -19
q-10 -6 -13 -6q-5 0 -5 4q0 16 52 55q28 24 82 62q11 6 19 6q16 0 16 -14z" />
    <glyph glyph-name="ocircumflex" unicode="&#xf4;" horiz-adv-x="342" 
d="M409 171q0 -4 -2 -7q-25 -44 -48 -71q-56 -68 -150 -72q-56 -54 -115 -54q-37 0 -57 30q-17 24 -17 57q0 53 25 94q-1 6 -1 13q0 29 8 56q14 53 59.5 90t105.5 37q47 0 73.5 -25t26.5 -67q0 -51 -21 -99q-13 -29 -50 -86q2 -4 9 -4q58 0 125 111q6 9 14 10q13 1 15 -13z
M284 248q0 70 -67 70q-47 0 -89 -36l3 -4q3 1 6 1q16 0 16 -14q0 -4 -4 -9q-25 -35 -70 -111q8 -38 37.5 -62t73.5 -24h10q84 101 84 189zM174 31q-75 7 -112 67q-7 -29 -7 -48q0 -55 45 -55q31 0 74 36zM377 396q2 -3 2 -7q0 -20 -19 -20q-5 0 -9 5q-19 24 -39 47
q-22 29 -33 52q-96 -52 -129 -87q-6 -7 -13 -7q-12 0 -12 12q0 7 6 13q15 17 71 56q67 48 90 48q7 0 10 -6q10 -26 34 -56q20 -25 41 -50z" />
    <glyph glyph-name="otilde" unicode="&#xf5;" horiz-adv-x="342" 
d="M409 171q0 -4 -2 -7q-25 -44 -48 -71q-56 -68 -150 -72q-56 -54 -115 -54q-37 0 -57 30q-17 24 -17 57q0 53 25 94q-1 6 -1 13q0 29 8 56q14 53 59.5 90t105.5 37q47 0 73.5 -25t26.5 -67q0 -51 -21 -99q-13 -29 -50 -86q2 -4 9 -4q58 0 125 111q6 9 14 10q13 1 15 -13z
M284 248q0 70 -67 70q-47 0 -89 -36l3 -4q3 1 6 1q16 0 16 -14q0 -4 -4 -9q-25 -35 -70 -111q8 -38 37.5 -62t73.5 -24h10q84 101 84 189zM174 31q-75 7 -112 67q-7 -29 -7 -48q0 -55 45 -55q31 0 74 36zM363 432q0 -13 -21.5 -24t-35.5 -11q-30 0 -60 23t-47 23
q-37 0 -55 -19t-20 -19q-17 0 -17 15q0 3 2 7q23 45 88 45q20 0 52.5 -22.5t56.5 -22.5q14 0 26.5 9.5t16.5 9.5q14 0 14 -14z" />
    <glyph glyph-name="odieresis" unicode="&#xf6;" horiz-adv-x="342" 
d="M409 171q0 -4 -2 -7q-25 -44 -48 -71q-56 -68 -150 -72q-56 -54 -115 -54q-37 0 -57 30q-17 24 -17 57q0 53 25 94q-1 6 -1 13q0 29 8 56q14 53 59.5 90t105.5 37q47 0 73.5 -25t26.5 -67q0 -51 -21 -99q-13 -29 -50 -86q2 -4 9 -4q58 0 125 111q6 9 14 10q13 1 15 -13z
M284 248q0 70 -67 70q-47 0 -89 -36l3 -4q3 1 6 1q16 0 16 -14q0 -4 -4 -9q-25 -35 -70 -111q8 -38 37.5 -62t73.5 -24h10q84 101 84 189zM174 31q-75 7 -112 67q-7 -29 -7 -48q0 -55 45 -55q31 0 74 36zM339 434q0 -35 -35 -35q-34 0 -34 35t34 35q35 0 35 -35zM228 434
q0 -35 -35 -35q-34 0 -34 35t34 35q35 0 35 -35z" />
    <glyph glyph-name="divide" unicode="&#xf7;" horiz-adv-x="513" 
d="M524 257q0 -5 -16 -6q-11 -1 -31 -1q-26 2 -23 2q-97 0 -212 -21q-54 -10 -84 -28q-6 -4 -12 -4q-23 0 -23 20q0 26 116 43q89 14 146 14q77 0 131 -14q8 -2 8 -5zM269 110q-25 0 -25 12t28 38.5t47 26.5q9 0 9 -8q0 -4 -5 -9q-17 -18 -35 -51q-5 -9 -19 -9zM349 333
q-25 0 -25 12t28 38.5t47 26.5q9 0 9 -8q0 -4 -5 -9q-17 -17 -35 -51q-5 -9 -19 -9z" />
    <glyph glyph-name="ugrave" unicode="&#xf9;" horiz-adv-x="356" 
d="M412 171q0 -5 -3 -9l-62 -94q-39 -56 -73 -85q-18 -15 -45 -15q-45 0 -45 45t52 137l-5 1q-35 -43 -58 -68q-45 -49 -81 -72q-32 -22 -56 -22q-37 0 -37 43q0 20 10 43q31 75 50 113q31 67 59 109q6 9 15 9q18 0 18 -14q0 -3 -2 -6q-6 -13 -98 -194q-16 -32 -16 -53
q0 -19 13 -19q6 0 13 4q33 18 98 87q25 26 54 61q47 60 102 131q7 8 24 8q21 0 21 -15q0 -12 -32 -59l-42 -60q-17 -28 -38 -72q-31 -62 -31 -89q0 -18 15 -18q26 0 80 75q36 51 71 103q4 6 12 7q15 1 17 -12zM138 457q14 9 36 -4q12 -8 99 -48q12 -7 35 -19q5 -2 12 -8
q6 -9 -11 -9q-19 0 -64 17q-35 12 -96 37q-11 6 -16 13q-8 13 5 21z" />
    <glyph glyph-name="uacute" unicode="&#xfa;" horiz-adv-x="356" 
d="M412 171q0 -5 -3 -9l-62 -94q-39 -56 -73 -85q-18 -15 -45 -15q-45 0 -45 45t52 137l-5 1q-35 -43 -58 -68q-45 -49 -81 -72q-32 -22 -56 -22q-37 0 -37 43q0 20 10 43q31 75 50 113q31 67 59 109q6 9 15 9q18 0 18 -14q0 -3 -2 -6q-6 -13 -98 -194q-16 -32 -16 -53
q0 -19 13 -19q6 0 13 4q33 18 98 87q25 26 54 61q47 60 102 131q7 8 24 8q21 0 21 -15q0 -12 -32 -59l-42 -60q-17 -28 -38 -72q-31 -62 -31 -89q0 -18 15 -18q26 0 80 75q36 51 71 103q4 6 12 7q15 1 17 -12zM374 457q0 -17 -23 -29q-13 -7 -94 -59q-11 -6 -34 -19
q-10 -6 -13 -6q-5 0 -5 4q0 16 52 55q28 24 82 62q11 6 19 6q16 0 16 -14z" />
    <glyph glyph-name="ucircumflex" unicode="&#xfb;" horiz-adv-x="356" 
d="M412 171q0 -5 -3 -9l-62 -94q-39 -56 -73 -85q-18 -15 -45 -15q-45 0 -45 45t52 137l-5 1q-35 -43 -58 -68q-45 -49 -81 -72q-32 -22 -56 -22q-37 0 -37 43q0 20 10 43q31 75 50 113q31 67 59 109q6 9 15 9q18 0 18 -14q0 -3 -2 -6q-6 -13 -98 -194q-16 -32 -16 -53
q0 -19 13 -19q6 0 13 4q33 18 98 87q25 26 54 61q47 60 102 131q7 8 24 8q21 0 21 -15q0 -12 -32 -59l-42 -60q-17 -28 -38 -72q-31 -62 -31 -89q0 -18 15 -18q26 0 80 75q36 51 71 103q4 6 12 7q15 1 17 -12zM400 383q2 -3 2 -7q0 -20 -19 -20q-5 0 -9 5q-19 24 -39 47
q-22 29 -33 52q-96 -52 -129 -87q-6 -7 -13 -7q-12 0 -12 12q0 7 6 13q15 17 71 56q67 48 90 48q7 0 10 -6q10 -26 34 -56q20 -25 41 -50z" />
    <glyph glyph-name="udieresis" unicode="&#xfc;" horiz-adv-x="356" 
d="M412 171q0 -5 -3 -9l-62 -94q-39 -56 -73 -85q-18 -15 -45 -15q-45 0 -45 45t52 137l-5 1q-35 -43 -58 -68q-45 -49 -81 -72q-32 -22 -56 -22q-37 0 -37 43q0 20 10 43q31 75 50 113q31 67 59 109q6 9 15 9q18 0 18 -14q0 -3 -2 -6q-6 -13 -98 -194q-16 -32 -16 -53
q0 -19 13 -19q6 0 13 4q33 18 98 87q25 26 54 61q47 60 102 131q7 8 24 8q21 0 21 -15q0 -12 -32 -59l-42 -60q-17 -28 -38 -72q-31 -62 -31 -89q0 -18 15 -18q26 0 80 75q36 51 71 103q4 6 12 7q15 1 17 -12zM357 407q0 -35 -35 -35q-34 0 -34 35t34 35q35 0 35 -35z
M246 407q0 -35 -35 -35q-34 0 -34 35t34 35q35 0 35 -35z" />
    <glyph glyph-name="yacute" unicode="&#xfd;" horiz-adv-x="344" 
d="M280 193q6 -61 -11 -158q47 38 114 142q5 8 13 8q14 0 14 -14q0 -5 -3 -10q-77 -125 -154 -176q-42 -119 -127 -218t-174 -134q-39 -16 -71 -16q-64 0 -74 55q-8 53 104 137q49 36 160 100q54 32 154 95q21 60 16 136q-27 -60 -93 -125q-45 -43 -91 -43q-51 0 -51 64
q0 56 42 144q-3 2 -3 7q0 13 44 84q5 9 20 9q18 0 18 -14q0 -3 -2 -6l-54 -110q-33 -73 -33 -114q0 -34 24 -34q32 0 68 38q65 67 105 153q13 29 30 29q12 0 15 -29zM204 -47q-38 -24 -113 -69q-261 -148 -250 -210q5 -32 39 -32q23 0 55 14q85 38 156 117q63 70 101 156z
M352 407q0 -17 -23 -29q-13 -7 -94 -59q-11 -6 -34 -19q-10 -6 -13 -6q-5 0 -5 4q0 16 52 55q28 24 82 62q11 6 19 6q16 0 16 -14z" />
    <glyph glyph-name="ydieresis" unicode="&#xff;" horiz-adv-x="344" 
d="M280 193q6 -61 -11 -158q47 38 114 142q5 8 13 8q14 0 14 -14q0 -5 -3 -10q-77 -125 -154 -176q-42 -119 -127 -218t-174 -134q-39 -16 -71 -16q-64 0 -74 55q-8 53 104 137q49 36 160 100q54 32 154 95q21 60 16 136q-27 -60 -93 -125q-45 -43 -91 -43q-51 0 -51 64
q0 56 42 144q-3 2 -3 7q0 13 44 84q5 9 20 9q18 0 18 -14q0 -3 -2 -6l-54 -110q-33 -73 -33 -114q0 -34 24 -34q32 0 68 38q65 67 105 153q13 29 30 29q12 0 15 -29zM204 -47q-38 -24 -113 -69q-261 -148 -250 -210q5 -32 39 -32q23 0 55 14q85 38 156 117q63 70 101 156z
M304 355q0 -35 -35 -35q-34 0 -34 35t34 35q35 0 35 -35zM193 355q0 -35 -35 -35q-34 0 -34 35t34 35q35 0 35 -35z" />
    <glyph glyph-name="dotlessi" unicode="&#x131;" horiz-adv-x="208" 
d="M274 172q0 -20 -50 -83q-46 -56 -70 -76q-31 -24 -73 -24q-74 0 -74 72q0 36 15 78q14 36 46 91q41 68 61 68q22 0 22 -14q0 -4 -4 -10q-107 -121 -107 -214q0 -46 44 -46q43 0 94 63q35 50 69 100q6 7 15 7q12 0 12 -12z" />
    <glyph glyph-name="Lslash" unicode="&#x141;" horiz-adv-x="493" 
d="M609 642q0 -12 -3 -25q-27 -112 -113 -193q-13 -12 -24 -12t-11 11q-1 12 13 25q40 38 70 87q35 58 35 102q0 58 -37 58q-91 0 -222 -167q-99 -125 -165 -260q3 -2 72 18q36 11 73 22q8 2 15 2q17 0 17 -8q0 -11 -35 -20q-27 -7 -158 -51q-38 -82 -51 -115
q-29 -70 -37 -114q147 89 347 89q45 0 83 -19q48 -24 48 -65q0 -22 -6 -26q-6 7 -11 19q-21 55 -110 55q-197 0 -322 -72q-12 -7 -30 -14q-15 -85 -65 -85q-31 0 -31 30q0 25 59 68q7 17 12 48q8 48 78 194q-10 -3 -75 -23q-5 -1 -5 6t5 17t10 11q32 9 84 25q64 130 117 209
q56 84 141 171q79 81 156 81q34 0 55 -22.5t21 -56.5z" />
    <glyph glyph-name="lslash" unicode="&#x142;" horiz-adv-x="212" 
d="M175 395q23 61 40 132q14 65 14 96q0 40 -17 45l-10 -10q-39 -41 -95 -283zM100 346q-12 -56 -15 -83q39 11 78 102q-26 -8 -63 -19zM6 347q28 8 68 19l2 11q20 89 44 151q17 45 63 139q-16 -3 -16 16q0 11 14 19.5t26 8.5q27 0 41 -38q10 -27 10 -62q0 -89 -49 -207
q65 18 74 18q17 0 17 -8q0 -11 -33.5 -20t-70.5 -19q-32 -68 -74 -109q-25 -23 -39 -23q-3 -38 -3 -70q0 -51 9 -91q14 -67 47 -67q31 0 66 58q21 36 51 108q24 59 28 59q3 -5 3 -12q0 -51 -50 -142q-55 -99 -104 -99q-77 0 -77 186q0 82 15 162l-72 -22q-5 -2 -5 5
q0 8 5 18t10 11z" />
    <glyph glyph-name="OE" unicode="&#x152;" horiz-adv-x="1018" 
d="M144 131q-72 25 -72 107q0 103 84 222q79 111 196 187q122 80 225 80q152 0 152 -140q0 -46 -18 -105q91 98 198 156q122 67 240 67q34 0 61 -15q34 -19 34 -50q0 -22 -26 -72q-28 -53 -46 -53q-7 0 -7 10q0 8 27 48.5t27 63.5q0 33 -78 33q-130 0 -282 -106
q-145 -100 -207 -220q222 108 413 108q29 0 61 -6q46 -8 46 -24q0 -8 -16 -8q-12 0 -35 7.5t-36 7.5q-88 0 -237 -46q-142 -43 -224 -92q-72 -122 -72 -201q0 -49 26 -80q28 -34 76 -34q95 0 220 60q115 55 192 128q6 6 14 8q6 1 6 -5q0 -8 -9 -19q-66 -73 -199 -139
q-138 -68 -232 -68q-62 0 -99 41t-37 103q0 28 8 58q-50 -57 -117 -104q-83 -58 -141 -58q-57 0 -90 48q-30 44 -26 102zM576 696q-93 0 -207 -74q-109 -72 -184 -175q-80 -109 -80 -202q0 -60 46 -84q26 118 80 230q66 135 142 194q7 6 14 6q20 0 15 -19q-19 -19 -55 -59
q-115 -139 -160 -362h17q24 -1 61 11q49 15 60 17q7 -1 7 -8q0 -16 -67 -33q-59 -15 -83 -15v-9q-2 -37 22 -66.5t61 -29.5q65 0 159 78q81 68 125 137l1 3q-26 -32 -38 -32q-16 0 -16 20q0 11 37 42q28 24 50 38q23 35 67 105q17 30 30.5 83.5t13.5 87.5q0 116 -118 116z
" />
    <glyph glyph-name="oe" unicode="&#x153;" horiz-adv-x="362" 
d="M207 -6q-42 0 -42 50q0 11 2 24q-74 -87 -133 -87q-40 0 -40 53q0 26 8 51q18 54 67 133q64 102 112 108q13 18 32 18q55 0 48 -77q20 24 41 44l1 3q2 11 17 13q22 15 28 15q8 0 12 -6q4 -5 0 -12q36 -9 36 -32q0 -34 -67 -80q-53 -37 -98 -53q-12 -25 -29 -78
q-8 -25 -8 -36q0 -22 21 -22q102 0 180 151q4 6 11 6q13 0 13 -12q0 -3 -1 -6q-72 -168 -211 -168zM329 297q-47 -44 -81 -106q89 43 104 90q4 12 -23 16zM209 320q-19 0 -42 -22q-86 -82 -133 -224q-7 -23 -7 -42q0 -25 16 -25q25 0 71 47q41 43 74 96q-10 2 -8 10
q6 7 20 11q13 26 22 52q5 17 5 49q0 48 -18 48z" />
    <glyph glyph-name="Scaron" unicode="&#x160;" horiz-adv-x="556" 
d="M559 470q-5 0 -5 6q0 8 5 25.5t5 26.5q0 50 -44 79q-39 25 -92 25q-110 0 -238 -87q-139 -94 -139 -199q0 -31 29 -51q26 -18 58 -18q44 0 132 10.5t131 10.5q82 0 82 -57q0 -99 -152 -202q-142 -96 -248 -96q-31 0 -51.5 18t-20.5 49q0 15 10.5 42.5t22.5 27.5q6 0 6 -8
q0 -4 -10 -22.5t-10 -34.5q0 -39 40 -39q92 0 211 73t158 156q7 15 7 26q0 33 -54 33q-40 0 -128.5 -7t-133.5 -7q-53 0 -86 21q-39 25 -39 75q0 80 99 171q82 77 171 113q76 30 141 32h14q62 2 106 -25q51 -32 51 -91q0 -20 -6 -44q-9 -32 -22 -32zM246 787q32 24 60 27
q33 3 60.5 -34t35.5 -36q10 1 62.5 41t54.5 40q8 1 9 -3q0 -5 -62.5 -60.5t-72.5 -56.5q-13 -1 -42.5 43t-63.5 41q-7 -1 -20 -6.5t-19 -6.5q-3 0 -4 5z" />
    <glyph glyph-name="scaron" unicode="&#x161;" horiz-adv-x="246" 
d="M215 175q9 -13 9 -32q0 -34 -53 -90t-87 -56q-18 0 -18 18q0 45 110 155q-38 13 -76 25q-47 19 -47 54q0 43 59 104.5t101 61.5q38 0 38 -28q0 -18 -9 -18q-5 0 -11.5 7.5t-10.5 7.5q-35 0 -86 -50t-51 -85q0 -19 48 -36q64 -22 66 -23q74 71 89 71q4 0 4 -4
q0 -7 -75 -82zM197 136q0 10 -4 15q-77 -81 -77 -97q0 -6 6 -6q17 0 46 35t29 53zM39 531q33 25 61 27q32 3 60 -34t36 -36q10 1 62.5 41t53.5 41q9 0 9 -4q1 -5 -61.5 -60.5t-72.5 -56.5q-14 -1 -43 43t-63 41q-7 0 -20.5 -6t-19.5 -6q-3 -1 -3 4z" />
    <glyph glyph-name="Ydieresis" unicode="&#x178;" horiz-adv-x="827" 
d="M840 674q0 -35 -35 -35q-34 0 -34 35t34 35q35 0 35 -35zM729 674q0 -35 -35 -35q-34 0 -34 35t34 35q35 0 35 -35zM888 -126q0 -15 -16 -15q-10 0 -33 5q-28 7 -35 8q-67 9 -129 9q-44 0 -87 -4q-190 -225 -385 -225q-42 0 -71 12q-38 16 -38 49q0 48 111 104
q141 71 364 90q38 47 65 96q56 104 139 306l-4 1q-221 -309 -374 -309q-91 0 -91 90q0 79 58 174q48 75 136 228q38 77 38 104q0 40 -69 40q-78 0 -203 -60q-64 -31 -128 -98q-71 -75 -71 -130q0 -31 29 -48q24 -14 62 -14q52 0 92 21q6 3 11 3q17 0 17 -15q0 -17 -51 -28
q-39 -9 -66 -9q-52 0 -86 21q-39 24 -39 67q0 65 74 147q66 73 140 108q126 60 221 60q98 0 98 -58q0 -44 -38 -122q-24 -49 -66 -117l-72 -114q-62 -101 -62 -161t70 -60q83 0 196 114q98 100 216 288q7 13 24 37q12 15 22 15q15 0 15 -17q0 -5 -3 -12q-22 -59 -88 -215
q-55 -129 -74 -169q-45 -95 -92 -161q24 1 47 1q150 0 213 -22q13 -4 13 -15zM543 -128q-186 -13 -321 -80q-92 -46 -92 -81q0 -34 59 -34q47 0 113 21q117 37 241 174z" />
    <glyph glyph-name="breve" unicode="&#x2d8;" horiz-adv-x="365" 
d="M303 403q2 -3 2 -7q0 -20 -19 -20q-5 0 -9 5q-19 24 -39 47q-22 29 -33 52q-96 -52 -129 -87q-6 -7 -13 -7q-12 0 -12 12q0 7 6 13q15 17 71 56q67 48 90 48q7 0 10 -6q10 -26 34 -56q20 -25 41 -50z" />
    <glyph glyph-name="dotaccent" unicode="&#x2d9;" horiz-adv-x="261" 
d="M228 486q0 -27 -22.5 -41t-38.5 -6q-10 4 -11 16q-20 14 -20 34q0 15 19.5 28t34.5 13q38 0 38 -44z" />
    <glyph glyph-name="ring" unicode="&#x2da;" horiz-adv-x="1000" 
d="M483 492q0 -33 -37 -64t-68 -31t-51 24t-20 55q0 45 30 71q27 24 64 24q34 0 58 -20.5t24 -58.5zM453 492q0 23 -15.5 36t-37.5 13q-25 0 -44 -17t-19 -48q0 -20 12 -34.5t29 -14.5q21 0 48 23t27 42z" />
    <glyph glyph-name="tilde" unicode="&#x2dc;" horiz-adv-x="323" 
d="M372 389q0 -13 -21.5 -24t-35.5 -11q-30 0 -60 23t-47 23q-37 0 -55 -19t-20 -19q-17 0 -17 15q0 3 2 7q23 45 88 45q20 0 52.5 -22.5t56.5 -22.5q14 0 26.5 9.5t16.5 9.5q14 0 14 -14z" />
    <glyph glyph-name="Delta" unicode="&#x394;" horiz-adv-x="1433" 
d="M1417 27h-46q0 -7 4.5 -14t13.5 -7q11 0 17 13h10q-2 -7 -6 -12q-7 -10 -21 -10t-21.5 9.5t-7.5 24.5q1 16 9.5 25.5t21.5 8.5t19.5 -9.5t6.5 -28.5zM1357 0h-12l-21 34l-10 -10v-24h-10v87h10v-50l27 26h13l-22 -22zM1296 0h-11v43q0 9 -5.5 11.5t-9.5 1.5
q-5 -1 -9.5 -5.5t-4.5 -9.5v-41h-10v87h10v-32q8 10 19 10q15 0 19 -11q2 -4 2 -6v-48zM1230 22q-1 -26 -27 -25q-27 1 -26 35q0 15 8 23.5t20 9.5q11 0 17.5 -5t7.5 -18h-10q-1 9 -6 11.5t-9 2.5q-16 -1 -17 -23q-1 -10 2 -17q5 -10 16 -9q9 0 12 7q2 4 3 8h9zM1168 15
q-2 -17 -23 -18q-7 0 -12 1q-16 4 -16 21h10q0 -13 19 -13q12 3 12 10q0 6 -7 8q-10 3 -21 6.5t-11 15.5q0 19 23 19t23 -20h-10q0 10 -14 10q-9 0 -12 -6q-4 -9 18 -14q5 -1 13.5 -5t7.5 -15zM1101 0h-10v7v0q-7 -10 -20 -10q-17 0 -20 16v50h10v-45q0 -10 10 -11q4 -1 7 0
q13 5 13 22v34h10v-63zM1039 27h-46q0 -7 4.5 -14t13.5 -7q11 0 17 13h10q-2 -7 -6 -12q-7 -10 -21 -10t-21.5 9.5t-7.5 24.5q1 16 9.5 25.5t21.5 8.5t19.5 -9.5t6.5 -28.5zM978 0h-55v87h12v-77h43v-10zM876 0h-13v12h13v-12zM848 0h-63v87h61v-9h-50v-28h48v-10h-48v-30
h52v-10zM728 -2q-7 -1 -11 -1q-9 1 -9 9v48h-9v9h9v17h10v-17h10v-9h-10v-44q0 -5 10 -3v-9zM688 54q-5 0 -10 -1q-10 -5 -10 -20v-33h-10v63h10v-10v0q6 12 14 12h6v-11zM652 27h-46q-1 -7 3.5 -14t13.5 -7q12 0 17 13h10q-1 -7 -5 -12q-8 -10 -22 -10t-21 9.5t-7 24.5
q0 16 8.5 25.5t22.5 8.5q12 -1 18.5 -9.5t7.5 -28.5zM589 27q-3 -30 -28 -30q-11 0 -19 10v-7h-9v87h10v-32v0q4 10 19 10q30 0 27 -38zM527 31q0 -34 -29 -34q-28 0 -28 34t28 34q29 0 29 -34zM471 0h-13q-2 5 -3 11v17q-2 10 -14 10h-29v-38h-11v87h39q27 0 28 -22
q1 -13 -12 -22q10 -6 10.5 -21.5t4.5 -18.5v-3zM349 23q0 -26 -29 -26q-26 0 -28 28h10q2 -18 16 -18q22 0 20 18q-1 14 -23 14v9q21 0 21 14q0 13 -15 13q-17 0 -17 -18l-10 1q1 27 26 27q27 0 27 -24q0 -10 -10 -17q12 -6 12 -21zM286 41q0 -21 -6 -31q-7 -13 -22 -13
q-14 0 -21 13q-7 10 -7 31t7 32.5t21 11.5q15 0 21.5 -11.5t6.5 -32.5zM222 41q0 -21 -6 -31q-7 -13 -22 -13q-14 0 -21 13q-6 10 -6 31t6.5 32.5t20.5 11.5q15 0 21.5 -11.5t6.5 -32.5zM162 60q0 -16 -17 -25l-14 -7q-15 -8 -15 -18h45v-10h-56q1 24 22 36l13 7q11 7 11 17
q0 16 -17 15q-16 0 -17 -19h-10q0 29 29 29q26 0 26 -25zM97 43q0 -19 -13.5 -32.5t-32.5 -13.5t-32.5 13.5t-13.5 32.5t13.5 32.5t32.5 13.5t32.5 -13.5t13.5 -32.5zM1406 36q1 9 -2.5 14.5t-12.5 6.5q-9 0 -14 -5.5t-5 -15.5h34zM1028 36q1 9 -2.5 14.5t-12.5 6.5
q-9 0 -14 -5.5t-5 -15.5h34zM641 36q0 9 -3.5 14.5t-12.5 6.5q-9 0 -14 -5.5t-5 -15.5h35zM573 48q-4 7 -13 7q-8 -1 -12 -6q-12 -17 -1 -35q4 -7 12 -7q9 -1 13 6q14 18 1 35zM516 31q0 24 -18 24t-18 -24t18 -24t18 24zM457 61q1 17 -17 17h-28v-30h28q15 0 17 13zM276 41
q0 18 -4.5 26t-13.5 8t-13 -8t-4 -26t4 -26t13 -8t13.5 8t4.5 26zM212 41q0 18 -4.5 26t-13.5 8q-8 0 -12.5 -8t-4.5 -26t4.5 -26t12.5 -8q9 0 13.5 8t4.5 26zM91 43q0 17 -11.5 28.5t-28.5 11.5t-28.5 -11.5t-11.5 -28.5t11.5 -28.5t28.5 -11.5t28.5 11.5t11.5 28.5zM74 35
q-2 -18 -21 -18q-25 0 -25 27q0 26 25 26q19 0 21 -17h-6q-2 11 -15 11q-19 0 -19 -20q0 -21 19 -21q13 0 15 12h6z" />
    <glyph glyph-name="Delta" unicode="&#x2206;" horiz-adv-x="1433" 
d="M1417 27h-46q0 -7 4.5 -14t13.5 -7q11 0 17 13h10q-2 -7 -6 -12q-7 -10 -21 -10t-21.5 9.5t-7.5 24.5q1 16 9.5 25.5t21.5 8.5t19.5 -9.5t6.5 -28.5zM1357 0h-12l-21 34l-10 -10v-24h-10v87h10v-50l27 26h13l-22 -22zM1296 0h-11v43q0 9 -5.5 11.5t-9.5 1.5
q-5 -1 -9.5 -5.5t-4.5 -9.5v-41h-10v87h10v-32q8 10 19 10q15 0 19 -11q2 -4 2 -6v-48zM1230 22q-1 -26 -27 -25q-27 1 -26 35q0 15 8 23.5t20 9.5q11 0 17.5 -5t7.5 -18h-10q-1 9 -6 11.5t-9 2.5q-16 -1 -17 -23q-1 -10 2 -17q5 -10 16 -9q9 0 12 7q2 4 3 8h9zM1168 15
q-2 -17 -23 -18q-7 0 -12 1q-16 4 -16 21h10q0 -13 19 -13q12 3 12 10q0 6 -7 8q-10 3 -21 6.5t-11 15.5q0 19 23 19t23 -20h-10q0 10 -14 10q-9 0 -12 -6q-4 -9 18 -14q5 -1 13.5 -5t7.5 -15zM1101 0h-10v7v0q-7 -10 -20 -10q-17 0 -20 16v50h10v-45q0 -10 10 -11q4 -1 7 0
q13 5 13 22v34h10v-63zM1039 27h-46q0 -7 4.5 -14t13.5 -7q11 0 17 13h10q-2 -7 -6 -12q-7 -10 -21 -10t-21.5 9.5t-7.5 24.5q1 16 9.5 25.5t21.5 8.5t19.5 -9.5t6.5 -28.5zM978 0h-55v87h12v-77h43v-10zM876 0h-13v12h13v-12zM848 0h-63v87h61v-9h-50v-28h48v-10h-48v-30
h52v-10zM728 -2q-7 -1 -11 -1q-9 1 -9 9v48h-9v9h9v17h10v-17h10v-9h-10v-44q0 -5 10 -3v-9zM688 54q-5 0 -10 -1q-10 -5 -10 -20v-33h-10v63h10v-10v0q6 12 14 12h6v-11zM652 27h-46q-1 -7 3.5 -14t13.5 -7q12 0 17 13h10q-1 -7 -5 -12q-8 -10 -22 -10t-21 9.5t-7 24.5
q0 16 8.5 25.5t22.5 8.5q12 -1 18.5 -9.5t7.5 -28.5zM589 27q-3 -30 -28 -30q-11 0 -19 10v-7h-9v87h10v-32v0q4 10 19 10q30 0 27 -38zM527 31q0 -34 -29 -34q-28 0 -28 34t28 34q29 0 29 -34zM471 0h-13q-2 5 -3 11v17q-2 10 -14 10h-29v-38h-11v87h39q27 0 28 -22
q1 -13 -12 -22q10 -6 10.5 -21.5t4.5 -18.5v-3zM349 23q0 -26 -29 -26q-26 0 -28 28h10q2 -18 16 -18q22 0 20 18q-1 14 -23 14v9q21 0 21 14q0 13 -15 13q-17 0 -17 -18l-10 1q1 27 26 27q27 0 27 -24q0 -10 -10 -17q12 -6 12 -21zM286 41q0 -21 -6 -31q-7 -13 -22 -13
q-14 0 -21 13q-7 10 -7 31t7 32.5t21 11.5q15 0 21.5 -11.5t6.5 -32.5zM222 41q0 -21 -6 -31q-7 -13 -22 -13q-14 0 -21 13q-6 10 -6 31t6.5 32.5t20.5 11.5q15 0 21.5 -11.5t6.5 -32.5zM162 60q0 -16 -17 -25l-14 -7q-15 -8 -15 -18h45v-10h-56q1 24 22 36l13 7q11 7 11 17
q0 16 -17 15q-16 0 -17 -19h-10q0 29 29 29q26 0 26 -25zM97 43q0 -19 -13.5 -32.5t-32.5 -13.5t-32.5 13.5t-13.5 32.5t13.5 32.5t32.5 13.5t32.5 -13.5t13.5 -32.5zM1406 36q1 9 -2.5 14.5t-12.5 6.5q-9 0 -14 -5.5t-5 -15.5h34zM1028 36q1 9 -2.5 14.5t-12.5 6.5
q-9 0 -14 -5.5t-5 -15.5h34zM641 36q0 9 -3.5 14.5t-12.5 6.5q-9 0 -14 -5.5t-5 -15.5h35zM573 48q-4 7 -13 7q-8 -1 -12 -6q-12 -17 -1 -35q4 -7 12 -7q9 -1 13 6q14 18 1 35zM516 31q0 24 -18 24t-18 -24t18 -24t18 24zM457 61q1 17 -17 17h-28v-30h28q15 0 17 13zM276 41
q0 18 -4.5 26t-13.5 8t-13 -8t-4 -26t4 -26t13 -8t13.5 8t4.5 26zM212 41q0 18 -4.5 26t-13.5 8q-8 0 -12.5 -8t-4.5 -26t4.5 -26t12.5 -8q9 0 13.5 8t4.5 26zM91 43q0 17 -11.5 28.5t-28.5 11.5t-28.5 -11.5t-11.5 -28.5t11.5 -28.5t28.5 -11.5t28.5 11.5t11.5 28.5zM74 35
q-2 -18 -21 -18q-25 0 -25 27q0 26 25 26q19 0 21 -17h-6q-2 11 -15 11q-19 0 -19 -20q0 -21 19 -21q13 0 15 12h6z" />
    <glyph glyph-name="pi" unicode="&#x3c0;" horiz-adv-x="330" 
d="M346 215q2 0 1 -4q-2 -7 -11 -14q-38 -28 -81 -25q-18 -34 -37 -68q-21 -40 -29 -70q-10 -38 9 -38q11 0 34 14q18 12 59 63q6 7 9 7q1 -1 1 -2q-4 -15 -40.5 -50.5t-54.5 -39.5q-9 -3 -17 -3q-23 0 -23 22q0 9 4 25q22 84 59 144q-19 6 -59 15q-33 -113 -87 -181
q-2 -3 -5 -3q-6 1 -5 3q10 16 25 44q25 49 49 139h-2q-43 0 -82 -27q-4 -2 -5 -2q-3 0 -2 3q2 8 11 14q49 38 93 38q23 0 61.5 -13.5t60.5 -13.5t43.5 11.5t20.5 11.5z" />
    <glyph glyph-name="endash" unicode="&#x2013;" horiz-adv-x="513" 
d="M524 257q0 -5 -16 -6q-11 -1 -31 -1q-26 2 -23 2q-97 0 -212 -21q-54 -10 -84 -28q-6 -4 -12 -4q-23 0 -23 20q0 26 116 43q89 14 146 14q77 0 131 -14q8 -2 8 -5z" />
    <glyph glyph-name="emdash" unicode="&#x2014;" horiz-adv-x="605" 
d="M619 257q0 -7 -41 -7q-8 0 -23.5 1t-23.5 1q-121 0 -265 -21q-16 -2 -120 -32q-29 0 -29 20q0 26 144 43q111 14 185 14q95 0 162 -14q11 -2 11 -5z" />
    <glyph glyph-name="quoteleft" unicode="&#x2018;" horiz-adv-x="185" 
d="M80 444q0 -17 -18 -17q-19 0 -19 21q0 49 18 96q20 52 54 82q6 5 11 5t5 -4q0 -7 -18 -32q-19 -28 -22 -36q-11 -30 -11 -115z" />
    <glyph glyph-name="quoteright" unicode="&#x2019;" horiz-adv-x="185" 
d="M70 438q-6 0 -6 5q0 7 18 33.5t21 34.5q12 34 12 115q0 17 17 17q19 0 19 -17q0 -122 -71 -183q-6 -5 -10 -5z" />
    <glyph glyph-name="quotesinglbase" unicode="&#x201a;" horiz-adv-x="521" 
d="M70 34v0q0 -1 -3 -4l-1 -2q-19 -31 -16 -31q-1 0 -1 1t1 4q7 15 12 23q-2 -1 -4 -3q-1 0 -1 1q1 2 5 5l2.5 2.5l4.5 4.5q1 0 1 -1zM151 18q0 -8 -9.5 -18t-18.5 -11q-1 1 -1 2v1q2 0 5 1q22 10 22 25q0 8 -8 8q-11 0 -11 -11q0 -6 5 -6q2 0 4.5 2.5t3.5 2.5v-1.5v-0.5
q-4 -5 -8 -5q-7 0 -7 8q0 13 13 13q10 0 10 -10zM132 35v0q-1 -6 -12 -13q-5 -3 -7 -5q8 -6 8 -10q0 -11 -14 -11q-11 0 -11 7q0 5 14 14q-3 3 -3 7q0 11 10 11q9 0 9 -5q0 -1 -1 -1l-2 2q-3 2 -5 2q-9 0 -9 -9q0 -3 2 -6q8 5 19 17q0 2 1 2q1 -1 1 -2zM119 7q0 1 -8 9
q-13 -9 -13 -14q0 -4 8 -4q13 0 13 9zM89 21q0 -8 -9.5 -18t-17.5 -11q-2 0 -2 2h1q2 1 5 2q21 9 21 25q0 8 -7 8q-12 0 -12 -12q0 -5 5 -5q3 0 5 2t3 2t1 -1l-1 -1q-3 -5 -8 -5q-7 0 -7 8q0 14 14 14q9 0 9 -10zM227 29q0 -18 -31 -18q1 -1 2 -3q9 -10 12 -10q-1 0 4 2
q1 0 1 -1q-1 -2 -5 -2t-17 14q-2 0 -7 1q-5 -8 -5 -12q0 1 3 -4l-1 -1q-4 0 -4 6q0 4 5 12q-3 2 -3 5q0 2 3 2q2 0 3 -1q9 14 12 14v-1l-3.5 -4.5t-6.5 -9.5l5 -5h2q29 0 29 15q0 11 -18 11h-1q-30 -1 -30 -14v-2h-1t-1 2q0 15 33 16q20 0 20 -12zM192 13l-4 4q0 -1 -1 -3
q1 -1 5 -1zM187 18q-1 1 -3 1q-1 0 -1 -1t2 -3q1 1 2 3zM228 13v-1q-2 -3 -3 -4q-4 -4 -8.5 -6t-7.5 -2q-5 0 -5 5q0 4 2 6v1q0 11 10 11q6 0 6 -5t-4 -12h1q2 0 5 3.5l3 3.5h1zM220 17q0 5 -4 5q-3 0 -5 -3v0v0q1 0 1 -1v0q-2 -2 -4 -7q1 -5 7 -5v0q5 6 5 11zM214 4
q-5 0 -7 4q-2 -6 2 -6q2 0 5 2zM242 12q3 -1 0 -1q-1 -1 -3 -1q-2 -7 -10 -11q-11 -6 -11 1q0 2 2 4q9 33 17 33q1 0 1 -1v-1q-10 -11 -15 -26h1q3 4 7 8q9 9 9 -3q-1 -1 -1 -2h3zM238 15q0 3 -2 3q-3 0 -10 -10v0q6 3 11 4q1 2 1 3zM237 10q-9 -2 -14 -5.5t-2 -5.5
q2 -1 7.5 1.5t8.5 9.5zM363 -2v0q-3 -3 -8 -3q-7 0 -31 10q-7 -7 -14 -7q-8 0 -8 6q0 7 9 7q5 0 13 -3q3 3 6 9q-10 1 -10 9q0 11 11 11q1 0 1 -1q-2 0 -6 -2t-4 -8q0 -7 9 -8q7 12 12 19.5t11 7.5t6 -6q0 -7 -8.5 -14.5t-18.5 -7.5q-4 -7 -7 -10q22 -10 29 -10q1 0 7 2
q1 0 1 -1zM358 40q0 3 -4 3q-5 0 -10 -8q-2 -3 -10 -17q9 1 16.5 8t7.5 14zM323 6q-8 3 -12 3q-7 0 -7 -5q0 -4 6 -4t13 6zM358 11q-7 -11 -13 -11t-6 6q0 15 12 15q3 0 3 -3q0 -10 -11 -10h-2q-1 -6 4 -6q3 0 5.5 2.5t6.5 7.5q1 0 1 -1zM352 18q0 1 -1 1q-6 0 -9 -9
q0 -1 1 -1q9 0 9 9zM377 11v0q-2 -4 -8 -11q-6 -5 -6 1q0 3 4 9h-1q-2 -3 -8 -9q-4 -2 -5 0q-2 1 0 4q6 14 7 14h1v-1q0 -1 -6 -12q0 -2 1 -4q3 2 9 9q3 4 7 8q2 2 2 0q0 -1 -4 -7q-7 -11 -4 -11q2 0 6 5.5l4 5.5q1 0 1 -1zM376 0l-4 1t-4 -1q1 -2 4 -2q2 0 4 2zM381 4
l-1 -2q4 -1 8 7q1 0 2 -1q-5 -8 -11 -8q-3 -3 -7 -3q-7 0 -6 4q0 3 6 2l6 -2q1 1 1 3q0 -2 -4 8q-3 -4 -7 -9q-1 0 -1 1h1q2 4 7 11q0 2 1.5 4.5t2.5 1.5q2 0 0 -4l-2 -2q0 -2 2 -5.5t2 -5.5zM404 10q-7 -11 -13 -11q-7 0 -7 6q0 16 14 16q4 0 4 -4q-1 -5 -4 -5q-1 0 -1 1
q2 3 2 4q0 2 -1 2q-5 0 -10 -9q-2 -2 -2 -4q0 -6 5 -6q3 0 5.5 3t6.5 8q1 0 1 -1zM424 8q-4 -7 -8 -9q-7 -6 -7 2q0 -4 8 17q-1 0 -6 -3.5t-7.5 -8t-4.5 -8.5q-1 0 -2 1q2 11 6 19t14 18q2 0 5 -3q0 -5 -9 -12q-4 -3 -10 -8q-1 0 0 1q3 3 9 8.5t8 10.5q-1 1 -2 1
q-11 -4 -16 -26q3 4 8.5 8t7.5 4q4 -1 0 -6q-7 -8 -7 -13t4 -1q3 2 8 9q1 1 1 -1zM444 9v0q-7 -11 -12 -11q-6 0 -9 8l-4 -8q-1 0 -1 1q1 2 4 9q-1 5 0 5q1 -1 2 -1q3 7 10 22q1 4 2 1q0 -2 -10 -23v0q5 6 9 8t6 1q2 -2 0 -5q-7 -2 -16 -8q2 -8 7 -8q4 0 7.5 5l3.5 5
q1 0 1 -1zM438 16q2 1 2 3q-1 1 -4.5 -1t-6.5 -6q6 0 9 4zM453 10q-7 -12 -13 -12t-6 7q0 15 12 15q3 0 3 -3q0 -11 -11 -11h-2q-1 -6 4 -6q3 0 5.5 2.5t6.5 7.5q1 1 1 0zM447 16q0 2 -1 2q-6 0 -9 -10h1q9 0 9 8zM274 10q-4 -6 -8 -10q-6 -5 -7 2q0 4 5 11q-3 0 -4 2
q-2 -3 -6 -10q-2 0 -2 1q11 16 10 16q1 -1 1 -2q-1 -6 -1 -4q0 -1 2 -1l4 1q1 0 1 -1v-1q-8 -7 -8 -12q1 -1 4 -1q3 3 7 10q2 0 2 -1zM286 21q0 -1 -6 -1q-6 -13 -6 -18q0 -1 1 -3q-2 0 2 1q1 0 1 -1q-1 -1 -4 -2q-3 0 -3 5t6 17q-7 0 -5 0h-1q0 2 7 2q5 11 6 11t1 -1v-1
q-1 -1 -4 -8h4q1 0 1 -1zM257 11q-7 -11 -14 -11q-6 0 -6 7q0 15 12 15q4 0 4 -3q0 -11 -12 -11h-1q-2 -6 3 -6q4 0 6.5 2.5t5.5 7.5q1 0 2 -1zM251 18q-1 2 -2 2q-6 0 -9 -10h1q10 0 10 8z" />
    <glyph glyph-name="quotedblleft" unicode="&#x201c;" horiz-adv-x="277" 
d="M172 450q0 -17 -17 -17q-19 0 -19 21q0 115 71 178q6 5 10 5q6 0 6 -5q0 -7 -18 -32q-19 -28 -22 -36q-11 -31 -11 -114zM73 450q0 -17 -17 -17q-19 0 -19 21q0 113 71 178q6 5 10 5q6 0 6 -5q0 -6 -18.5 -33t-21.5 -35q-11 -30 -11 -114z" />
    <glyph glyph-name="quotedblright" unicode="&#x201d;" horiz-adv-x="277" 
d="M169 438q-6 0 -6 5q0 7 18.5 33.5t21.5 34.5q11 30 11 115q0 17 17 17q19 0 19 -17q0 -120 -71 -183q-5 -5 -10 -5zM70 438q-6 0 -6 5q0 7 18 33.5t21 34.5q12 34 12 115q0 17 17 17q19 0 19 -17q0 -122 -71 -183q-6 -5 -10 -5z" />
    <glyph glyph-name="bullet" unicode="&#x2022;" horiz-adv-x="600" 
d="M345 190q-33 0 -53.5 20t-20.5 51q0 46 39.5 83.5t85.5 37.5q34 0 55 -20t21 -52q0 -46 -40 -83t-87 -37z" />
    <glyph glyph-name="fraction" unicode="&#x2044;" horiz-adv-x="336" 
d="M48 -58q-9 4 -9 10q0 29 156 290q151 251 199 312q8 9 28.5 18t32.5 9q6 0 6 -3q0 -2 -4 -7q-96 -123 -209 -293q-139 -207 -175 -301q-7 -18 -9 -21q-7 -13 -16 -14z" />
    <glyph glyph-name="trademark" unicode="&#x2122;" horiz-adv-x="656" 
d="M794 597q-12 -25 -32 -71q-24 -79 -59 -169q-15 -17 -40 -17q-11 0 -9 9l4 8q24 55 76 165q-141 -135 -189 -135q-52 0 -53 135q-17 -23 -53 -92q-33 -62 -55 -86q-15 -16 -31 -16q-11 0 -9 7q61 92 140 214q9 25 18 49q15 35 33 35q8 0 8 -22q0 -8 -6.5 -58t-6.5 -79
q0 -66 30 -66t128.5 108t100.5 108q13 0 5 -27zM507 635q-3 -12 -75 -20q-75 -8 -86 -21q-25 -31 -63 -96l-58 -100q-15 -26 -44 -67q-9 -9 -23 -9q-19 0 -16 13q4 14 67 105q39 57 79 114q11 17 24 42q2 9 -26 9q-12 0 -36.5 -2.5t-36.5 -2.5q-21 0 -22 13q11 13 141 22
q101 8 156 8q21 0 19 -8z" />
    <glyph glyph-name="infinity" unicode="&#x221e;" horiz-adv-x="728" 
d="M507 172q-67 0 -67 59q0 17 6 40q-20 -14 -40 -25q-95 -53 -114 -62q-64 -30 -119 -30q-92 0 -92 57q0 13 4 29q23 86 134 160q105 70 194 70q45 0 73 -21q25 -19 25 -56q0 -19 -8 -50q178 139 254 139q55 0 55 -65q0 -79 -115 -165q-108 -80 -190 -80zM776 373
q4 16 4 29q0 49 -56 49q-34 0 -117 -59q-57 -44 -113 -87q-7 -28 -7 -47q0 -54 58 -54q43 0 107 35q60 33 94 73q20 23 30 61zM456 305q16 52 16 74q0 29 -20 45q-24 18 -62 18q-54 0 -120 -36q-62 -34 -105 -82q-65 -72 -65 -113q0 -40 57 -40q63 0 154 44q77 37 145 90z
" />
    <glyph glyph-name="notequal" unicode="&#x2260;" horiz-adv-x="397" 
d="M34 -162q-8 4 -6 10q7 26 194 244q-35 -9 -61 -25q-6 -4 -10 -4q-18 0 -13 20q7 27 116 46q50 58 102 116q-41 -5 -85 -14t-74 -28q-5 -4 -10 -4q-18 0 -13 20q6 23 87 40q59 12 122 16q124 140 162 175q10 9 32.5 18t35.5 9q6 0 5 -3q-1 -2 -6 -7q-81 -77 -191 -191
q47 -3 79 -14q6 -2 6 -5q-2 -5 -15 -6q-9 -1 -26 -1q-20 2 -18 2q-24 0 -52 -3q-58 -60 -109 -116q51 7 77 7q61 0 101 -14q6 -2 5 -5q-1 -5 -14 -6q-10 -1 -26 0q-21 1 -18 1q-69 0 -156 -17q-137 -151 -186 -226l-14 -21q-11 -13 -21 -14z" />
    <glyph glyph-name="lessequal" unicode="&#x2264;" horiz-adv-x="318" 
d="M346 436q-4 -15 -140 -153l36 -68q28 -55 25 -66q-3 -14 -14 -13l-7 4q-14 30 -40 59l-51 51q-3 2 -2 6q3 11 76 86q63 65 90 89q12 11 22 11q6 0 5 -6zM287 78q-1 -5 -8 -5q-30 0 -91.5 -6t-92.5 -6q-4 0 -9.5 9t-4.5 15l2 1q23 7 99 7q82 0 102 -12q3 -1 3 -3z" />
    <glyph glyph-name="greaterequal" unicode="&#x2265;" horiz-adv-x="318" 
d="M313 315q-3 -11 -75 -86q-63 -65 -90 -89q-12 -11 -22 -11q-7 0 -5 6q4 15 140 153q-19 34 -37 68q-28 55 -25 66q4 14 15 13l6 -4q14 -30 40.5 -57.5t51.5 -52.5q2 -2 1 -6zM270 78q-1 -5 -8 -5q-30 0 -91.5 -6t-92.5 -6q-4 0 -9.5 9t-4.5 15l2 1q23 7 99 7
q82 0 102 -12q3 -1 3 -3z" />
    <glyph glyph-name="apple" unicode="&#xf000;" horiz-adv-x="671" 
d="M353 616q-2 6 -2 17q0 48 29 93q20 29 54 47q30 17 44 11q4 -5 4 -19q0 -47 -32 -94q-38 -57 -97 -55zM378 600q40 11 71 23q10 4 28 4q82 0 127 -71q-80 -44 -76 -143q2 -44 27.5 -79.5t65.5 -51.5q-17 -56 -64 -112q-55 -68 -94 -68q-35 0 -61 18q-20 13 -53 13
q-34 0 -54 -13q-26 -18 -61 -18q-38 0 -94 68q-81 99 -81 239q0 72 28 125q52 92 139 92q15 0 23 -3q33 -13 70 -23q29 -8 59 0zM224 479v-2q0 -4 5 -4q4 0 4 5v21h4v-21q0 -8 -8 -8t-8 7v2h3zM255 470v3v0q-2 -3 -7 -3q-6 0 -6 6v15h3v-14q0 -4 4 -4q6 0 6 7v11h3v-21h-3z
M267 470h-4v29h4v-29zM285 491h4q-3 -7 -8 -20q-3 -9 -8 -9h-1v3h2q2 0 3 5l-7 21h4l5 -17v0zM314 470h-4v20h-6v3q6 0 7 5h3v-28zM323 497h19v-3q-9 -9 -11 -24h-4q2 13 11 24h-15v3zM347 474h4v-3q0 -5 -4 -6v1q2 1 2 4h-2v4zM367 488q0 10 9 10t9 -8q0 -6 -7 -10l-3 -1
q-4 -2 -5 -5h15v-4h-19q0 8 7 11l3 2q5 3 5 7q0 5 -5 5t-6 -7h-3zM404 484q0 -11 -6 -11t-6 11t6 11t6 -11zM407 484q0 -14 -9 -14q-10 0 -10 14t10 14q9 0 9 -14zM425 484q0 -11 -5 -11q-6 0 -6 11t6 11q5 0 5 -11zM429 484q0 -14 -9 -14q-10 0 -10 14t10 14q9 0 9 -14z
M443 492h1v-12h-9zM451 477h-4v-7h-3v7h-12v3l12 18h3v-18h4v-3zM261 383h-4v20h-6v3q6 0 7 5h3v-28zM283 383h-4v20h-6v3q6 0 7 5h3v-28zM298 383h-4v4h4v-4zM298 399h-4v5h4v-5zM307 399q2 2 5 2q10 0 10 -9t-10 -9q-9 0 -9 7h3q1 -4 6 -4q6 0 6 6t-6 6q-3 0 -5 -3h-3
l2 15h14v-3h-12zM336 405v0v-12h-9zM344 390h-4v-7h-4v7h-12v3l13 18h3v-18h4v-3zM374 408h8q5 0 5 -5t-6 -5h-7v10zM374 395v-12h-4v28h13q8 0 8 -7q0 -9 -8 -9h-9zM419 383v17v7v0l-8 -24h-4l-8 24v0v-7v-17h-3v28h5l8 -23v0l8 23h6v-28h-4zM169 267q6 0 6 -5q0 -6 -6 -6
q-5 0 -5 6q0 5 5 5zM178 275q0 -4 -4 -6q5 -2 5 -7q0 -9 -10 -9q-4 0 -6.5 2.5t-2.5 6.5q0 5 4 7q-3 1 -3 5q0 8 8 8q9 0 9 -7zM169 270q-5 0 -5 4t5 4t5 -4t-5 -4zM195 269h13v-15h-3l-1 4q-3 -5 -9 -5q-5 0 -9 4t-4 11q0 15 13 15q11 0 12 -9h-3q-2 6 -9 6q-9 0 -9 -12
q0 -11 9 -11t9 9h-9v3zM212 272q0 10 10 10q8 0 8 -9q0 -5 -7 -9l-3 -1q-4 -3 -5 -6h15v-3h-18q0 7 6 11l4 2q5 3 5 7t-6 4q-5 0 -5 -6h-4zM243 266q-5 0 -5 6t5 6t5 -5q0 -7 -5 -7zM243 263q-9 0 -9 9q0 10 9 10t9 -13q0 -16 -9 -16t-9 8h4q0 -5 4 -5q6 0 7 11v0
q-2 -4 -6 -4zM260 270q2 2 5 2q9 0 9 -9q0 -10 -10 -10q-8 0 -9 8h4q0 -5 6 -5t6 7q0 6 -7 6q-3 0 -5 -3h-3l2 15h15v-3h-12zM289 276v0v-12h-9zM296 261h-4v-7h-3v7h-12v3l13 18h2v-18h4v-3zM299 281h19v-3q-9 -9 -11 -24h-4q2 12 11 24h-15v3zM330 267q6 0 6 -5
q0 -6 -5 -6q-6 0 -6 6q0 5 5 5zM339 275q0 -4 -4 -6q5 -2 5 -7q0 -9 -10 -9q-4 0 -6.5 2.5t-2.5 6.5q0 5 5 7q-4 1 -4 5q0 8 8 8q9 0 9 -7zM330 270q-5 0 -5 4t5 4t5 -4t-5 -4zM343 272q0 10 10 10q8 0 8 -9q0 -5 -7 -9l-3 -1q-4 -3 -5 -6h15v-3h-19q1 7 7 11l3 2q5 3 5 7
t-5 4t-6 -6h-3zM374 266q-6 0 -6 6t6 6q5 0 5 -5q0 -7 -5 -7zM373 263q-8 0 -8 9q0 10 9 10t9 -13q0 -16 -10 -16q-8 0 -8 8h3q1 -5 5 -5q6 0 7 11v0q-2 -4 -7 -4zM394 270h1q6 0 6 4t-5 4t-6 -5h-3q0 9 9 9q8 0 8 -8q0 -4 -3 -5v0q4 -2 4 -7q0 -9 -10 -9q-8 0 -9 10h4
q0 -7 6 -7t6 6q0 5 -7 5h-0.5h-0.5v3zM423 267q0 -11 -6 -11q-5 0 -5 11t5 11q6 0 6 -11zM427 267q0 -14 -10 -14q-9 0 -9 14q0 15 9 15q10 0 10 -15zM437 270h2q5 0 5 4t-5 4t-5 -5h-4q0 9 9 9t9 -8q0 -4 -4 -5v0q5 -2 5 -7q0 -9 -10 -9q-9 0 -9 10h3q1 -7 6 -7q6 0 6 6
q0 5 -6 5h-1h-1v3zM452 272q0 10 9 10t9 -9q0 -5 -7 -9l-3 -1q-4 -3 -5 -6h15v-3h-19q0 7 7 11l3 2q5 3 5 7t-5 4t-6 -6h-3zM473 281h19v-3q-9 -9 -11 -24h-4q2 12 12 24h-16v3zM510 267q0 -11 -5 -11q-6 0 -6 11t6 11q5 0 5 -11zM514 267q0 -14 -9 -14q-10 0 -10 14
q0 15 10 15q9 0 9 -15zM537 282h4v-28h-4l-15 23v0v-23h-4v28h5l14 -23v0v23z" />
    <glyph glyph-name="NULL" horiz-adv-x="0" 
 />
    <glyph glyph-name="DC1" horiz-adv-x="866" 
d="M2570 -331l-2567 1v986h2567v-987z" />
    </font>
</defs>
</svg>
